{"glyphs":{"0":{"ha":708,"x_min":52,"x_max":663,"o":"m 52 446 q 155 863 52 729 q 372 971 239 971 q 521 926 456 971 q 625 781 587 880 q 663 515 663 682 q 629 220 663 351 q 511 22 594 88 q 351 -28 448 -28 q 125 96 198 -28 q 52 446 52 220 m 186 484 q 199 259 186 343 q 238 122 212 175 q 292 48 264 69 q 359 28 320 28 q 443 59 407 28 q 505 176 479 90 q 531 430 531 262 q 507 727 531 587 q 476 831 496 789 q 427 895 456 874 q 355 916 399 916 q 284 895 313 916 q 234 831 255 873 q 207 739 218 801 q 186 484 186 631 z "},"1":{"ha":708,"x_min":159,"x_max":551,"o":"m 159 817 l 159 853 q 350 935 293 908 q 416 971 376 947 l 436 956 q 420 454 420 755 q 422 160 420 195 q 433 73 423 91 q 446 59 437 64 q 551 31 450 58 l 551 -7 q 347 0 412 0 q 174 -7 273 0 l 174 31 q 283 62 273 56 q 297 76 292 67 q 306 163 303 88 q 307 435 307 189 l 306 706 l 305 770 q 295 821 304 808 q 264 833 286 833 q 159 817 241 833 z "},"2":{"ha":708,"x_min":33,"x_max":659,"o":"m 135 709 l 87 709 q 119 877 108 791 q 233 948 176 924 q 349 971 290 971 q 479 938 418 971 q 572 846 541 905 q 603 714 603 786 q 579 591 603 649 q 479 428 549 515 q 186 100 410 341 l 471 100 q 552 113 532 100 q 600 180 572 125 q 608 195 602 185 l 659 195 q 577 -7 604 63 q 332 0 441 0 q 33 -7 234 0 l 33 33 q 326 354 239 248 q 451 549 414 460 q 477 676 477 608 q 433 812 477 766 q 321 859 390 859 q 210 819 258 859 q 135 709 172 789 z "},"3":{"ha":708,"x_min":71,"x_max":624,"o":"m 170 753 l 124 753 q 160 903 146 827 q 259 954 209 937 q 361 971 309 971 q 475 946 425 971 q 551 874 526 920 q 576 778 576 827 q 444 563 576 656 q 559 500 518 543 q 624 322 624 433 q 516 75 624 178 q 248 -28 409 -28 q 71 7 158 -28 q 100 183 90 94 l 140 183 q 205 73 165 104 q 306 41 245 41 q 450 100 393 41 q 508 260 508 160 q 447 419 508 360 q 274 479 386 479 q 251 478 264 479 l 251 526 q 417 614 370 560 q 464 732 464 668 q 427 829 464 792 q 325 865 389 865 q 228 834 269 865 q 170 753 197 810 z "},"4":{"ha":708,"x_min":20,"x_max":685,"o":"m 535 971 l 553 958 q 540 490 540 719 q 541 328 540 435 q 677 332 610 328 l 685 316 q 648 229 663 275 q 541 235 596 233 q 540 194 540 208 q 554 73 540 92 q 668 31 569 55 l 668 -7 q 489 0 564 0 q 299 -7 411 0 l 299 31 q 412 58 391 47 q 428 81 422 64 q 433 178 433 97 l 433 235 q 191 236 345 236 q 26 233 90 236 q 20 326 26 275 q 90 418 59 376 l 313 733 q 441 920 358 798 q 535 971 492 943 m 433 328 l 433 796 l 108 328 l 433 328 z "},"5":{"ha":708,"x_min":73,"x_max":633,"o":"m 624 955 l 633 943 q 577 836 603 892 q 336 842 444 842 l 259 842 q 216 677 239 761 q 465 614 364 677 q 608 345 608 524 q 559 156 608 241 q 415 22 509 72 q 232 -28 320 -28 q 73 11 163 -28 q 95 177 89 91 l 136 177 q 202 79 163 108 q 298 51 241 51 q 455 124 403 51 q 507 290 507 197 q 470 427 507 366 q 359 519 433 487 q 201 551 285 551 q 126 545 176 551 l 111 565 q 216 955 182 760 q 443 947 335 947 q 624 955 535 947 z "},"6":{"ha":708,"x_min":43,"x_max":660,"o":"m 579 975 l 595 921 q 389 806 469 868 q 260 664 310 744 q 199 515 227 610 q 333 608 302 593 q 404 623 364 623 q 588 544 517 623 q 660 332 660 466 q 577 85 660 197 q 345 -28 494 -28 q 130 70 217 -28 q 43 338 43 168 q 160 701 43 536 q 579 975 292 888 m 543 267 q 523 379 543 311 q 458 487 503 447 q 355 527 414 527 q 264 500 307 527 q 202 433 221 473 q 183 332 183 394 q 252 97 183 185 q 376 29 306 29 q 501 100 458 29 q 543 267 543 170 z "},"7":{"ha":708,"x_min":77,"x_max":662,"o":"m 127 732 l 77 732 q 167 955 130 846 q 395 947 283 947 q 662 955 520 947 l 662 913 q 472 362 571 669 q 353 -28 391 111 q 292 -23 312 -23 q 235 -28 272 -23 l 222 -16 q 302 160 267 77 q 426 472 357 292 l 566 840 l 300 842 q 202 828 224 842 q 127 732 171 808 z "},"8":{"ha":708,"x_min":71,"x_max":644,"o":"m 275 484 q 128 618 161 568 q 95 730 95 669 q 174 899 95 827 q 381 971 252 971 q 559 915 497 971 q 622 774 622 859 q 581 650 622 709 q 435 522 541 592 q 563 425 523 461 q 623 346 602 388 q 644 247 644 304 q 559 53 644 134 q 336 -28 474 -28 q 140 37 210 -28 q 71 200 71 102 q 110 333 71 273 q 275 484 149 393 m 386 559 q 493 659 463 612 q 524 760 524 706 q 479 872 524 828 q 363 916 435 916 q 251 876 293 916 q 208 777 208 836 q 222 709 208 738 q 273 646 237 680 q 386 559 309 613 m 326 448 q 219 337 254 396 q 184 215 184 277 q 236 87 184 140 q 365 35 289 35 q 481 81 435 35 q 527 197 527 128 q 506 281 527 241 q 437 366 486 321 q 326 448 402 399 z "},"9":{"ha":708,"x_min":56,"x_max":667,"o":"m 136 -33 l 123 22 q 314 126 233 62 q 453 282 396 190 q 524 454 494 348 q 399 354 448 380 q 304 328 351 328 q 130 408 204 328 q 56 623 56 488 q 149 874 56 777 q 374 971 241 971 q 586 883 504 971 q 667 623 667 794 q 607 345 667 485 q 433 116 546 205 q 136 -33 321 26 m 176 696 q 231 494 176 561 q 366 427 287 427 q 486 483 434 427 q 538 633 538 540 q 483 831 538 748 q 342 915 428 915 q 225 858 274 915 q 176 696 176 801 z "}," ":{"ha":354,"x_min":0,"x_max":0,"o":""},"!":{"ha":390,"x_min":120,"x_max":284,"o":"m 221 249 l 170 249 q 127 915 156 557 q 264 975 198 941 l 284 959 q 221 249 250 705 m 195 127 q 249 105 227 127 q 271 51 271 83 q 249 -2 271 20 q 195 -24 227 -24 q 142 -2 164 -24 q 120 51 120 20 q 142 105 120 83 q 195 127 164 127 z "},"\"":{"ha":564,"x_min":90,"x_max":475,"o":"m 142 545 l 105 745 q 90 857 90 828 q 108 921 90 901 q 157 941 126 941 q 206 921 186 941 q 226 865 226 901 q 208 745 226 841 l 172 545 l 142 545 m 391 545 l 354 743 l 339 825 q 338 859 338 842 q 356 921 338 901 q 407 941 375 941 q 456 921 437 941 q 475 866 475 901 q 462 743 475 810 l 423 545 l 391 545 z "},"#":{"ha":926,"x_min":60,"x_max":865,"o":"m 60 659 l 281 659 l 339 934 l 422 934 l 364 659 l 649 659 l 707 934 l 790 934 l 732 659 l 865 659 l 865 576 l 715 576 l 664 325 l 865 325 l 865 241 l 647 241 l 589 -31 l 505 -31 l 564 241 l 277 241 l 220 -31 l 136 -31 l 194 241 l 60 241 l 60 325 l 212 325 l 264 576 l 60 576 l 60 659 m 347 576 l 294 325 l 581 325 l 632 576 l 347 576 z "},"$":{"ha":665,"x_min":50,"x_max":608,"o":"m 83 208 l 128 208 q 182 86 138 129 q 292 38 225 43 l 292 424 q 103 565 143 512 q 62 691 62 618 q 127 854 62 783 q 292 941 191 926 l 292 1014 l 355 1014 l 355 943 q 489 928 434 943 q 591 884 544 914 q 547 716 562 804 l 501 722 q 473 833 499 802 q 355 884 437 878 l 355 534 q 561 389 513 450 q 608 252 608 329 q 541 78 608 154 q 355 -22 474 1 l 355 -134 l 292 -134 l 292 -28 q 174 -17 226 -26 q 50 17 123 -8 q 71 111 66 79 q 83 208 77 143 m 292 879 q 204 832 236 869 q 173 741 173 795 q 199 654 173 693 q 292 573 224 616 l 292 879 m 355 41 q 454 97 419 54 q 489 205 489 140 q 456 308 489 264 q 355 387 424 351 l 355 41 z "},"%":{"ha":1143,"x_min":51,"x_max":1093,"o":"m 51 688 q 110 906 51 838 q 259 975 168 975 q 397 910 351 975 q 444 726 444 846 q 387 512 444 579 q 242 444 330 444 q 104 504 157 444 q 51 688 51 564 m 157 695 q 189 526 157 573 q 250 493 210 493 q 309 526 287 493 q 340 704 340 575 q 305 893 340 838 q 248 926 284 926 q 189 893 210 926 q 157 695 157 842 m 820 975 l 894 975 l 318 -53 l 245 -53 l 820 975 m 699 191 q 758 409 699 340 q 907 478 817 478 q 1046 413 999 478 q 1093 229 1093 349 q 1035 15 1093 82 q 890 -53 978 -53 q 752 7 805 -53 q 699 191 699 67 m 806 198 q 837 28 806 76 q 899 -4 859 -4 q 957 29 935 -4 q 989 207 989 78 q 954 396 989 340 q 896 429 932 429 q 838 396 858 429 q 806 198 806 345 z "},"&":{"ha":1084,"x_min":40,"x_max":1064,"o":"m 696 573 l 696 612 q 858 605 793 605 q 1005 612 927 605 l 1005 573 q 896 535 927 561 q 797 382 865 509 q 680 207 748 291 q 787 120 745 144 q 866 97 829 97 q 937 111 900 97 q 1032 163 975 125 l 1064 124 q 907 4 950 28 q 830 -20 865 -20 q 594 113 726 -20 q 446 13 519 45 q 288 -20 373 -20 q 109 49 178 -20 q 40 216 40 117 q 98 375 40 302 q 325 536 157 448 q 277 663 290 613 q 264 759 264 713 q 339 908 264 841 q 524 975 414 975 q 649 932 604 975 q 694 821 694 890 q 460 549 694 663 q 533 414 499 471 q 640 256 568 358 q 731 406 701 334 q 760 518 760 478 q 748 546 760 533 q 696 573 736 559 m 436 601 q 565 687 529 644 q 601 789 601 731 q 570 886 601 850 q 498 922 540 922 q 443 905 470 922 q 401 857 415 888 q 388 788 388 827 q 436 601 388 718 m 348 486 q 249 418 280 448 q 187 338 207 379 q 168 253 168 298 q 221 123 168 177 q 353 69 275 69 q 552 160 454 69 q 348 486 437 305 z "},"'":{"ha":245,"x_min":55,"x_max":191,"o":"m 107 545 l 71 745 q 55 857 55 829 q 73 921 55 901 q 121 941 90 941 q 171 921 151 941 q 191 866 191 901 q 174 745 191 843 l 137 545 l 107 545 z "},"(":{"ha":449,"x_min":50,"x_max":419,"o":"m 419 -237 l 419 -293 q 271 -198 331 -252 q 110 28 171 -109 q 50 349 50 166 q 96 631 50 498 q 239 865 142 764 q 419 991 311 939 l 419 935 q 313 833 354 890 q 216 620 255 751 q 177 348 177 489 q 218 69 177 199 q 314 -137 260 -62 q 419 -237 353 -189 z "},")":{"ha":449,"x_min":29,"x_max":399,"o":"m 29 935 l 29 991 q 178 896 117 950 q 338 669 277 807 q 399 349 399 532 q 353 67 399 200 q 210 -167 307 -66 q 29 -293 138 -241 l 29 -237 q 136 -134 94 -192 q 233 78 194 -53 q 271 350 271 209 q 230 629 271 498 q 134 835 189 760 q 29 935 96 887 z "},"*":{"ha":652,"x_min":41,"x_max":608,"o":"m 260 989 l 387 989 q 349 742 357 821 l 518 830 q 568 858 536 840 l 608 736 q 365 700 523 727 l 449 613 l 538 528 l 434 453 l 363 598 q 322 674 346 634 q 247 526 281 596 l 212 453 l 106 528 l 283 700 q 178 722 214 715 l 41 742 l 80 863 q 299 749 167 810 l 284 848 l 260 989 z "},"+":{"ha":926,"x_min":94,"x_max":832,"o":"m 94 493 l 418 493 l 418 817 l 508 817 l 508 493 l 832 493 l 832 404 l 508 404 l 508 80 l 418 80 l 418 404 l 94 404 l 94 493 z "},",":{"ha":390,"x_min":98,"x_max":286,"o":"m 119 7 l 98 33 q 178 145 143 84 q 257 89 228 128 q 286 3 286 50 q 144 -252 286 -128 l 115 -216 q 198 -56 198 -132 q 181 -7 198 -26 q 143 12 164 12 q 119 7 134 12 z "},"-":{"ha":406,"x_min":37,"x_max":373,"o":"m 365 374 l 373 365 q 340 261 353 314 q 208 264 262 264 q 46 261 157 264 l 37 270 q 64 365 52 316 q 195 363 151 363 q 365 374 292 363 z "},".":{"ha":390,"x_min":119,"x_max":271,"o":"m 195 127 q 249 105 227 127 q 271 52 271 83 q 249 -2 271 20 q 195 -24 227 -24 q 141 -2 163 -24 q 119 52 119 20 q 141 105 119 83 q 195 127 163 127 z "},"/":{"ha":737,"x_min":79,"x_max":658,"o":"m 566 967 l 658 967 l 172 -25 l 79 -25 l 566 967 z "},":":{"ha":390,"x_min":119,"x_max":271,"o":"m 195 665 q 249 643 227 665 q 271 589 271 621 q 249 535 271 557 q 195 513 227 513 q 141 535 163 513 q 119 589 119 557 q 141 643 119 621 q 195 665 163 665 m 195 127 q 249 105 227 127 q 271 52 271 83 q 249 -2 271 20 q 195 -24 227 -24 q 141 -2 163 -24 q 119 52 119 20 q 141 105 119 83 q 195 127 163 127 z "},";":{"ha":390,"x_min":96,"x_max":284,"o":"m 196 665 q 250 643 227 665 q 272 589 272 621 q 250 535 272 557 q 196 513 227 513 q 142 536 165 513 q 120 589 120 558 q 142 643 120 621 q 196 665 164 665 m 117 7 l 96 33 q 176 145 142 84 q 255 89 227 128 q 284 3 284 50 q 142 -252 284 -128 l 113 -216 q 197 -56 197 -132 q 180 -7 197 -26 q 142 12 163 12 q 117 7 133 12 z "},"<":{"ha":926,"x_min":94,"x_max":832,"o":"m 95 490 l 832 800 l 832 703 l 214 450 l 832 196 l 832 100 l 94 410 l 95 490 z "},"=":{"ha":926,"x_min":94,"x_max":832,"o":"m 94 649 l 832 649 l 832 560 l 94 560 l 94 649 m 94 337 l 832 337 l 832 248 l 94 248 l 94 337 z "},">":{"ha":926,"x_min":94,"x_max":832,"o":"m 831 409 l 94 100 l 94 196 l 711 450 l 94 703 l 94 800 l 832 489 l 831 409 z "},"?":{"ha":534,"x_min":33,"x_max":490,"o":"m 81 741 l 33 741 q 54 901 47 821 q 151 956 109 940 q 262 975 205 975 q 426 913 361 975 q 490 762 490 851 q 478 685 490 724 q 446 614 466 647 q 363 498 438 601 q 295 376 315 431 q 262 228 274 321 l 207 228 q 226 366 210 308 q 300 534 243 423 q 360 668 345 621 q 370 734 370 701 q 333 838 370 799 q 237 876 295 876 q 145 846 184 876 q 81 741 107 817 m 238 127 q 291 105 269 127 q 313 52 313 83 q 291 -2 313 20 q 238 -24 269 -24 q 184 -2 207 -24 q 162 52 162 20 q 184 105 162 83 q 238 127 206 127 z "},"@":{"ha":1274,"x_min":66,"x_max":1245,"o":"m 955 650 l 876 379 q 812 123 812 163 q 827 85 812 100 q 864 70 842 70 q 982 119 913 70 q 1101 280 1052 169 q 1151 512 1151 391 q 1095 726 1151 628 q 937 877 1040 825 q 711 930 835 930 q 420 847 555 930 q 208 608 286 764 q 130 283 130 452 q 198 0 130 127 q 392 -193 267 -127 q 661 -258 517 -258 q 983 -163 839 -258 q 1206 117 1127 -67 l 1245 117 q 1023 -184 1184 -69 q 657 -300 863 -300 q 235 -129 404 -300 q 66 301 66 41 q 150 635 66 480 q 386 877 234 790 q 707 964 537 964 q 961 906 848 964 q 1133 737 1074 848 q 1192 500 1192 625 q 1136 254 1192 376 q 995 76 1080 132 q 819 21 910 21 q 740 45 766 21 q 713 115 713 70 q 726 214 713 152 q 572 61 633 101 q 459 20 511 20 q 373 63 410 20 q 336 180 336 106 q 400 399 336 277 q 570 597 464 521 q 709 654 648 654 q 785 630 755 654 q 826 560 815 607 l 848 635 l 955 650 m 717 622 q 614 569 667 622 q 483 356 538 492 q 443 201 443 258 q 467 129 443 156 q 522 102 491 102 q 604 132 560 102 q 695 224 648 162 q 764 351 743 287 q 802 522 802 457 q 777 595 802 569 q 717 622 753 622 z "},"A":{"ha":1071,"x_min":5,"x_max":1058,"o":"m 509 971 l 551 971 q 777 437 643 736 l 935 92 q 958 65 945 74 q 1058 33 967 59 l 1058 -7 q 876 0 935 0 q 673 -7 817 0 l 673 33 q 768 60 755 50 q 782 83 782 70 q 768 132 782 98 l 700 297 q 490 298 555 298 l 303 297 l 233 125 q 215 74 215 84 q 223 59 215 65 q 302 39 232 54 q 323 33 310 37 l 323 -7 q 160 0 208 0 q 5 -7 100 0 l 5 33 q 90 63 67 46 q 125 106 107 76 q 322 538 164 174 l 509 971 m 330 365 q 465 362 424 362 q 673 365 477 362 l 501 772 l 330 365 z "},"B":{"ha":897,"x_min":34,"x_max":838,"o":"m 34 915 l 34 955 q 263 947 158 947 q 406 950 332 947 q 521 953 480 953 q 728 895 660 953 q 795 745 795 836 q 769 642 795 693 q 698 556 744 591 q 595 509 664 531 q 707 488 668 503 q 802 414 767 463 q 838 290 838 364 q 696 52 838 140 q 412 -7 601 -7 q 279 -3 370 -7 q 209 1 216 1 q 34 -7 197 1 l 34 33 q 66 39 55 37 q 175 68 164 58 q 185 102 183 75 q 191 460 191 165 l 189 760 q 180 869 189 853 q 166 883 176 878 q 62 908 156 888 q 34 915 53 910 m 315 528 q 382 527 376 527 q 549 546 496 527 q 635 613 602 565 q 667 724 667 661 q 603 859 667 814 q 452 892 557 892 q 322 882 393 892 q 314 601 314 779 q 315 528 314 576 m 315 66 q 445 55 387 55 q 637 115 574 55 q 700 278 700 174 q 665 395 700 350 q 579 455 629 439 q 421 471 530 471 q 315 469 357 471 l 315 66 z "},"C":{"ha":999,"x_min":64,"x_max":955,"o":"m 926 157 l 955 106 q 745 5 846 37 q 538 -28 645 -28 q 290 34 401 -28 q 122 210 179 96 q 64 462 64 323 q 212 831 64 688 q 602 975 359 975 q 935 914 751 975 q 933 825 933 854 q 943 642 933 738 l 886 642 q 833 806 861 761 q 741 877 804 850 q 583 904 677 904 q 287 764 387 904 q 210 490 210 655 q 318 180 210 294 q 604 66 427 66 q 751 86 680 66 q 926 157 823 106 z "},"D":{"ha":1129,"x_min":33,"x_max":1067,"o":"m 33 915 l 33 955 q 325 947 167 947 l 627 951 q 873 907 781 951 q 1016 766 965 863 q 1067 540 1067 669 q 905 148 1067 302 q 472 -7 744 -7 q 348 -3 456 -7 q 220 1 239 1 q 33 -7 155 1 l 33 33 q 156 58 143 54 q 174 67 168 62 q 181 82 179 73 q 186 197 184 96 q 190 518 190 418 l 186 815 l 186 838 q 167 882 186 872 q 33 915 155 888 m 322 73 q 507 60 432 60 q 698 97 623 60 q 862 257 806 152 q 918 515 918 362 q 899 662 918 595 q 849 767 880 728 q 730 856 804 825 q 519 887 657 887 q 322 877 435 887 q 318 473 318 699 q 322 73 318 234 z "},"E":{"ha":926,"x_min":27,"x_max":877,"o":"m 309 530 l 473 530 q 585 535 568 530 q 613 556 602 541 q 639 646 623 572 q 645 669 641 654 l 690 669 q 682 497 682 557 q 690 326 682 435 l 645 326 q 621 436 625 425 q 597 459 614 452 q 496 467 580 467 l 310 467 l 313 68 l 597 68 l 623 68 q 696 73 681 68 q 741 103 722 82 q 814 220 761 123 q 830 248 819 229 l 877 248 q 793 -7 869 226 q 342 0 546 0 q 27 -7 199 0 l 27 33 l 137 56 q 170 71 163 64 q 180 125 180 84 l 180 137 l 183 296 q 184 477 184 342 q 182 765 184 673 q 176 868 181 856 q 163 881 172 876 q 100 899 155 886 l 27 915 l 27 955 q 332 947 155 947 q 793 955 429 947 q 809 723 794 838 l 762 723 q 718 846 734 815 q 689 873 706 867 q 590 882 667 882 l 316 882 l 311 664 l 309 530 z "},"F":{"ha":868,"x_min":28,"x_max":829,"o":"m 28 915 l 28 955 q 376 947 186 947 q 814 955 576 947 l 829 701 l 782 701 q 739 838 753 808 q 709 868 730 859 q 616 877 688 877 l 321 877 q 314 531 317 787 l 500 531 q 569 537 553 531 q 596 561 585 543 q 619 641 606 578 q 627 675 621 652 l 672 675 q 666 490 666 533 q 672 317 666 477 l 627 317 q 622 346 623 336 q 590 450 608 433 q 499 466 572 466 l 314 466 q 313 375 313 398 q 317 84 313 104 q 332 64 320 71 q 486 33 348 54 l 486 -7 q 266 0 333 0 l 28 -7 l 28 33 q 69 40 56 38 q 166 67 151 52 q 182 130 182 82 l 186 323 q 186 494 186 368 q 184 841 186 801 q 170 877 182 867 q 65 907 155 890 q 28 915 53 909 z "},"G":{"ha":1143,"x_min":60,"x_max":1124,"o":"m 1124 488 l 1124 451 l 1020 426 q 996 414 1004 422 q 986 391 989 406 q 981 239 981 361 q 986 40 981 165 q 858 13 956 35 q 695 -20 729 -16 q 555 -28 629 -28 q 189 99 317 -28 q 60 444 60 225 q 211 828 60 680 q 610 975 361 975 q 730 968 673 975 q 962 926 743 966 q 961 867 961 889 q 970 661 961 776 l 919 661 q 860 814 888 777 q 771 873 833 850 q 595 905 690 905 q 279 746 385 905 q 205 471 205 634 q 322 154 205 262 q 617 46 439 46 q 854 94 730 46 q 857 309 857 167 q 852 399 857 385 q 836 420 848 412 q 744 445 821 429 l 718 451 l 718 488 l 949 484 q 1124 488 1026 484 z "},"H":{"ha":1114,"x_min":30,"x_max":1087,"o":"m 804 521 l 803 569 l 802 715 l 801 842 q 793 877 800 870 q 740 895 782 888 l 648 915 l 648 955 q 875 947 805 947 q 1087 955 951 947 l 1087 915 q 961 886 975 892 q 942 872 947 880 q 934 798 935 860 q 932 449 932 696 l 935 127 l 935 109 q 947 68 935 77 q 1087 33 966 54 l 1087 -7 q 851 0 901 0 q 648 -7 768 0 l 648 33 l 772 60 q 790 74 784 65 q 800 127 800 88 l 804 446 q 530 450 625 450 q 314 446 428 450 l 316 119 q 323 74 316 83 q 358 56 330 64 q 469 33 365 54 l 469 -7 q 235 0 304 0 q 30 -7 151 0 l 30 33 q 139 56 103 49 q 174 69 166 60 q 184 117 184 81 q 186 488 186 247 l 183 823 l 183 845 q 175 878 183 869 q 142 893 168 887 l 30 915 l 30 955 q 258 947 167 947 q 469 955 355 947 l 469 915 l 355 892 q 326 877 334 887 q 317 842 317 867 l 314 521 q 534 519 418 519 q 804 521 684 519 z "},"I":{"ha":507,"x_min":35,"x_max":475,"o":"m 475 955 l 475 915 q 439 907 451 909 q 335 878 349 892 q 321 816 321 864 l 321 792 l 318 519 l 320 123 q 334 63 320 76 q 429 41 348 50 q 475 33 445 39 l 475 -7 q 264 0 366 0 q 35 -7 160 0 l 35 33 q 65 39 55 38 q 175 68 161 55 q 189 135 189 81 l 189 169 l 190 418 q 189 842 190 802 q 174 877 187 865 q 71 906 161 889 q 35 915 59 909 l 35 955 q 265 947 182 947 q 475 955 357 947 z "},"J":{"ha":608,"x_min":38,"x_max":598,"o":"m 598 955 l 598 915 q 568 909 578 911 q 460 882 473 894 q 443 836 446 871 q 440 449 440 802 q 437 222 440 258 q 398 90 430 142 q 308 5 367 37 q 178 -28 249 -28 q 38 -7 124 -28 q 49 235 50 102 l 102 235 q 141 81 109 121 q 222 41 174 41 q 301 103 283 41 q 313 481 313 142 q 311 844 313 819 q 300 878 309 869 q 193 907 285 891 q 157 915 180 909 l 157 955 q 385 947 307 947 q 598 955 473 947 z "},"K":{"ha":1071,"x_min":22,"x_max":1078,"o":"m 22 915 l 22 955 q 232 947 167 947 q 275 948 256 947 l 462 955 l 462 915 l 433 909 q 329 884 338 890 q 315 865 319 878 q 310 726 312 857 l 307 485 q 659 810 481 626 q 704 876 704 856 q 696 890 704 884 q 625 911 686 898 q 610 915 620 912 l 610 955 q 776 947 705 947 q 979 955 829 947 l 979 915 q 867 884 886 892 q 833 865 848 876 l 714 753 l 530 585 l 446 511 q 666 296 512 441 l 884 96 q 929 70 905 79 q 1078 33 954 60 l 1078 -7 q 863 0 923 0 q 627 -7 812 0 l 627 33 q 700 54 690 47 q 709 68 709 60 q 696 92 709 78 q 406 377 646 149 l 307 473 l 309 125 q 314 77 309 85 q 339 59 320 66 q 462 33 353 54 l 462 -7 q 254 0 347 0 q 22 -7 165 0 l 22 33 q 55 39 44 37 q 163 66 148 53 q 175 117 174 76 q 180 441 180 238 l 176 810 q 173 867 176 859 q 164 879 170 875 q 52 909 141 894 q 22 915 42 910 z "},"L":{"ha":911,"x_min":31,"x_max":882,"o":"m 31 915 l 31 955 q 256 947 197 947 q 490 955 293 947 l 490 915 q 347 887 368 894 q 326 872 332 882 q 314 813 315 858 q 313 311 313 768 q 315 71 313 221 l 614 71 q 701 79 681 71 q 743 115 722 87 q 825 254 765 142 l 882 254 l 828 103 q 793 -7 814 61 q 304 0 513 0 q 31 -7 157 0 l 31 33 q 153 59 135 52 q 178 78 172 66 q 184 149 184 90 l 188 565 l 186 833 q 176 876 186 867 q 75 905 160 890 q 31 915 60 907 z "},"M":{"ha":1346,"x_min":5,"x_max":1320,"o":"m 5 915 l 5 955 q 178 947 119 947 q 322 955 245 947 q 367 846 350 884 q 544 466 389 796 q 677 192 610 326 l 966 801 q 1029 955 993 857 q 1168 947 1120 947 q 1320 955 1213 947 l 1320 915 q 1289 907 1299 909 q 1184 880 1195 888 q 1166 811 1166 866 l 1166 802 l 1164 587 q 1167 95 1164 182 q 1178 68 1168 77 q 1293 39 1187 59 q 1320 33 1302 37 l 1320 -7 q 1105 0 1198 0 q 880 -7 1010 0 l 880 33 q 920 42 907 39 q 1015 64 1003 58 q 1031 82 1027 71 q 1037 192 1037 102 l 1037 784 q 758 196 975 662 q 670 0 699 68 l 631 0 q 259 784 479 337 l 268 152 q 280 66 268 77 q 382 39 292 55 q 414 33 393 37 l 414 -7 q 224 0 296 0 q 32 -7 151 0 l 32 33 q 61 39 52 38 q 161 70 151 57 q 178 163 178 89 l 182 315 q 185 720 185 524 l 184 803 q 178 865 184 852 q 159 883 172 878 q 43 907 133 893 q 5 915 31 909 z "},"N":{"ha":1129,"x_min":-1,"x_max":1108,"o":"m -1 915 l -1 955 q 135 947 85 947 q 278 955 175 947 l 471 714 q 879 220 497 682 q 880 357 880 315 q 873 727 880 458 q 867 863 871 852 q 851 883 863 874 q 757 907 840 892 q 725 915 746 909 l 725 955 q 917 947 846 947 q 1108 955 986 947 l 1108 915 q 1081 909 1090 910 q 980 884 990 890 q 968 871 972 880 q 958 831 961 861 q 955 646 958 818 q 953 313 953 474 q 960 -7 953 123 l 916 -28 l 633 323 l 262 770 l 265 369 q 273 88 269 106 q 285 67 275 76 q 386 39 300 54 q 416 33 396 37 l 416 -7 q 241 0 313 0 q 33 -7 182 0 l 33 33 q 69 41 57 38 q 163 67 151 55 q 174 88 171 73 q 183 324 181 119 q 186 667 186 614 q 182 857 186 838 q 164 879 179 870 q 36 907 149 888 q -1 915 24 909 z "},"O":{"ha":1100,"x_min":65,"x_max":1035,"o":"m 65 467 q 209 832 65 690 q 577 975 352 975 q 911 849 787 975 q 1035 502 1035 723 q 895 114 1035 256 q 528 -28 755 -28 q 190 101 314 -28 q 65 467 65 230 m 214 488 q 312 152 214 264 q 559 39 410 39 q 735 92 659 39 q 851 244 812 144 q 890 467 890 345 q 840 722 890 621 q 716 866 790 823 q 550 910 642 910 q 369 857 449 910 q 251 703 289 804 q 214 488 214 602 z "},"P":{"ha":854,"x_min":30,"x_max":808,"o":"m 30 915 l 30 955 q 254 947 117 947 l 522 950 q 739 887 671 950 q 808 714 808 823 q 715 502 808 587 q 462 416 623 416 q 314 433 399 416 q 313 282 313 328 q 320 82 313 110 q 333 64 323 71 q 460 38 352 54 q 488 33 470 37 l 488 -7 q 247 0 359 0 q 30 -7 141 0 l 30 33 q 69 41 56 39 q 169 68 159 60 q 186 147 186 83 l 188 475 l 187 804 l 187 819 q 174 874 187 862 q 64 907 161 886 q 30 915 53 909 m 315 490 q 438 474 387 474 q 610 532 549 474 q 671 688 671 591 q 615 835 671 782 q 444 888 559 888 q 321 877 393 888 q 315 490 315 672 z "},"Q":{"ha":1100,"x_min":64,"x_max":1127,"o":"m 212 83 q 105 236 146 137 q 64 460 64 334 q 207 833 64 690 q 574 975 349 975 q 814 922 709 975 q 978 758 919 868 q 1037 498 1037 648 q 903 125 1037 268 q 572 -17 770 -17 q 433 0 514 -17 l 661 -90 q 809 -135 745 -121 q 922 -149 873 -149 q 1108 -113 994 -149 l 1127 -153 q 959 -237 1001 -221 q 890 -254 918 -254 q 760 -229 827 -254 q 458 -75 643 -185 q 291 11 353 -12 q 125 47 229 33 l 125 100 q 212 83 165 95 m 214 494 q 320 143 214 268 q 554 39 409 39 q 737 92 659 39 q 854 247 815 144 q 892 468 892 349 q 848 706 892 600 q 723 860 803 812 q 549 908 643 908 q 380 862 457 908 q 259 716 303 817 q 214 494 214 616 z "},"R":{"ha":999,"x_min":26,"x_max":1013,"o":"m 26 915 l 26 955 q 315 947 206 947 q 431 949 377 947 q 531 951 503 951 q 730 889 663 951 q 797 719 797 826 q 767 592 797 647 q 680 498 736 536 q 562 450 638 471 l 787 156 q 840 92 829 101 q 884 67 857 77 q 1013 33 922 52 l 1013 -7 q 857 0 905 0 q 741 -7 800 0 q 659 120 711 43 q 595 212 606 197 q 582 229 588 220 l 433 433 q 311 442 372 435 l 316 100 q 328 70 317 80 q 430 41 345 56 q 467 33 442 39 l 467 -7 q 251 0 345 0 q 26 -7 151 0 l 26 33 l 56 39 q 166 69 153 57 q 181 111 179 81 q 184 460 182 131 l 182 779 q 178 863 181 852 q 165 879 175 873 q 60 908 132 897 q 26 915 49 910 m 311 500 q 420 492 381 492 q 603 547 543 492 q 662 700 662 602 q 609 835 662 785 q 456 884 557 884 q 315 876 420 884 l 311 500 z "},"S":{"ha":766,"x_min":76,"x_max":694,"o":"m 646 696 l 595 696 q 555 823 577 783 q 487 885 532 863 q 384 908 441 908 q 255 863 303 908 q 208 755 208 819 q 247 656 208 699 q 436 550 286 614 q 640 417 586 486 q 694 262 694 348 q 653 118 694 184 q 532 12 613 52 q 357 -28 451 -28 q 230 -16 294 -28 q 76 26 165 -3 q 85 280 85 122 l 138 280 q 184 138 160 178 q 257 71 208 97 q 364 45 306 45 q 505 90 444 45 q 565 215 565 134 q 522 332 565 281 q 331 445 477 382 q 134 567 184 509 q 85 705 85 625 q 125 838 85 774 q 242 938 165 901 q 404 975 320 975 q 646 927 504 975 q 643 808 643 828 q 646 696 643 766 z "},"T":{"ha":911,"x_min":28,"x_max":888,"o":"m 81 690 l 28 690 q 52 955 41 808 q 480 947 352 947 q 868 955 587 947 q 888 690 877 804 l 838 690 q 796 836 806 814 q 769 866 787 857 q 677 876 751 876 l 527 876 q 522 429 522 695 q 527 96 522 182 q 537 68 528 75 q 649 39 549 58 q 677 33 659 37 l 677 -7 q 438 0 543 0 q 234 -7 338 0 l 234 33 q 270 41 258 39 q 377 67 363 56 q 386 82 383 73 q 391 233 389 92 q 394 554 394 450 q 391 876 394 736 l 230 876 l 201 875 q 150 867 162 875 q 116 818 131 855 q 81 690 104 789 z "},"U":{"ha":1114,"x_min":19,"x_max":1097,"o":"m 19 915 l 19 955 q 237 947 145 947 q 457 955 332 947 l 457 915 q 425 908 436 910 q 317 882 330 893 q 304 837 305 871 q 300 490 300 745 q 309 258 300 319 q 354 154 318 197 q 452 87 389 111 q 585 64 514 64 q 757 108 691 64 q 845 225 823 152 q 866 513 866 299 q 861 848 866 797 q 848 879 859 870 q 747 908 838 888 q 718 915 737 910 l 718 955 q 920 947 850 947 q 1097 955 998 947 l 1097 915 q 1069 907 1078 909 q 966 879 979 889 q 951 844 954 869 q 943 528 945 790 q 936 270 943 325 q 904 148 927 194 q 833 59 881 101 q 724 -2 785 18 q 553 -28 642 -28 q 377 -3 454 -28 q 256 63 299 21 q 193 161 214 104 q 172 326 172 218 l 174 633 q 173 827 174 805 q 163 871 170 860 q 146 886 157 881 q 52 907 138 890 q 19 915 41 909 z "},"V":{"ha":970,"x_min":10,"x_max":962,"o":"m 516 -28 l 471 -28 q 256 555 383 231 q 136 852 151 825 q 111 881 125 871 q 10 915 97 890 l 10 955 q 203 947 157 947 q 395 955 269 947 l 395 915 q 377 910 383 911 q 299 884 311 894 q 287 861 287 874 q 289 846 287 854 q 391 553 301 797 l 519 198 q 665 597 603 414 q 749 852 744 827 q 751 862 751 858 q 741 883 751 875 q 642 917 726 895 l 642 955 q 690 953 646 955 q 825 947 795 947 q 962 955 882 947 l 962 917 q 873 885 892 899 q 833 824 854 871 q 625 272 792 730 l 516 -28 z "},"W":{"ha":1447,"x_min":12,"x_max":1436,"o":"m 509 -28 l 460 -28 q 219 651 349 295 q 136 857 155 827 q 112 883 127 873 q 12 915 90 897 l 12 955 q 212 947 169 947 q 397 955 270 947 l 397 915 q 303 884 317 895 q 289 857 289 873 q 317 758 289 843 q 514 195 444 375 l 700 694 q 638 846 654 819 q 606 884 623 874 q 509 915 589 895 l 509 955 q 705 947 635 947 q 894 955 777 947 l 894 915 l 869 909 q 797 885 813 898 q 787 859 787 876 q 788 844 787 851 q 863 621 792 827 l 1009 206 q 1122 536 1056 335 l 1223 845 q 1225 862 1225 854 q 1217 880 1225 874 q 1116 915 1210 886 l 1116 955 q 1281 947 1242 947 q 1436 955 1327 947 l 1436 915 q 1340 880 1359 895 q 1317 846 1328 869 q 1158 410 1299 807 q 1009 -28 1154 399 l 962 -28 l 795 437 q 736 593 773 499 q 509 -28 646 361 z "},"X":{"ha":1042,"x_min":31,"x_max":1008,"o":"m 41 915 l 41 955 q 236 947 147 947 q 462 955 327 947 l 462 915 q 363 885 379 897 q 354 871 354 879 q 376 823 354 860 q 539 576 472 668 q 733 850 648 723 q 748 879 748 873 q 739 892 748 886 q 651 915 730 898 l 651 955 q 829 947 765 947 q 994 955 901 947 l 994 915 q 878 879 908 898 q 785 781 848 861 q 583 512 661 624 q 734 287 641 420 l 874 90 q 901 68 885 77 q 1008 33 926 54 l 1008 -7 q 815 0 888 0 q 604 -7 747 0 l 604 33 q 700 62 692 56 q 707 77 707 67 q 688 124 707 93 q 504 406 592 281 q 300 125 422 304 q 275 78 275 88 q 285 59 275 67 q 356 37 295 51 q 376 33 363 36 l 376 -7 q 185 0 277 0 q 31 -7 101 0 l 31 33 q 136 68 108 49 q 247 191 165 87 q 462 470 395 377 q 252 772 396 571 q 169 870 194 852 q 41 915 144 887 z "},"Y":{"ha":1042,"x_min":16,"x_max":1029,"o":"m 304 -7 l 304 33 q 339 39 328 37 q 441 66 423 53 q 456 107 451 75 q 462 298 462 140 l 461 389 q 273 675 404 480 l 149 854 q 116 881 136 870 q 16 915 85 898 l 16 955 q 206 947 123 947 q 406 955 288 947 l 406 915 q 316 886 328 895 q 304 868 304 878 q 315 840 304 859 q 547 471 376 734 q 770 842 633 607 q 785 874 785 865 q 777 888 785 884 q 682 915 755 902 l 682 955 q 863 947 806 947 q 1029 955 930 947 l 1029 915 q 911 877 946 899 q 829 784 877 854 q 585 404 726 631 q 584 364 584 370 q 587 104 584 128 q 602 69 589 80 q 715 37 621 54 q 739 33 724 36 l 739 -7 q 535 0 613 0 q 304 -7 473 0 z "},"Z":{"ha":911,"x_min":60,"x_max":875,"o":"m 168 698 l 120 698 q 142 956 133 785 q 492 947 417 947 q 858 956 671 947 l 858 914 q 740 761 793 831 q 555 507 688 691 l 348 220 q 239 69 279 127 l 652 69 q 748 93 723 69 q 810 216 773 117 q 826 258 815 231 l 875 258 l 844 99 l 826 -7 q 498 0 585 0 q 60 -7 364 0 l 60 37 q 210 233 146 148 q 681 878 315 374 l 336 878 q 232 856 259 878 q 179 734 204 833 q 168 698 176 722 z "},"[":{"ha":449,"x_min":138,"x_max":409,"o":"m 409 981 l 409 916 l 248 916 l 248 -218 l 409 -218 l 409 -283 q 279 -279 327 -279 q 138 -283 233 -279 q 141 353 141 -14 q 138 981 141 694 q 277 977 238 977 q 409 981 323 977 z "},"\\":{"ha":737,"x_min":79,"x_max":659,"o":"m 171 967 l 659 -25 l 567 -25 l 79 967 l 171 967 z "},"]":{"ha":449,"x_min":39,"x_max":311,"o":"m 39 -283 l 39 -218 l 200 -218 l 200 916 l 39 916 l 39 981 q 169 977 121 977 q 311 981 215 977 q 307 345 307 711 q 311 -283 307 3 q 171 -279 210 -279 q 39 -283 126 -279 z "},"^":{"ha":652,"x_min":25,"x_max":626,"o":"m 338 939 l 626 452 l 564 452 l 326 850 l 89 452 l 25 452 l 317 939 l 338 939 z "},"_":{"ha":694,"x_min":-8,"x_max":703,"o":"m -8 -104 l 703 -104 l 703 -174 l -8 -174 l -8 -104 z "},"`":{"ha":463,"x_min":81,"x_max":313,"o":"m 273 731 q 81 955 180 851 l 90 968 q 157 966 152 966 q 228 968 180 966 q 313 731 267 856 l 273 731 z "},"a":{"ha":681,"x_min":50,"x_max":675,"o":"m 138 453 l 94 458 q 113 598 107 528 q 351 658 245 658 q 435 645 397 658 q 494 608 472 631 q 527 552 515 585 q 538 448 538 519 l 532 168 q 545 94 532 111 q 578 76 557 76 q 654 113 602 76 l 675 85 q 571 -6 580 -1 q 524 -17 552 -17 q 455 5 479 -17 q 423 79 431 27 q 302 0 342 16 q 217 -17 263 -17 q 96 29 142 -17 q 50 146 50 75 q 66 224 50 189 q 113 286 82 259 q 193 333 136 305 q 423 437 325 397 q 391 564 420 532 q 304 595 363 595 q 209 561 248 595 q 138 453 169 526 m 423 378 q 209 262 246 298 q 172 175 172 226 q 200 94 172 124 q 265 63 228 63 q 349 89 304 63 q 409 146 394 114 q 423 262 423 178 l 423 378 z "},"b":{"ha":708,"x_min":-16,"x_max":661,"o":"m -16 861 l -16 899 q 205 989 116 940 l 223 974 q 205 574 205 840 l 205 516 q 338 640 307 623 q 423 657 368 657 q 544 626 488 657 q 630 530 600 595 q 661 377 661 465 q 547 92 661 208 q 275 -24 434 -24 q 90 23 186 -24 q 100 625 100 254 l 98 763 l 98 794 q 88 855 98 841 q 58 869 78 869 q -16 861 37 869 m 205 85 q 334 49 269 49 q 484 116 426 49 q 542 318 542 182 q 494 496 542 437 q 379 555 446 555 q 301 533 338 555 q 240 475 264 511 q 209 404 215 438 q 205 297 205 383 l 205 85 z "},"c":{"ha":623,"x_min":46,"x_max":595,"o":"m 555 430 l 510 433 q 467 560 507 519 q 357 601 427 601 q 260 573 307 601 q 188 484 214 546 q 162 343 162 422 q 223 146 162 217 q 366 75 285 75 q 570 142 450 75 l 595 102 q 418 -9 488 23 q 335 -24 384 -24 q 143 45 216 -24 q 46 294 46 137 q 148 560 46 456 q 399 665 250 665 q 595 612 500 665 q 581 553 590 589 q 555 430 570 505 z "},"d":{"ha":753,"x_min":56,"x_max":742,"o":"m 402 863 l 402 901 q 509 935 475 922 q 621 989 542 948 l 638 976 q 623 390 623 819 q 629 125 623 153 q 670 98 635 98 q 742 107 690 98 l 742 71 q 522 -17 600 28 l 505 -4 q 515 98 513 47 q 391 2 431 21 q 296 -17 351 -17 q 124 61 193 -17 q 56 281 56 138 q 90 449 56 378 q 162 552 115 503 q 268 629 210 600 q 386 658 327 658 q 446 651 413 658 q 519 631 479 644 q 520 670 520 665 q 514 846 520 829 q 469 871 506 871 q 426 867 457 871 q 402 863 418 865 m 519 338 q 513 492 519 471 q 459 561 501 533 q 356 589 418 589 q 224 525 279 589 q 170 337 170 461 q 225 143 170 210 q 357 76 280 76 q 450 105 408 76 q 505 176 492 134 q 519 338 519 217 z "},"e":{"ha":636,"x_min":50,"x_max":599,"o":"m 573 157 l 599 117 l 464 17 q 406 -11 436 -2 q 317 -24 363 -24 q 129 65 207 -24 q 50 305 50 154 q 144 566 50 468 q 374 665 238 665 q 536 607 479 665 q 595 429 593 549 q 543 389 566 413 q 482 390 494 390 q 170 385 302 390 q 221 155 169 233 q 361 76 273 76 q 453 93 405 76 q 573 157 501 111 m 474 454 q 444 555 470 521 q 342 606 406 606 q 243 568 286 606 q 178 441 199 530 q 216 441 203 441 q 474 454 328 441 z "},"f":{"ha":419,"x_min":35,"x_max":566,"o":"m 35 -7 l 35 31 q 127 64 119 50 q 138 329 138 84 q 140 568 138 448 q 42 562 90 567 l 42 595 q 140 644 92 615 q 146 787 140 760 q 197 884 157 836 q 302 965 237 932 q 403 989 349 989 q 478 980 444 989 q 566 943 513 970 q 519 798 541 873 l 482 803 q 443 899 472 871 q 365 926 413 926 q 295 900 323 926 q 257 819 268 873 q 250 673 250 783 q 250 633 250 660 q 308 632 298 632 l 423 633 l 432 625 q 397 562 411 595 q 250 568 323 567 q 249 316 249 471 l 250 139 l 250 131 q 261 65 250 77 q 349 36 273 53 q 372 31 357 34 l 372 -7 q 214 0 280 0 q 35 -7 157 0 z "},"g":{"ha":681,"x_min":17,"x_max":678,"o":"m 672 638 l 678 629 q 648 565 663 598 q 543 572 597 571 q 587 436 587 503 q 515 273 587 338 q 316 207 444 207 q 243 214 282 207 q 193 144 193 167 q 210 117 193 126 q 359 102 239 102 l 479 104 q 625 68 585 104 q 665 -37 665 33 q 582 -198 665 -134 q 272 -292 461 -292 q 78 -245 140 -292 q 17 -142 17 -198 q 27 -95 17 -114 q 60 -68 32 -87 l 168 8 q 97 43 120 18 q 73 101 73 69 q 87 133 73 123 q 197 229 122 160 q 110 306 139 258 q 81 417 81 353 q 154 589 81 520 q 353 658 227 658 q 415 652 383 658 q 483 634 448 646 q 540 635 519 635 q 672 638 633 635 m 201 447 q 241 302 201 350 q 337 254 280 254 q 426 295 391 254 q 461 416 461 336 q 424 562 461 516 q 328 608 386 608 q 238 568 274 608 q 201 447 201 527 m 229 6 q 155 -70 175 -40 q 135 -125 135 -100 q 172 -189 135 -161 q 317 -226 223 -226 q 491 -186 422 -226 q 560 -78 560 -146 q 533 -15 560 -37 q 429 7 505 7 l 400 6 l 229 6 z "},"h":{"ha":766,"x_min":18,"x_max":752,"o":"m 18 865 l 18 904 q 151 947 108 930 q 236 989 193 964 l 253 979 q 244 838 247 926 q 238 589 238 657 q 239 522 238 569 l 328 608 q 381 640 353 629 q 462 653 420 653 q 586 614 540 653 q 640 505 632 574 q 645 127 645 465 q 655 62 645 75 q 731 35 666 50 q 752 31 739 34 l 752 -7 q 580 0 631 0 q 424 -7 513 0 l 424 31 l 506 56 q 519 66 513 59 q 528 91 525 74 q 531 164 530 104 l 536 359 q 524 487 536 454 q 483 539 512 519 q 415 559 453 559 q 319 529 364 559 q 257 453 275 498 q 240 296 240 407 q 246 100 240 143 q 259 62 250 71 q 331 37 269 54 q 354 31 338 35 l 354 -7 q 190 0 254 0 q 26 -7 123 0 l 26 31 q 48 37 41 35 q 118 62 109 53 q 129 122 126 71 q 134 452 134 207 q 124 850 134 828 q 83 871 115 871 q 18 865 64 871 z "},"i":{"ha":390,"x_min":38,"x_max":370,"o":"m 207 991 q 257 970 237 991 q 278 920 278 949 q 257 869 278 890 q 207 848 237 848 q 157 869 178 848 q 136 920 136 890 q 157 970 136 949 q 207 991 178 991 m 38 540 l 38 578 q 252 665 152 607 l 270 650 q 256 243 256 507 q 262 91 256 119 q 277 63 267 72 q 347 37 287 55 q 370 31 355 35 l 370 -7 q 224 0 281 0 q 38 -7 189 0 l 38 31 q 141 72 130 53 q 153 267 153 90 l 152 411 l 152 439 q 142 530 152 515 q 109 546 132 546 q 38 540 95 546 z "},"j":{"ha":361,"x_min":-95,"x_max":266,"o":"m 194 988 q 245 967 224 988 q 266 917 266 946 q 245 866 266 887 q 194 845 224 845 q 144 866 165 845 q 123 917 123 887 q 144 967 123 946 q 194 988 165 988 m 16 538 l 16 577 q 124 611 77 593 q 235 665 172 630 l 254 649 q 241 326 241 492 l 243 54 q 213 -147 243 -81 q 120 -252 184 -213 q -9 -292 56 -292 q -95 -271 -48 -292 q -74 -123 -79 -201 l -31 -125 q -3 -207 -20 -189 q 43 -226 15 -226 q 101 -197 79 -226 q 130 -62 124 -168 q 133 294 133 -14 l 131 482 q 121 534 131 522 q 85 545 111 545 q 39 541 73 545 q 16 538 32 540 z "},"k":{"ha":708,"x_min":15,"x_max":722,"o":"m 15 897 q 232 987 141 938 l 248 973 q 238 781 241 878 q 235 349 235 684 l 401 507 q 450 558 441 545 q 457 574 457 567 q 449 590 457 583 q 411 599 441 596 l 411 636 q 547 629 502 629 q 690 636 579 629 l 690 599 q 573 564 601 578 q 468 479 545 549 l 351 375 l 543 136 q 615 65 585 83 q 722 28 645 47 l 722 -7 q 580 0 629 0 q 411 -7 546 0 l 411 31 q 451 43 446 39 q 457 56 457 48 q 452 72 457 63 q 386 158 444 86 l 235 349 q 239 104 235 149 q 254 64 241 77 q 322 39 266 52 q 351 31 332 37 l 351 -7 q 198 0 249 0 q 22 -7 163 0 l 22 31 q 113 57 102 47 q 126 126 123 68 q 129 562 129 203 l 127 750 q 128 768 127 759 q 128 787 128 777 q 118 854 128 841 q 80 867 107 867 q 15 861 58 867 l 15 897 z "},"l":{"ha":376,"x_min":20,"x_max":357,"o":"m 20 863 l 20 901 q 239 989 141 939 l 257 977 q 241 503 241 850 q 243 116 241 153 q 259 67 246 79 q 357 31 271 54 l 357 -7 q 187 0 248 0 q 20 -7 123 0 l 20 31 q 121 67 113 59 q 131 106 129 75 q 133 480 133 148 l 132 802 l 132 812 q 121 861 132 849 q 90 872 111 872 q 20 863 71 872 z "},"m":{"ha":1173,"x_min":29,"x_max":1160,"o":"m 29 533 l 29 572 q 245 658 155 606 l 261 644 q 250 527 252 589 l 348 618 q 393 644 366 634 q 470 658 429 658 q 595 617 545 658 q 646 527 631 588 q 756 630 722 611 q 869 658 808 658 q 962 636 920 658 q 1022 587 1004 615 q 1046 527 1041 559 q 1052 424 1052 496 l 1050 238 q 1056 76 1050 99 q 1070 54 1059 61 q 1160 31 1081 47 l 1160 -7 q 1015 0 1075 0 q 833 -7 963 0 l 833 31 q 852 37 846 35 q 923 64 913 54 q 935 121 932 74 q 942 335 942 215 q 932 486 942 450 q 893 542 922 522 q 822 562 864 562 q 718 527 764 562 q 658 437 672 492 q 650 254 650 408 q 661 62 650 79 q 760 31 671 46 l 760 -7 q 599 0 671 0 q 434 -7 524 0 l 434 31 l 452 35 q 524 65 515 52 q 539 192 538 88 l 543 393 q 512 527 543 490 q 423 564 481 564 q 330 535 375 564 q 264 458 286 507 q 248 334 248 422 l 250 216 q 259 68 250 83 q 340 36 269 53 q 363 31 348 35 l 363 -7 q 216 0 281 0 q 39 -7 156 0 l 39 31 q 130 58 119 47 q 142 159 142 74 l 142 177 l 144 376 q 134 523 144 505 q 98 541 123 541 q 29 533 77 541 z "},"n":{"ha":766,"x_min":19,"x_max":757,"o":"m 19 532 l 19 572 q 240 658 141 600 l 258 646 q 247 528 249 589 l 333 613 q 384 643 355 632 q 467 658 424 658 q 614 593 564 658 q 647 446 647 551 l 645 282 q 649 87 645 117 q 662 59 652 67 q 726 38 671 51 q 757 31 736 35 l 757 -7 q 614 0 677 0 q 429 -7 560 0 l 429 31 q 517 62 507 54 q 529 88 527 70 q 536 294 536 155 q 530 472 536 441 q 490 541 521 517 q 417 566 460 566 q 329 539 372 566 q 265 469 286 513 q 244 339 244 425 q 254 75 244 95 q 334 37 264 55 q 359 31 342 35 l 359 -7 q 207 0 269 0 q 29 -7 147 0 l 29 31 q 120 58 109 50 q 130 87 127 64 q 137 262 137 151 q 132 512 137 492 q 92 541 125 541 q 45 536 77 541 q 19 532 37 534 z "},"o":{"ha":753,"x_min":52,"x_max":700,"o":"m 52 309 q 145 569 52 473 q 389 665 238 665 q 616 578 532 665 q 700 338 700 492 q 606 74 700 171 q 363 -24 512 -24 q 135 63 218 -24 q 52 309 52 150 m 182 368 q 197 204 182 257 q 268 76 219 119 q 380 33 316 33 q 517 96 464 33 q 571 300 571 159 q 510 533 571 457 q 368 608 450 608 q 234 549 286 608 q 182 368 182 490 z "},"p":{"ha":737,"x_min":5,"x_max":691,"o":"m 9 533 l 9 571 q 222 656 149 612 l 244 643 q 232 513 235 584 q 361 638 318 612 q 446 658 394 658 q 622 583 553 658 q 691 370 691 508 q 645 173 691 258 q 514 34 599 87 q 351 -20 429 -20 q 295 -12 326 -20 q 231 9 265 -5 q 237 -203 233 -171 q 250 -229 239 -220 q 328 -254 260 -237 q 356 -261 337 -256 l 356 -298 q 191 -291 251 -291 q 5 -298 143 -291 l 5 -261 l 37 -253 q 108 -227 96 -240 q 122 -172 120 -213 q 123 141 123 -145 l 121 422 l 122 445 q 112 529 122 513 q 87 539 106 539 q 9 533 68 539 m 229 116 q 305 67 266 83 q 385 50 344 50 q 518 116 460 50 q 575 304 575 182 q 517 502 575 430 q 406 556 475 556 q 317 529 361 556 q 252 459 273 502 q 230 351 231 416 l 229 116 z "},"q":{"ha":724,"x_min":51,"x_max":739,"o":"m 615 658 l 639 645 q 626 553 628 593 q 622 162 622 475 q 627 -201 622 -155 q 638 -229 629 -222 q 713 -254 653 -241 q 739 -261 722 -256 l 739 -298 q 579 -291 642 -291 q 389 -298 536 -291 l 389 -261 l 428 -252 q 498 -225 484 -241 q 513 -167 513 -209 l 513 95 q 392 2 439 25 q 288 -21 345 -21 q 121 58 191 -21 q 51 279 51 138 q 181 574 51 460 q 387 658 277 658 q 463 646 420 658 q 555 611 505 635 q 615 658 586 630 m 513 307 l 513 429 q 481 537 513 498 q 353 595 433 595 q 223 528 279 595 q 166 338 166 460 q 221 142 166 210 q 351 75 277 75 q 445 104 404 75 q 503 176 487 132 q 513 307 513 208 z "},"r":{"ha":492,"x_min":22,"x_max":499,"o":"m 22 532 l 22 570 q 238 658 149 602 l 256 645 q 243 501 245 579 q 357 623 325 601 q 434 646 390 646 q 499 631 463 646 q 475 490 484 562 l 441 490 q 420 537 435 523 q 389 552 406 552 q 330 527 361 552 q 263 441 284 490 q 243 304 243 393 q 252 92 243 146 q 270 60 255 72 q 366 31 286 49 l 366 -7 q 212 0 281 0 q 22 -7 155 0 l 22 31 q 126 66 115 54 q 138 134 138 79 l 140 281 q 136 513 140 497 q 98 541 129 541 q 39 534 80 541 q 22 532 33 533 z "},"s":{"ha":534,"x_min":56,"x_max":488,"o":"m 448 473 l 400 477 q 358 572 395 537 q 264 606 320 606 q 186 580 215 606 q 157 520 157 554 q 180 465 157 490 q 314 378 211 429 q 453 283 417 328 q 488 180 488 237 q 422 37 488 97 q 240 -24 355 -24 q 56 14 157 -24 q 66 189 66 109 l 113 189 q 173 74 133 109 q 273 39 214 39 q 355 66 326 39 q 384 134 384 93 q 355 208 384 174 q 226 292 326 242 q 92 383 125 342 q 58 475 58 424 q 124 607 58 549 q 300 665 191 665 q 466 629 377 665 q 448 473 456 574 z "},"t":{"ha":419,"x_min":17,"x_max":416,"o":"m 199 807 l 239 807 l 223 634 l 411 636 l 416 625 q 385 566 399 597 q 223 571 305 570 l 217 222 l 217 218 q 235 102 217 138 q 296 66 253 66 q 391 97 332 66 l 411 58 q 298 -2 337 12 q 231 -17 260 -17 q 155 6 186 -17 q 114 71 124 30 q 108 212 108 94 q 115 571 108 338 q 17 566 68 570 l 17 602 q 116 673 74 628 q 199 807 157 718 z "},"u":{"ha":766,"x_min":5,"x_max":751,"o":"m 5 578 l 5 616 q 232 646 128 623 l 249 633 q 235 348 235 515 q 244 162 235 202 q 283 98 253 121 q 357 75 314 75 q 449 102 406 75 q 509 169 492 128 q 526 294 526 210 q 522 523 526 304 q 504 562 518 552 q 427 576 490 572 l 403 578 l 403 616 q 629 646 548 627 l 647 633 q 638 492 641 576 q 635 295 635 408 q 642 127 635 153 q 680 100 650 100 q 751 109 698 100 l 751 71 q 634 33 682 52 q 532 -17 586 14 l 512 -2 q 522 98 521 48 q 402 3 442 24 q 313 -17 362 -17 q 173 29 219 -17 q 126 168 126 75 l 126 406 q 112 551 125 532 q 28 575 98 570 q 5 578 20 576 z "},"v":{"ha":694,"x_min":9,"x_max":693,"o":"m 9 604 l 9 642 q 152 634 93 634 q 313 642 207 634 l 313 604 q 298 601 303 602 q 244 585 254 593 q 235 566 235 577 l 235 559 q 244 530 236 553 q 301 370 283 416 l 382 166 q 473 399 404 220 q 520 530 515 511 q 524 564 524 549 q 518 583 524 576 q 486 598 509 592 q 467 604 479 600 l 467 642 l 493 640 q 604 634 569 634 q 693 642 638 634 l 693 604 q 611 557 627 584 q 378 -24 589 522 l 337 -24 q 113 527 165 417 q 78 578 96 564 q 9 604 65 588 z "},"w":{"ha":1055,"x_min":8,"x_max":1051,"o":"m 8 604 l 8 642 q 157 634 99 634 q 314 642 214 634 l 314 604 q 242 583 253 592 q 233 562 233 577 q 235 547 233 554 q 286 399 241 521 l 375 160 q 514 486 385 184 q 470 574 486 559 q 396 604 454 589 l 396 642 q 553 634 509 634 q 701 642 598 634 l 701 604 q 630 582 648 595 q 620 561 620 574 q 623 538 620 551 q 670 399 630 509 q 754 178 727 245 q 882 559 882 530 q 873 584 882 575 q 825 604 864 593 l 825 642 q 939 634 901 634 q 1051 642 970 634 l 1051 604 q 991 580 1008 593 q 962 547 973 566 q 888 355 951 527 l 749 -24 l 708 -24 l 547 405 l 369 -24 l 326 -24 l 207 289 q 104 543 115 522 q 79 574 93 563 q 8 604 59 589 z "},"x":{"ha":724,"x_min":16,"x_max":706,"o":"m 52 604 l 52 642 q 196 634 134 634 q 352 642 256 634 l 352 604 q 335 601 341 602 q 298 588 310 597 q 292 575 292 583 q 387 412 292 546 q 478 538 445 481 q 496 578 496 567 q 490 591 496 587 q 455 602 480 600 l 446 604 l 446 642 q 556 634 503 634 q 682 642 604 634 l 682 604 q 617 587 639 600 q 570 543 596 575 l 420 359 q 618 70 593 96 q 706 31 637 50 l 706 -7 q 555 0 614 0 q 409 -7 490 0 l 409 31 q 422 33 417 33 q 466 49 457 41 q 473 64 473 55 q 464 94 473 77 q 352 269 440 140 q 203 64 203 94 q 210 48 203 54 q 261 33 224 38 q 274 31 266 32 l 274 -7 q 147 0 195 0 q 16 -7 98 0 l 16 31 q 95 59 73 40 q 315 323 117 79 q 201 494 294 359 q 139 568 163 551 q 52 604 116 586 z "},"y":{"ha":708,"x_min":9,"x_max":697,"o":"m 9 604 l 9 642 q 162 634 115 634 q 315 642 198 634 l 315 604 q 241 583 255 593 q 232 565 232 576 q 254 497 232 551 q 397 172 327 315 l 468 375 q 528 562 528 536 q 522 581 528 575 q 489 597 513 591 q 470 604 482 600 l 470 642 q 594 634 555 634 q 697 642 641 634 l 697 604 q 627 571 645 591 q 557 417 608 552 l 425 64 q 337 -153 367 -100 q 249 -258 298 -224 q 154 -292 199 -292 q 92 -283 130 -292 q 74 -223 81 -242 q 47 -168 66 -204 l 73 -149 q 174 -195 124 -195 q 256 -160 222 -195 q 340 14 304 -112 l 208 317 q 101 543 146 460 q 75 577 87 568 q 9 604 58 591 z "},"z":{"ha":665,"x_min":42,"x_max":616,"o":"m 130 443 l 87 443 q 96 642 94 515 q 363 634 224 634 q 616 642 503 634 l 616 596 q 201 63 287 185 l 464 68 q 516 87 500 71 q 551 187 532 104 q 556 210 552 195 l 604 210 l 597 112 l 595 -7 q 366 0 466 0 q 42 -7 298 0 l 42 31 l 156 175 l 462 572 l 291 568 q 198 561 217 566 q 168 543 179 555 q 136 464 156 530 q 130 443 134 457 z "},"{":{"ha":665,"x_min":192,"x_max":570,"o":"m 570 -276 l 570 -300 q 386 -208 457 -284 q 315 -36 315 -132 q 331 75 315 9 q 347 174 347 140 q 306 267 347 224 q 192 319 264 309 l 192 347 q 306 398 264 356 q 347 492 347 441 q 331 590 347 525 q 315 702 315 656 q 386 873 315 796 q 570 964 457 949 l 570 941 q 454 878 490 921 q 417 780 417 836 q 432 678 417 745 q 448 568 448 612 q 397 434 448 498 q 248 334 347 370 q 396 232 345 298 q 448 98 448 167 q 432 -13 448 53 q 417 -115 417 -79 q 454 -213 417 -170 q 570 -276 490 -256 z "},"|":{"ha":737,"x_min":324,"x_max":414,"o":"m 324 967 l 414 967 l 414 -188 l 324 -188 l 324 967 z "},"}":{"ha":665,"x_min":120,"x_max":498,"o":"m 120 941 l 120 964 q 304 873 233 949 q 375 701 375 796 q 359 590 375 655 q 344 492 344 525 q 385 398 344 441 q 498 347 426 356 l 498 319 q 385 267 426 309 q 344 173 344 224 q 359 75 344 140 q 375 -37 375 9 q 304 -208 375 -131 q 120 -300 233 -284 l 120 -276 q 237 -213 200 -256 q 273 -115 273 -170 q 258 -13 273 -79 q 242 98 242 53 q 293 231 242 167 q 443 331 343 296 q 294 433 345 367 q 242 568 242 498 q 258 678 242 612 q 273 781 273 745 q 237 878 273 836 q 120 941 200 921 z "},"~":{"ha":926,"x_min":97,"x_max":829,"o":"m 794 553 l 829 553 q 777 400 827 454 q 654 347 726 347 q 581 358 619 347 q 399 428 543 369 q 255 470 298 470 q 176 441 208 470 q 132 348 144 412 l 97 348 q 151 503 102 452 q 267 554 199 554 q 333 545 300 554 q 514 477 402 526 q 671 429 627 429 q 754 460 720 429 q 794 553 787 492 z "},"Ä":{"ha":1071,"x_min":5,"x_max":1058,"o":"m 509 971 l 551 971 q 777 437 643 736 l 935 92 q 958 65 945 74 q 1058 33 967 59 l 1058 -7 q 876 0 935 0 q 673 -7 817 0 l 673 33 q 768 60 755 50 q 782 83 782 70 q 768 132 782 98 l 700 297 q 490 298 555 298 l 303 297 l 233 125 q 215 74 215 84 q 223 59 215 65 q 302 39 232 54 q 323 33 310 37 l 323 -7 q 160 0 208 0 q 5 -7 100 0 l 5 33 q 90 63 67 46 q 125 106 107 76 q 322 538 164 174 l 509 971 m 330 365 q 465 362 424 362 q 673 365 477 362 l 501 772 l 330 365 m 420 1208 q 470 1188 450 1208 q 490 1138 490 1167 q 470 1088 490 1109 q 420 1067 449 1067 q 371 1088 391 1067 q 350 1138 350 1109 q 370 1188 350 1167 q 420 1208 391 1208 m 651 1207 q 701 1187 680 1207 q 721 1137 721 1166 q 701 1088 721 1109 q 651 1067 680 1067 q 602 1088 623 1067 q 582 1137 582 1109 q 602 1187 582 1166 q 651 1207 622 1207 z "},"Д":{"ha":1071,"x_min":5,"x_max":1058,"o":"m 509 971 l 551 971 q 777 437 643 736 l 935 92 q 958 65 945 74 q 1058 33 967 59 l 1058 -7 q 876 0 935 0 q 673 -7 817 0 l 673 33 q 768 60 755 50 q 782 83 782 70 q 768 132 782 98 l 700 297 q 490 298 555 298 l 303 297 l 233 125 q 215 74 215 84 q 223 59 215 65 q 302 39 232 54 q 323 33 310 37 l 323 -7 q 160 0 208 0 q 5 -7 100 0 l 5 33 q 90 63 67 46 q 125 106 107 76 q 322 538 164 174 l 509 971 m 330 365 q 465 362 424 362 q 673 365 477 362 l 501 772 l 330 365 m 420 1208 q 470 1188 450 1208 q 490 1138 490 1167 q 470 1088 490 1109 q 420 1067 449 1067 q 371 1088 391 1067 q 350 1138 350 1109 q 370 1188 350 1167 q 420 1208 391 1208 m 651 1207 q 701 1187 680 1207 q 721 1137 721 1166 q 701 1088 721 1109 q 651 1067 680 1067 q 602 1088 623 1067 q 582 1137 582 1109 q 602 1187 582 1166 q 651 1207 622 1207 z "},"Å":{"ha":1071,"x_min":5,"x_max":1058,"o":"m 509 971 l 551 971 q 777 437 643 736 l 935 92 q 958 65 945 74 q 1058 33 967 59 l 1058 -7 q 876 0 935 0 q 673 -7 817 0 l 673 33 q 768 60 755 50 q 782 83 782 70 q 768 132 782 98 l 700 297 q 490 298 555 298 l 303 297 l 233 125 q 215 74 215 84 q 223 59 215 65 q 302 39 232 54 q 323 33 310 37 l 323 -7 q 160 0 208 0 q 5 -7 100 0 l 5 33 q 90 63 67 46 q 125 106 107 76 q 322 538 164 174 l 509 971 m 330 365 q 465 362 424 362 q 673 365 477 362 l 501 772 l 330 365 m 536 1278 q 634 1237 593 1278 q 675 1138 675 1196 q 634 1040 675 1080 q 536 999 593 999 q 437 1040 477 999 q 396 1138 396 1080 q 437 1237 396 1196 q 536 1278 477 1278 m 536 1221 q 476 1197 500 1221 q 452 1138 452 1173 q 477 1079 452 1103 q 536 1055 501 1055 q 594 1079 570 1055 q 618 1138 618 1103 q 594 1197 618 1173 q 536 1221 570 1221 z "},"Е":{"ha":1071,"x_min":5,"x_max":1058,"o":"m 509 971 l 551 971 q 777 437 643 736 l 935 92 q 958 65 945 74 q 1058 33 967 59 l 1058 -7 q 876 0 935 0 q 673 -7 817 0 l 673 33 q 768 60 755 50 q 782 83 782 70 q 768 132 782 98 l 700 297 q 490 298 555 298 l 303 297 l 233 125 q 215 74 215 84 q 223 59 215 65 q 302 39 232 54 q 323 33 310 37 l 323 -7 q 160 0 208 0 q 5 -7 100 0 l 5 33 q 90 63 67 46 q 125 106 107 76 q 322 538 164 174 l 509 971 m 330 365 q 465 362 424 362 q 673 365 477 362 l 501 772 l 330 365 m 536 1278 q 634 1237 593 1278 q 675 1138 675 1196 q 634 1040 675 1080 q 536 999 593 999 q 437 1040 477 999 q 396 1138 396 1080 q 437 1237 396 1196 q 536 1278 477 1278 m 536 1221 q 476 1197 500 1221 q 452 1138 452 1173 q 477 1079 452 1103 q 536 1055 501 1055 q 594 1079 570 1055 q 618 1138 618 1103 q 594 1197 618 1173 q 536 1221 570 1221 z "},"Ç":{"ha":999,"x_min":64,"x_max":955,"o":"m 926 157 l 955 106 q 745 5 846 37 q 538 -28 645 -28 q 290 34 401 -28 q 122 210 179 96 q 64 462 64 323 q 212 831 64 688 q 602 975 359 975 q 935 914 751 975 q 933 825 933 854 q 943 642 933 738 l 886 642 q 833 806 861 761 q 741 877 804 850 q 583 904 677 904 q 287 764 387 904 q 210 490 210 655 q 318 180 210 294 q 604 66 427 66 q 751 86 680 66 q 926 157 823 106 m 529 8 l 572 8 q 529 -62 555 -28 q 571 -89 555 -68 q 586 -139 586 -110 q 567 -198 586 -168 q 506 -244 548 -227 q 401 -260 463 -260 q 361 -258 388 -260 l 361 -221 q 474 -197 437 -221 q 494 -158 494 -184 q 486 -133 494 -142 q 460 -124 477 -124 q 446 -125 456 -124 l 439 -106 q 488 -52 473 -71 q 529 8 503 -33 z "},"З":{"ha":999,"x_min":64,"x_max":955,"o":"m 926 157 l 955 106 q 745 5 846 37 q 538 -28 645 -28 q 290 34 401 -28 q 122 210 179 96 q 64 462 64 323 q 212 831 64 688 q 602 975 359 975 q 935 914 751 975 q 933 825 933 854 q 943 642 933 738 l 886 642 q 833 806 861 761 q 741 877 804 850 q 583 904 677 904 q 287 764 387 904 q 210 490 210 655 q 318 180 210 294 q 604 66 427 66 q 751 86 680 66 q 926 157 823 106 m 529 8 l 572 8 q 529 -62 555 -28 q 571 -89 555 -68 q 586 -139 586 -110 q 567 -198 586 -168 q 506 -244 548 -227 q 401 -260 463 -260 q 361 -258 388 -260 l 361 -221 q 474 -197 437 -221 q 494 -158 494 -184 q 486 -133 494 -142 q 460 -124 477 -124 q 446 -125 456 -124 l 439 -106 q 488 -52 473 -71 q 529 8 503 -33 z "},"É":{"ha":926,"x_min":27,"x_max":877,"o":"m 309 530 l 473 530 q 585 535 568 530 q 613 556 602 541 q 639 646 623 572 q 645 669 641 654 l 690 669 q 682 497 682 557 q 690 326 682 435 l 645 326 q 621 436 625 425 q 597 459 614 452 q 496 467 580 467 l 310 467 l 313 68 l 597 68 l 623 68 q 696 73 681 68 q 741 103 722 82 q 814 220 761 123 q 830 248 819 229 l 877 248 q 793 -7 869 226 q 342 0 546 0 q 27 -7 199 0 l 27 33 l 137 56 q 170 71 163 64 q 180 125 180 84 l 180 137 l 183 296 q 184 477 184 342 q 182 765 184 673 q 176 868 181 856 q 163 881 172 876 q 100 899 155 886 l 27 915 l 27 955 q 332 947 155 947 q 793 955 429 947 q 809 723 794 838 l 762 723 q 718 846 734 815 q 689 873 706 867 q 590 882 667 882 l 316 882 l 311 664 l 309 530 m 422 1021 l 382 1021 q 467 1258 428 1146 l 543 1257 q 604 1258 555 1257 l 614 1245 q 422 1021 515 1141 z "},"Й":{"ha":926,"x_min":27,"x_max":877,"o":"m 309 530 l 473 530 q 585 535 568 530 q 613 556 602 541 q 639 646 623 572 q 645 669 641 654 l 690 669 q 682 497 682 557 q 690 326 682 435 l 645 326 q 621 436 625 425 q 597 459 614 452 q 496 467 580 467 l 310 467 l 313 68 l 597 68 l 623 68 q 696 73 681 68 q 741 103 722 82 q 814 220 761 123 q 830 248 819 229 l 877 248 q 793 -7 869 226 q 342 0 546 0 q 27 -7 199 0 l 27 33 l 137 56 q 170 71 163 64 q 180 125 180 84 l 180 137 l 183 296 q 184 477 184 342 q 182 765 184 673 q 176 868 181 856 q 163 881 172 876 q 100 899 155 886 l 27 915 l 27 955 q 332 947 155 947 q 793 955 429 947 q 809 723 794 838 l 762 723 q 718 846 734 815 q 689 873 706 867 q 590 882 667 882 l 316 882 l 311 664 l 309 530 m 422 1021 l 382 1021 q 467 1258 428 1146 l 543 1257 q 604 1258 555 1257 l 614 1245 q 422 1021 515 1141 z "},"Ñ":{"ha":1129,"x_min":-1,"x_max":1108,"o":"m -1 915 l -1 955 q 135 947 85 947 q 278 955 175 947 l 471 714 q 879 220 497 682 q 880 357 880 315 q 873 727 880 458 q 867 863 871 852 q 851 883 863 874 q 757 907 840 892 q 725 915 746 909 l 725 955 q 917 947 846 947 q 1108 955 986 947 l 1108 915 q 1081 909 1090 910 q 980 884 990 890 q 968 871 972 880 q 958 831 961 861 q 955 646 958 818 q 953 313 953 474 q 960 -7 953 123 l 916 -28 l 633 323 l 262 770 l 265 369 q 273 88 269 106 q 285 67 275 76 q 386 39 300 54 q 416 33 396 37 l 416 -7 q 241 0 313 0 q 33 -7 182 0 l 33 33 q 69 41 57 38 q 163 67 151 55 q 174 88 171 73 q 183 324 181 119 q 186 667 186 614 q 182 857 186 838 q 164 879 179 870 q 36 907 149 888 q -1 915 24 909 m 747 1220 l 790 1220 q 729 1086 761 1118 q 659 1055 698 1055 q 552 1090 626 1055 q 448 1126 477 1126 q 412 1112 429 1126 q 380 1057 395 1097 l 338 1057 q 401 1192 360 1149 q 464 1220 427 1220 q 577 1185 505 1220 q 682 1149 650 1149 q 720 1162 706 1149 q 747 1220 733 1175 z "},"С":{"ha":1129,"x_min":-1,"x_max":1108,"o":"m -1 915 l -1 955 q 135 947 85 947 q 278 955 175 947 l 471 714 q 879 220 497 682 q 880 357 880 315 q 873 727 880 458 q 867 863 871 852 q 851 883 863 874 q 757 907 840 892 q 725 915 746 909 l 725 955 q 917 947 846 947 q 1108 955 986 947 l 1108 915 q 1081 909 1090 910 q 980 884 990 890 q 968 871 972 880 q 958 831 961 861 q 955 646 958 818 q 953 313 953 474 q 960 -7 953 123 l 916 -28 l 633 323 l 262 770 l 265 369 q 273 88 269 106 q 285 67 275 76 q 386 39 300 54 q 416 33 396 37 l 416 -7 q 241 0 313 0 q 33 -7 182 0 l 33 33 q 69 41 57 38 q 163 67 151 55 q 174 88 171 73 q 183 324 181 119 q 186 667 186 614 q 182 857 186 838 q 164 879 179 870 q 36 907 149 888 q -1 915 24 909 m 747 1220 l 790 1220 q 729 1086 761 1118 q 659 1055 698 1055 q 552 1090 626 1055 q 448 1126 477 1126 q 412 1112 429 1126 q 380 1057 395 1097 l 338 1057 q 401 1192 360 1149 q 464 1220 427 1220 q 577 1185 505 1220 q 682 1149 650 1149 q 720 1162 706 1149 q 747 1220 733 1175 z "},"Ö":{"ha":1100,"x_min":65,"x_max":1035,"o":"m 65 467 q 209 832 65 690 q 577 975 352 975 q 911 849 787 975 q 1035 502 1035 723 q 895 114 1035 256 q 528 -28 755 -28 q 190 101 314 -28 q 65 467 65 230 m 214 488 q 312 152 214 264 q 559 39 410 39 q 735 92 659 39 q 851 244 812 144 q 890 467 890 345 q 840 722 890 621 q 716 866 790 823 q 550 910 642 910 q 369 857 449 910 q 251 703 289 804 q 214 488 214 602 m 435 1208 q 484 1188 464 1208 q 505 1138 505 1167 q 484 1088 505 1109 q 435 1067 463 1067 q 385 1088 406 1067 q 364 1138 364 1109 q 385 1188 364 1167 q 435 1208 405 1208 m 665 1207 q 715 1187 694 1207 q 735 1137 735 1166 q 715 1088 735 1109 q 665 1067 694 1067 q 616 1088 637 1067 q 596 1137 596 1109 q 616 1187 596 1166 q 665 1207 636 1207 z "},"Ц":{"ha":1100,"x_min":65,"x_max":1035,"o":"m 65 467 q 209 832 65 690 q 577 975 352 975 q 911 849 787 975 q 1035 502 1035 723 q 895 114 1035 256 q 528 -28 755 -28 q 190 101 314 -28 q 65 467 65 230 m 214 488 q 312 152 214 264 q 559 39 410 39 q 735 92 659 39 q 851 244 812 144 q 890 467 890 345 q 840 722 890 621 q 716 866 790 823 q 550 910 642 910 q 369 857 449 910 q 251 703 289 804 q 214 488 214 602 m 435 1208 q 484 1188 464 1208 q 505 1138 505 1167 q 484 1088 505 1109 q 435 1067 463 1067 q 385 1088 406 1067 q 364 1138 364 1109 q 385 1188 364 1167 q 435 1208 405 1208 m 665 1207 q 715 1187 694 1207 q 735 1137 735 1166 q 715 1088 735 1109 q 665 1067 694 1067 q 616 1088 637 1067 q 596 1137 596 1109 q 616 1187 596 1166 q 665 1207 636 1207 z "},"Ü":{"ha":1114,"x_min":19,"x_max":1097,"o":"m 19 915 l 19 955 q 237 947 145 947 q 457 955 332 947 l 457 915 q 425 908 436 910 q 317 882 330 893 q 304 837 305 871 q 300 490 300 745 q 309 258 300 319 q 354 154 318 197 q 452 87 389 111 q 585 64 514 64 q 757 108 691 64 q 845 225 823 152 q 866 513 866 299 q 861 848 866 797 q 848 879 859 870 q 747 908 838 888 q 718 915 737 910 l 718 955 q 920 947 850 947 q 1097 955 998 947 l 1097 915 q 1069 907 1078 909 q 966 879 979 889 q 951 844 954 869 q 943 528 945 790 q 936 270 943 325 q 904 148 927 194 q 833 59 881 101 q 724 -2 785 18 q 553 -28 642 -28 q 377 -3 454 -28 q 256 63 299 21 q 193 161 214 104 q 172 326 172 218 l 174 633 q 173 827 174 805 q 163 871 170 860 q 146 886 157 881 q 52 907 138 890 q 19 915 41 909 m 442 1208 q 492 1188 471 1208 q 512 1138 512 1167 q 491 1088 512 1109 q 442 1067 471 1067 q 392 1088 413 1067 q 372 1138 372 1109 q 392 1188 372 1167 q 442 1208 412 1208 m 673 1207 q 722 1187 702 1207 q 743 1137 743 1166 q 722 1088 743 1109 q 673 1067 702 1067 q 624 1088 644 1067 q 604 1137 604 1109 q 624 1187 604 1166 q 673 1207 644 1207 z "},"Ь":{"ha":1114,"x_min":19,"x_max":1097,"o":"m 19 915 l 19 955 q 237 947 145 947 q 457 955 332 947 l 457 915 q 425 908 436 910 q 317 882 330 893 q 304 837 305 871 q 300 490 300 745 q 309 258 300 319 q 354 154 318 197 q 452 87 389 111 q 585 64 514 64 q 757 108 691 64 q 845 225 823 152 q 866 513 866 299 q 861 848 866 797 q 848 879 859 870 q 747 908 838 888 q 718 915 737 910 l 718 955 q 920 947 850 947 q 1097 955 998 947 l 1097 915 q 1069 907 1078 909 q 966 879 979 889 q 951 844 954 869 q 943 528 945 790 q 936 270 943 325 q 904 148 927 194 q 833 59 881 101 q 724 -2 785 18 q 553 -28 642 -28 q 377 -3 454 -28 q 256 63 299 21 q 193 161 214 104 q 172 326 172 218 l 174 633 q 173 827 174 805 q 163 871 170 860 q 146 886 157 881 q 52 907 138 890 q 19 915 41 909 m 442 1208 q 492 1188 471 1208 q 512 1138 512 1167 q 491 1088 512 1109 q 442 1067 471 1067 q 392 1088 413 1067 q 372 1138 372 1109 q 392 1188 372 1167 q 442 1208 412 1208 m 673 1207 q 722 1187 702 1207 q 743 1137 743 1166 q 722 1088 743 1109 q 673 1067 702 1067 q 624 1088 644 1067 q 604 1137 604 1109 q 624 1187 604 1166 q 673 1207 644 1207 z "},"á":{"ha":681,"x_min":50,"x_max":675,"o":"m 138 453 l 94 458 q 113 598 107 528 q 351 658 245 658 q 435 645 397 658 q 494 608 472 631 q 527 552 515 585 q 538 448 538 519 l 532 168 q 545 94 532 111 q 578 76 557 76 q 654 113 602 76 l 675 85 q 571 -6 580 -1 q 524 -17 552 -17 q 455 5 479 -17 q 423 79 431 27 q 302 0 342 16 q 217 -17 263 -17 q 96 29 142 -17 q 50 146 50 75 q 66 224 50 189 q 113 286 82 259 q 193 333 136 305 q 423 437 325 397 q 391 564 420 532 q 304 595 363 595 q 209 561 248 595 q 138 453 169 526 m 423 378 q 209 262 246 298 q 172 175 172 226 q 200 94 172 124 q 265 63 228 63 q 349 89 304 63 q 409 146 394 114 q 423 262 423 178 l 423 378 m 300 731 l 259 731 q 345 968 305 856 l 420 966 q 481 968 432 966 l 491 955 q 300 731 392 851 z "},"б":{"ha":681,"x_min":50,"x_max":675,"o":"m 138 453 l 94 458 q 113 598 107 528 q 351 658 245 658 q 435 645 397 658 q 494 608 472 631 q 527 552 515 585 q 538 448 538 519 l 532 168 q 545 94 532 111 q 578 76 557 76 q 654 113 602 76 l 675 85 q 571 -6 580 -1 q 524 -17 552 -17 q 455 5 479 -17 q 423 79 431 27 q 302 0 342 16 q 217 -17 263 -17 q 96 29 142 -17 q 50 146 50 75 q 66 224 50 189 q 113 286 82 259 q 193 333 136 305 q 423 437 325 397 q 391 564 420 532 q 304 595 363 595 q 209 561 248 595 q 138 453 169 526 m 423 378 q 209 262 246 298 q 172 175 172 226 q 200 94 172 124 q 265 63 228 63 q 349 89 304 63 q 409 146 394 114 q 423 262 423 178 l 423 378 m 300 731 l 259 731 q 345 968 305 856 l 420 966 q 481 968 432 966 l 491 955 q 300 731 392 851 z "},"à":{"ha":681,"x_min":50,"x_max":675,"o":"m 138 453 l 94 458 q 113 598 107 528 q 351 658 245 658 q 435 645 397 658 q 494 608 472 631 q 527 552 515 585 q 538 448 538 519 l 532 168 q 545 94 532 111 q 578 76 557 76 q 654 113 602 76 l 675 85 q 571 -6 580 -1 q 524 -17 552 -17 q 455 5 479 -17 q 423 79 431 27 q 302 0 342 16 q 217 -17 263 -17 q 96 29 142 -17 q 50 146 50 75 q 66 224 50 189 q 113 286 82 259 q 193 333 136 305 q 423 437 325 397 q 391 564 420 532 q 304 595 363 595 q 209 561 248 595 q 138 453 169 526 m 423 378 q 209 262 246 298 q 172 175 172 226 q 200 94 172 124 q 265 63 228 63 q 349 89 304 63 q 409 146 394 114 q 423 262 423 178 l 423 378 m 381 731 q 189 955 288 851 l 199 968 q 265 966 260 966 q 336 968 289 966 q 421 731 375 856 l 381 731 z "},"а":{"ha":681,"x_min":50,"x_max":675,"o":"m 138 453 l 94 458 q 113 598 107 528 q 351 658 245 658 q 435 645 397 658 q 494 608 472 631 q 527 552 515 585 q 538 448 538 519 l 532 168 q 545 94 532 111 q 578 76 557 76 q 654 113 602 76 l 675 85 q 571 -6 580 -1 q 524 -17 552 -17 q 455 5 479 -17 q 423 79 431 27 q 302 0 342 16 q 217 -17 263 -17 q 96 29 142 -17 q 50 146 50 75 q 66 224 50 189 q 113 286 82 259 q 193 333 136 305 q 423 437 325 397 q 391 564 420 532 q 304 595 363 595 q 209 561 248 595 q 138 453 169 526 m 423 378 q 209 262 246 298 q 172 175 172 226 q 200 94 172 124 q 265 63 228 63 q 349 89 304 63 q 409 146 394 114 q 423 262 423 178 l 423 378 m 381 731 q 189 955 288 851 l 199 968 q 265 966 260 966 q 336 968 289 966 q 421 731 375 856 l 381 731 z "},"â":{"ha":681,"x_min":50,"x_max":675,"o":"m 138 453 l 94 458 q 113 598 107 528 q 351 658 245 658 q 435 645 397 658 q 494 608 472 631 q 527 552 515 585 q 538 448 538 519 l 532 168 q 545 94 532 111 q 578 76 557 76 q 654 113 602 76 l 675 85 q 571 -6 580 -1 q 524 -17 552 -17 q 455 5 479 -17 q 423 79 431 27 q 302 0 342 16 q 217 -17 263 -17 q 96 29 142 -17 q 50 146 50 75 q 66 224 50 189 q 113 286 82 259 q 193 333 136 305 q 423 437 325 397 q 391 564 420 532 q 304 595 363 595 q 209 561 248 595 q 138 453 169 526 m 423 378 q 209 262 246 298 q 172 175 172 226 q 200 94 172 124 q 265 63 228 63 q 349 89 304 63 q 409 146 394 114 q 423 262 423 178 l 423 378 m 540 739 l 494 739 l 332 864 l 184 739 l 140 739 l 244 898 q 282 955 269 936 l 345 954 q 399 955 355 954 q 540 739 435 897 z "},"в":{"ha":681,"x_min":50,"x_max":675,"o":"m 138 453 l 94 458 q 113 598 107 528 q 351 658 245 658 q 435 645 397 658 q 494 608 472 631 q 527 552 515 585 q 538 448 538 519 l 532 168 q 545 94 532 111 q 578 76 557 76 q 654 113 602 76 l 675 85 q 571 -6 580 -1 q 524 -17 552 -17 q 455 5 479 -17 q 423 79 431 27 q 302 0 342 16 q 217 -17 263 -17 q 96 29 142 -17 q 50 146 50 75 q 66 224 50 189 q 113 286 82 259 q 193 333 136 305 q 423 437 325 397 q 391 564 420 532 q 304 595 363 595 q 209 561 248 595 q 138 453 169 526 m 423 378 q 209 262 246 298 q 172 175 172 226 q 200 94 172 124 q 265 63 228 63 q 349 89 304 63 q 409 146 394 114 q 423 262 423 178 l 423 378 m 540 739 l 494 739 l 332 864 l 184 739 l 140 739 l 244 898 q 282 955 269 936 l 345 954 q 399 955 355 954 q 540 739 435 897 z "},"ä":{"ha":681,"x_min":50,"x_max":675,"o":"m 138 453 l 94 458 q 113 598 107 528 q 351 658 245 658 q 435 645 397 658 q 494 608 472 631 q 527 552 515 585 q 538 448 538 519 l 532 168 q 545 94 532 111 q 578 76 557 76 q 654 113 602 76 l 675 85 q 571 -6 580 -1 q 524 -17 552 -17 q 455 5 479 -17 q 423 79 431 27 q 302 0 342 16 q 217 -17 263 -17 q 96 29 142 -17 q 50 146 50 75 q 66 224 50 189 q 113 286 82 259 q 193 333 136 305 q 423 437 325 397 q 391 564 420 532 q 304 595 363 595 q 209 561 248 595 q 138 453 169 526 m 423 378 q 209 262 246 298 q 172 175 172 226 q 200 94 172 124 q 265 63 228 63 q 349 89 304 63 q 409 146 394 114 q 423 262 423 178 l 423 378 m 225 918 q 275 898 254 918 q 295 848 295 877 q 274 798 295 819 q 225 777 254 777 q 175 798 196 777 q 155 848 155 819 q 175 898 155 877 q 225 918 195 918 m 456 917 q 505 897 485 917 q 526 847 526 876 q 505 798 526 819 q 456 777 485 777 q 407 798 427 777 q 387 847 387 819 q 407 897 387 876 q 456 917 427 917 z "},"д":{"ha":681,"x_min":50,"x_max":675,"o":"m 138 453 l 94 458 q 113 598 107 528 q 351 658 245 658 q 435 645 397 658 q 494 608 472 631 q 527 552 515 585 q 538 448 538 519 l 532 168 q 545 94 532 111 q 578 76 557 76 q 654 113 602 76 l 675 85 q 571 -6 580 -1 q 524 -17 552 -17 q 455 5 479 -17 q 423 79 431 27 q 302 0 342 16 q 217 -17 263 -17 q 96 29 142 -17 q 50 146 50 75 q 66 224 50 189 q 113 286 82 259 q 193 333 136 305 q 423 437 325 397 q 391 564 420 532 q 304 595 363 595 q 209 561 248 595 q 138 453 169 526 m 423 378 q 209 262 246 298 q 172 175 172 226 q 200 94 172 124 q 265 63 228 63 q 349 89 304 63 q 409 146 394 114 q 423 262 423 178 l 423 378 m 225 918 q 275 898 254 918 q 295 848 295 877 q 274 798 295 819 q 225 777 254 777 q 175 798 196 777 q 155 848 155 819 q 175 898 155 877 q 225 918 195 918 m 456 917 q 505 897 485 917 q 526 847 526 876 q 505 798 526 819 q 456 777 485 777 q 407 798 427 777 q 387 847 387 819 q 407 897 387 876 q 456 917 427 917 z "},"ã":{"ha":681,"x_min":50,"x_max":675,"o":"m 138 453 l 94 458 q 113 598 107 528 q 351 658 245 658 q 435 645 397 658 q 494 608 472 631 q 527 552 515 585 q 538 448 538 519 l 532 168 q 545 94 532 111 q 578 76 557 76 q 654 113 602 76 l 675 85 q 571 -6 580 -1 q 524 -17 552 -17 q 455 5 479 -17 q 423 79 431 27 q 302 0 342 16 q 217 -17 263 -17 q 96 29 142 -17 q 50 146 50 75 q 66 224 50 189 q 113 286 82 259 q 193 333 136 305 q 423 437 325 397 q 391 564 420 532 q 304 595 363 595 q 209 561 248 595 q 138 453 169 526 m 423 378 q 209 262 246 298 q 172 175 172 226 q 200 94 172 124 q 265 63 228 63 q 349 89 304 63 q 409 146 394 114 q 423 262 423 178 l 423 378 m 496 930 l 538 930 q 478 796 509 827 q 408 765 446 765 q 300 800 374 765 q 197 836 226 836 q 161 821 178 836 q 128 766 144 807 l 87 766 q 149 902 109 859 q 212 930 175 930 q 326 895 253 930 q 430 859 398 859 q 468 872 454 859 q 496 930 481 884 z "},"г":{"ha":681,"x_min":50,"x_max":675,"o":"m 138 453 l 94 458 q 113 598 107 528 q 351 658 245 658 q 435 645 397 658 q 494 608 472 631 q 527 552 515 585 q 538 448 538 519 l 532 168 q 545 94 532 111 q 578 76 557 76 q 654 113 602 76 l 675 85 q 571 -6 580 -1 q 524 -17 552 -17 q 455 5 479 -17 q 423 79 431 27 q 302 0 342 16 q 217 -17 263 -17 q 96 29 142 -17 q 50 146 50 75 q 66 224 50 189 q 113 286 82 259 q 193 333 136 305 q 423 437 325 397 q 391 564 420 532 q 304 595 363 595 q 209 561 248 595 q 138 453 169 526 m 423 378 q 209 262 246 298 q 172 175 172 226 q 200 94 172 124 q 265 63 228 63 q 349 89 304 63 q 409 146 394 114 q 423 262 423 178 l 423 378 m 496 930 l 538 930 q 478 796 509 827 q 408 765 446 765 q 300 800 374 765 q 197 836 226 836 q 161 821 178 836 q 128 766 144 807 l 87 766 q 149 902 109 859 q 212 930 175 930 q 326 895 253 930 q 430 859 398 859 q 468 872 454 859 q 496 930 481 884 z "},"å":{"ha":681,"x_min":50,"x_max":675,"o":"m 138 453 l 94 458 q 113 598 107 528 q 351 658 245 658 q 435 645 397 658 q 494 608 472 631 q 527 552 515 585 q 538 448 538 519 l 532 168 q 545 94 532 111 q 578 76 557 76 q 654 113 602 76 l 675 85 q 571 -6 580 -1 q 524 -17 552 -17 q 455 5 479 -17 q 423 79 431 27 q 302 0 342 16 q 217 -17 263 -17 q 96 29 142 -17 q 50 146 50 75 q 66 224 50 189 q 113 286 82 259 q 193 333 136 305 q 423 437 325 397 q 391 564 420 532 q 304 595 363 595 q 209 561 248 595 q 138 453 169 526 m 423 378 q 209 262 246 298 q 172 175 172 226 q 200 94 172 124 q 265 63 228 63 q 349 89 304 63 q 409 146 394 114 q 423 262 423 178 l 423 378 m 340 987 q 439 946 398 987 q 479 848 479 905 q 439 749 479 790 q 340 709 398 709 q 241 749 282 709 q 201 848 201 790 q 241 946 201 905 q 340 987 282 987 m 340 931 q 281 907 305 931 q 257 848 257 882 q 281 789 257 813 q 340 764 306 764 q 399 789 374 764 q 423 848 423 813 q 399 907 423 882 q 340 931 375 931 z "},"е":{"ha":681,"x_min":50,"x_max":675,"o":"m 138 453 l 94 458 q 113 598 107 528 q 351 658 245 658 q 435 645 397 658 q 494 608 472 631 q 527 552 515 585 q 538 448 538 519 l 532 168 q 545 94 532 111 q 578 76 557 76 q 654 113 602 76 l 675 85 q 571 -6 580 -1 q 524 -17 552 -17 q 455 5 479 -17 q 423 79 431 27 q 302 0 342 16 q 217 -17 263 -17 q 96 29 142 -17 q 50 146 50 75 q 66 224 50 189 q 113 286 82 259 q 193 333 136 305 q 423 437 325 397 q 391 564 420 532 q 304 595 363 595 q 209 561 248 595 q 138 453 169 526 m 423 378 q 209 262 246 298 q 172 175 172 226 q 200 94 172 124 q 265 63 228 63 q 349 89 304 63 q 409 146 394 114 q 423 262 423 178 l 423 378 m 340 987 q 439 946 398 987 q 479 848 479 905 q 439 749 479 790 q 340 709 398 709 q 241 749 282 709 q 201 848 201 790 q 241 946 201 905 q 340 987 282 987 m 340 931 q 281 907 305 931 q 257 848 257 882 q 281 789 257 813 q 340 764 306 764 q 399 789 374 764 q 423 848 423 813 q 399 907 423 882 q 340 931 375 931 z "},"ç":{"ha":623,"x_min":46,"x_max":595,"o":"m 555 430 l 510 433 q 467 560 507 519 q 357 601 427 601 q 260 573 307 601 q 188 484 214 546 q 162 343 162 422 q 223 146 162 217 q 366 75 285 75 q 570 142 450 75 l 595 102 q 418 -9 488 23 q 335 -24 384 -24 q 143 45 216 -24 q 46 294 46 137 q 148 560 46 456 q 399 665 250 665 q 595 612 500 665 q 581 553 590 589 q 555 430 570 505 m 320 8 l 363 8 q 320 -62 346 -28 q 362 -89 347 -68 q 377 -139 377 -110 q 358 -198 377 -168 q 297 -244 339 -227 q 193 -260 254 -260 q 153 -258 179 -260 l 153 -221 q 265 -197 229 -221 q 286 -158 286 -184 q 277 -133 286 -142 q 252 -124 269 -124 q 237 -125 247 -124 l 230 -106 q 279 -52 264 -71 q 320 8 294 -33 z "},"з":{"ha":623,"x_min":46,"x_max":595,"o":"m 555 430 l 510 433 q 467 560 507 519 q 357 601 427 601 q 260 573 307 601 q 188 484 214 546 q 162 343 162 422 q 223 146 162 217 q 366 75 285 75 q 570 142 450 75 l 595 102 q 418 -9 488 23 q 335 -24 384 -24 q 143 45 216 -24 q 46 294 46 137 q 148 560 46 456 q 399 665 250 665 q 595 612 500 665 q 581 553 590 589 q 555 430 570 505 m 320 8 l 363 8 q 320 -62 346 -28 q 362 -89 347 -68 q 377 -139 377 -110 q 358 -198 377 -168 q 297 -244 339 -227 q 193 -260 254 -260 q 153 -258 179 -260 l 153 -221 q 265 -197 229 -221 q 286 -158 286 -184 q 277 -133 286 -142 q 252 -124 269 -124 q 237 -125 247 -124 l 230 -106 q 279 -52 264 -71 q 320 8 294 -33 z "},"é":{"ha":636,"x_min":50,"x_max":599,"o":"m 573 157 l 599 117 l 464 17 q 406 -11 436 -2 q 317 -24 363 -24 q 129 65 207 -24 q 50 305 50 154 q 144 566 50 468 q 374 665 238 665 q 536 607 479 665 q 595 429 593 549 q 543 389 566 413 q 482 390 494 390 q 170 385 302 390 q 221 155 169 233 q 361 76 273 76 q 453 93 405 76 q 573 157 501 111 m 474 454 q 444 555 470 521 q 342 606 406 606 q 243 568 286 606 q 178 441 199 530 q 216 441 203 441 q 474 454 328 441 m 305 731 l 264 731 q 350 968 311 856 l 426 966 q 487 968 437 966 l 496 955 q 305 731 397 851 z "},"й":{"ha":636,"x_min":50,"x_max":599,"o":"m 573 157 l 599 117 l 464 17 q 406 -11 436 -2 q 317 -24 363 -24 q 129 65 207 -24 q 50 305 50 154 q 144 566 50 468 q 374 665 238 665 q 536 607 479 665 q 595 429 593 549 q 543 389 566 413 q 482 390 494 390 q 170 385 302 390 q 221 155 169 233 q 361 76 273 76 q 453 93 405 76 q 573 157 501 111 m 474 454 q 444 555 470 521 q 342 606 406 606 q 243 568 286 606 q 178 441 199 530 q 216 441 203 441 q 474 454 328 441 m 305 731 l 264 731 q 350 968 311 856 l 426 966 q 487 968 437 966 l 496 955 q 305 731 397 851 z "},"è":{"ha":636,"x_min":50,"x_max":599,"o":"m 573 157 l 599 117 l 464 17 q 406 -11 436 -2 q 317 -24 363 -24 q 129 65 207 -24 q 50 305 50 154 q 144 566 50 468 q 374 665 238 665 q 536 607 479 665 q 595 429 593 549 q 543 389 566 413 q 482 390 494 390 q 170 385 302 390 q 221 155 169 233 q 361 76 273 76 q 453 93 405 76 q 573 157 501 111 m 474 454 q 444 555 470 521 q 342 606 406 606 q 243 568 286 606 q 178 441 199 530 q 216 441 203 441 q 474 454 328 441 m 359 731 q 168 955 267 851 l 177 968 q 243 966 239 966 q 315 968 267 966 q 399 731 353 856 l 359 731 z "},"и":{"ha":636,"x_min":50,"x_max":599,"o":"m 573 157 l 599 117 l 464 17 q 406 -11 436 -2 q 317 -24 363 -24 q 129 65 207 -24 q 50 305 50 154 q 144 566 50 468 q 374 665 238 665 q 536 607 479 665 q 595 429 593 549 q 543 389 566 413 q 482 390 494 390 q 170 385 302 390 q 221 155 169 233 q 361 76 273 76 q 453 93 405 76 q 573 157 501 111 m 474 454 q 444 555 470 521 q 342 606 406 606 q 243 568 286 606 q 178 441 199 530 q 216 441 203 441 q 474 454 328 441 m 359 731 q 168 955 267 851 l 177 968 q 243 966 239 966 q 315 968 267 966 q 399 731 353 856 l 359 731 z "},"ê":{"ha":636,"x_min":50,"x_max":599,"o":"m 573 157 l 599 117 l 464 17 q 406 -11 436 -2 q 317 -24 363 -24 q 129 65 207 -24 q 50 305 50 154 q 144 566 50 468 q 374 665 238 665 q 536 607 479 665 q 595 429 593 549 q 543 389 566 413 q 482 390 494 390 q 170 385 302 390 q 221 155 169 233 q 361 76 273 76 q 453 93 405 76 q 573 157 501 111 m 474 454 q 444 555 470 521 q 342 606 406 606 q 243 568 286 606 q 178 441 199 530 q 216 441 203 441 q 474 454 328 441 m 545 739 l 499 739 l 338 864 l 189 739 l 145 739 l 250 898 q 288 955 274 936 l 351 954 q 404 955 361 954 q 545 739 440 897 z "},"к":{"ha":636,"x_min":50,"x_max":599,"o":"m 573 157 l 599 117 l 464 17 q 406 -11 436 -2 q 317 -24 363 -24 q 129 65 207 -24 q 50 305 50 154 q 144 566 50 468 q 374 665 238 665 q 536 607 479 665 q 595 429 593 549 q 543 389 566 413 q 482 390 494 390 q 170 385 302 390 q 221 155 169 233 q 361 76 273 76 q 453 93 405 76 q 573 157 501 111 m 474 454 q 444 555 470 521 q 342 606 406 606 q 243 568 286 606 q 178 441 199 530 q 216 441 203 441 q 474 454 328 441 m 545 739 l 499 739 l 338 864 l 189 739 l 145 739 l 250 898 q 288 955 274 936 l 351 954 q 404 955 361 954 q 545 739 440 897 z "},"ë":{"ha":636,"x_min":50,"x_max":599,"o":"m 573 157 l 599 117 l 464 17 q 406 -11 436 -2 q 317 -24 363 -24 q 129 65 207 -24 q 50 305 50 154 q 144 566 50 468 q 374 665 238 665 q 536 607 479 665 q 595 429 593 549 q 543 389 566 413 q 482 390 494 390 q 170 385 302 390 q 221 155 169 233 q 361 76 273 76 q 453 93 405 76 q 573 157 501 111 m 474 454 q 444 555 470 521 q 342 606 406 606 q 243 568 286 606 q 178 441 199 530 q 216 441 203 441 q 474 454 328 441 m 231 918 q 280 898 260 918 q 300 848 300 877 q 280 798 300 819 q 231 777 259 777 q 181 798 201 777 q 160 848 160 819 q 180 898 160 877 q 231 918 201 918 m 461 917 q 511 897 490 917 q 531 847 531 876 q 511 798 531 819 q 461 777 490 777 q 412 798 433 777 q 392 847 392 819 q 412 897 392 876 q 461 917 432 917 z "},"л":{"ha":636,"x_min":50,"x_max":599,"o":"m 573 157 l 599 117 l 464 17 q 406 -11 436 -2 q 317 -24 363 -24 q 129 65 207 -24 q 50 305 50 154 q 144 566 50 468 q 374 665 238 665 q 536 607 479 665 q 595 429 593 549 q 543 389 566 413 q 482 390 494 390 q 170 385 302 390 q 221 155 169 233 q 361 76 273 76 q 453 93 405 76 q 573 157 501 111 m 474 454 q 444 555 470 521 q 342 606 406 606 q 243 568 286 606 q 178 441 199 530 q 216 441 203 441 q 474 454 328 441 m 231 918 q 280 898 260 918 q 300 848 300 877 q 280 798 300 819 q 231 777 259 777 q 181 798 201 777 q 160 848 160 819 q 180 898 160 877 q 231 918 201 918 m 461 917 q 511 897 490 917 q 531 847 531 876 q 511 798 531 819 q 461 777 490 777 q 412 798 433 777 q 392 847 392 819 q 412 897 392 876 q 461 917 432 917 z "},"í":{"ha":390,"x_min":38,"x_max":370,"o":"m 38 540 l 38 578 q 252 665 152 607 l 270 650 q 256 243 256 507 q 262 91 256 119 q 277 63 267 72 q 347 37 287 55 q 370 31 355 35 l 370 -7 q 224 0 281 0 q 38 -7 189 0 l 38 31 q 141 72 130 53 q 153 267 153 90 l 152 411 l 152 439 q 142 530 152 515 q 109 546 132 546 q 38 540 95 546 m 155 731 l 114 731 q 199 968 160 856 l 275 966 q 336 968 287 966 l 346 955 q 155 731 247 851 z "},"н":{"ha":390,"x_min":38,"x_max":370,"o":"m 38 540 l 38 578 q 252 665 152 607 l 270 650 q 256 243 256 507 q 262 91 256 119 q 277 63 267 72 q 347 37 287 55 q 370 31 355 35 l 370 -7 q 224 0 281 0 q 38 -7 189 0 l 38 31 q 141 72 130 53 q 153 267 153 90 l 152 411 l 152 439 q 142 530 152 515 q 109 546 132 546 q 38 540 95 546 m 155 731 l 114 731 q 199 968 160 856 l 275 966 q 336 968 287 966 l 346 955 q 155 731 247 851 z "},"ì":{"ha":390,"x_min":38,"x_max":370,"o":"m 38 540 l 38 578 q 252 665 152 607 l 270 650 q 256 243 256 507 q 262 91 256 119 q 277 63 267 72 q 347 37 287 55 q 370 31 355 35 l 370 -7 q 224 0 281 0 q 38 -7 189 0 l 38 31 q 141 72 130 53 q 153 267 153 90 l 152 411 l 152 439 q 142 530 152 515 q 109 546 132 546 q 38 540 95 546 m 236 731 q 44 955 143 851 l 54 968 q 120 966 115 966 q 191 968 144 966 q 276 731 230 856 l 236 731 z "},"м":{"ha":390,"x_min":38,"x_max":370,"o":"m 38 540 l 38 578 q 252 665 152 607 l 270 650 q 256 243 256 507 q 262 91 256 119 q 277 63 267 72 q 347 37 287 55 q 370 31 355 35 l 370 -7 q 224 0 281 0 q 38 -7 189 0 l 38 31 q 141 72 130 53 q 153 267 153 90 l 152 411 l 152 439 q 142 530 152 515 q 109 546 132 546 q 38 540 95 546 m 236 731 q 44 955 143 851 l 54 968 q 120 966 115 966 q 191 968 144 966 q 276 731 230 856 l 236 731 z "},"î":{"ha":390,"x_min":-5,"x_max":395,"o":"m 38 540 l 38 578 q 252 665 152 607 l 270 650 q 256 243 256 507 q 262 91 256 119 q 277 63 267 72 q 347 37 287 55 q 370 31 355 35 l 370 -7 q 224 0 281 0 q 38 -7 189 0 l 38 31 q 141 72 130 53 q 153 267 153 90 l 152 411 l 152 439 q 142 530 152 515 q 109 546 132 546 q 38 540 95 546 m 395 739 l 349 739 l 187 864 l 39 739 l -5 739 l 99 898 q 137 955 123 936 l 200 954 q 254 955 210 954 q 395 739 290 897 z "},"о":{"ha":390,"x_min":-5,"x_max":395,"o":"m 38 540 l 38 578 q 252 665 152 607 l 270 650 q 256 243 256 507 q 262 91 256 119 q 277 63 267 72 q 347 37 287 55 q 370 31 355 35 l 370 -7 q 224 0 281 0 q 38 -7 189 0 l 38 31 q 141 72 130 53 q 153 267 153 90 l 152 411 l 152 439 q 142 530 152 515 q 109 546 132 546 q 38 540 95 546 m 395 739 l 349 739 l 187 864 l 39 739 l -5 739 l 99 898 q 137 955 123 936 l 200 954 q 254 955 210 954 q 395 739 290 897 z "},"ï":{"ha":390,"x_min":9,"x_max":380,"o":"m 38 540 l 38 578 q 252 665 152 607 l 270 650 q 256 243 256 507 q 262 91 256 119 q 277 63 267 72 q 347 37 287 55 q 370 31 355 35 l 370 -7 q 224 0 281 0 q 38 -7 189 0 l 38 31 q 141 72 130 53 q 153 267 153 90 l 152 411 l 152 439 q 142 530 152 515 q 109 546 132 546 q 38 540 95 546 m 80 918 q 130 898 109 918 q 150 848 150 877 q 129 798 150 819 q 80 777 109 777 q 30 798 51 777 q 9 848 9 819 q 30 898 9 877 q 80 918 50 918 m 311 917 q 360 897 340 917 q 380 847 380 876 q 360 798 380 819 q 311 777 340 777 q 262 798 282 777 q 241 847 241 819 q 261 897 241 876 q 311 917 281 917 z "},"п":{"ha":390,"x_min":9,"x_max":380,"o":"m 38 540 l 38 578 q 252 665 152 607 l 270 650 q 256 243 256 507 q 262 91 256 119 q 277 63 267 72 q 347 37 287 55 q 370 31 355 35 l 370 -7 q 224 0 281 0 q 38 -7 189 0 l 38 31 q 141 72 130 53 q 153 267 153 90 l 152 411 l 152 439 q 142 530 152 515 q 109 546 132 546 q 38 540 95 546 m 80 918 q 130 898 109 918 q 150 848 150 877 q 129 798 150 819 q 80 777 109 777 q 30 798 51 777 q 9 848 9 819 q 30 898 9 877 q 80 918 50 918 m 311 917 q 360 897 340 917 q 380 847 380 876 q 360 798 380 819 q 311 777 340 777 q 262 798 282 777 q 241 847 241 819 q 261 897 241 876 q 311 917 281 917 z "},"ñ":{"ha":766,"x_min":19,"x_max":757,"o":"m 19 532 l 19 572 q 240 658 141 600 l 258 646 q 247 528 249 589 l 333 613 q 384 643 355 632 q 467 658 424 658 q 614 593 564 658 q 647 446 647 551 l 645 282 q 649 87 645 117 q 662 59 652 67 q 726 38 671 51 q 757 31 736 35 l 757 -7 q 614 0 677 0 q 429 -7 560 0 l 429 31 q 517 62 507 54 q 529 88 527 70 q 536 294 536 155 q 530 472 536 441 q 490 541 521 517 q 417 566 460 566 q 329 539 372 566 q 265 469 286 513 q 244 339 244 425 q 254 75 244 95 q 334 37 264 55 q 359 31 342 35 l 359 -7 q 207 0 269 0 q 29 -7 147 0 l 29 31 q 120 58 109 50 q 130 87 127 64 q 137 262 137 151 q 132 512 137 492 q 92 541 125 541 q 45 536 77 541 q 19 532 37 534 m 566 930 l 609 930 q 548 796 580 827 q 478 765 517 765 q 371 800 445 765 q 267 836 296 836 q 231 821 248 836 q 199 766 214 807 l 157 766 q 220 902 179 859 q 283 930 245 930 q 396 895 323 930 q 500 859 469 859 q 538 872 525 859 q 566 930 552 884 z "},"с":{"ha":766,"x_min":19,"x_max":757,"o":"m 19 532 l 19 572 q 240 658 141 600 l 258 646 q 247 528 249 589 l 333 613 q 384 643 355 632 q 467 658 424 658 q 614 593 564 658 q 647 446 647 551 l 645 282 q 649 87 645 117 q 662 59 652 67 q 726 38 671 51 q 757 31 736 35 l 757 -7 q 614 0 677 0 q 429 -7 560 0 l 429 31 q 517 62 507 54 q 529 88 527 70 q 536 294 536 155 q 530 472 536 441 q 490 541 521 517 q 417 566 460 566 q 329 539 372 566 q 265 469 286 513 q 244 339 244 425 q 254 75 244 95 q 334 37 264 55 q 359 31 342 35 l 359 -7 q 207 0 269 0 q 29 -7 147 0 l 29 31 q 120 58 109 50 q 130 87 127 64 q 137 262 137 151 q 132 512 137 492 q 92 541 125 541 q 45 536 77 541 q 19 532 37 534 m 566 930 l 609 930 q 548 796 580 827 q 478 765 517 765 q 371 800 445 765 q 267 836 296 836 q 231 821 248 836 q 199 766 214 807 l 157 766 q 220 902 179 859 q 283 930 245 930 q 396 895 323 930 q 500 859 469 859 q 538 872 525 859 q 566 930 552 884 z "},"ó":{"ha":753,"x_min":52,"x_max":700,"o":"m 52 309 q 145 569 52 473 q 389 665 238 665 q 616 578 532 665 q 700 338 700 492 q 606 74 700 171 q 363 -24 512 -24 q 135 63 218 -24 q 52 309 52 150 m 182 368 q 197 204 182 257 q 268 76 219 119 q 380 33 316 33 q 517 96 464 33 q 571 300 571 159 q 510 533 571 457 q 368 608 450 608 q 234 549 286 608 q 182 368 182 490 m 336 731 l 295 731 q 380 968 341 856 l 456 966 q 517 968 468 966 l 527 955 q 336 731 428 851 z "},"у":{"ha":753,"x_min":52,"x_max":700,"o":"m 52 309 q 145 569 52 473 q 389 665 238 665 q 616 578 532 665 q 700 338 700 492 q 606 74 700 171 q 363 -24 512 -24 q 135 63 218 -24 q 52 309 52 150 m 182 368 q 197 204 182 257 q 268 76 219 119 q 380 33 316 33 q 517 96 464 33 q 571 300 571 159 q 510 533 571 457 q 368 608 450 608 q 234 549 286 608 q 182 368 182 490 m 336 731 l 295 731 q 380 968 341 856 l 456 966 q 517 968 468 966 l 527 955 q 336 731 428 851 z "},"ò":{"ha":753,"x_min":52,"x_max":700,"o":"m 52 309 q 145 569 52 473 q 389 665 238 665 q 616 578 532 665 q 700 338 700 492 q 606 74 700 171 q 363 -24 512 -24 q 135 63 218 -24 q 52 309 52 150 m 182 368 q 197 204 182 257 q 268 76 219 119 q 380 33 316 33 q 517 96 464 33 q 571 300 571 159 q 510 533 571 457 q 368 608 450 608 q 234 549 286 608 q 182 368 182 490 m 417 731 q 225 955 324 851 l 235 968 q 301 966 296 966 q 372 968 325 966 q 457 731 411 856 l 417 731 z "},"т":{"ha":753,"x_min":52,"x_max":700,"o":"m 52 309 q 145 569 52 473 q 389 665 238 665 q 616 578 532 665 q 700 338 700 492 q 606 74 700 171 q 363 -24 512 -24 q 135 63 218 -24 q 52 309 52 150 m 182 368 q 197 204 182 257 q 268 76 219 119 q 380 33 316 33 q 517 96 464 33 q 571 300 571 159 q 510 533 571 457 q 368 608 450 608 q 234 549 286 608 q 182 368 182 490 m 417 731 q 225 955 324 851 l 235 968 q 301 966 296 966 q 372 968 325 966 q 457 731 411 856 l 417 731 z "},"ô":{"ha":753,"x_min":52,"x_max":700,"o":"m 52 309 q 145 569 52 473 q 389 665 238 665 q 616 578 532 665 q 700 338 700 492 q 606 74 700 171 q 363 -24 512 -24 q 135 63 218 -24 q 52 309 52 150 m 182 368 q 197 204 182 257 q 268 76 219 119 q 380 33 316 33 q 517 96 464 33 q 571 300 571 159 q 510 533 571 457 q 368 608 450 608 q 234 549 286 608 q 182 368 182 490 m 576 739 l 530 739 l 368 864 l 220 739 l 176 739 l 280 898 q 318 955 304 936 l 381 954 q 435 955 391 954 q 576 739 471 897 z "},"ф":{"ha":753,"x_min":52,"x_max":700,"o":"m 52 309 q 145 569 52 473 q 389 665 238 665 q 616 578 532 665 q 700 338 700 492 q 606 74 700 171 q 363 -24 512 -24 q 135 63 218 -24 q 52 309 52 150 m 182 368 q 197 204 182 257 q 268 76 219 119 q 380 33 316 33 q 517 96 464 33 q 571 300 571 159 q 510 533 571 457 q 368 608 450 608 q 234 549 286 608 q 182 368 182 490 m 576 739 l 530 739 l 368 864 l 220 739 l 176 739 l 280 898 q 318 955 304 936 l 381 954 q 435 955 391 954 q 576 739 471 897 z "},"ö":{"ha":753,"x_min":52,"x_max":700,"o":"m 52 309 q 145 569 52 473 q 389 665 238 665 q 616 578 532 665 q 700 338 700 492 q 606 74 700 171 q 363 -24 512 -24 q 135 63 218 -24 q 52 309 52 150 m 182 368 q 197 204 182 257 q 268 76 219 119 q 380 33 316 33 q 517 96 464 33 q 571 300 571 159 q 510 533 571 457 q 368 608 450 608 q 234 549 286 608 q 182 368 182 490 m 261 918 q 311 898 290 918 q 331 848 331 877 q 310 798 331 819 q 261 777 290 777 q 211 798 232 777 q 191 848 191 819 q 211 898 191 877 q 261 918 231 918 m 492 917 q 541 897 521 917 q 562 847 562 876 q 541 798 562 819 q 492 777 521 777 q 443 798 463 777 q 422 847 422 819 q 443 897 422 876 q 492 917 463 917 z "},"ц":{"ha":753,"x_min":52,"x_max":700,"o":"m 52 309 q 145 569 52 473 q 389 665 238 665 q 616 578 532 665 q 700 338 700 492 q 606 74 700 171 q 363 -24 512 -24 q 135 63 218 -24 q 52 309 52 150 m 182 368 q 197 204 182 257 q 268 76 219 119 q 380 33 316 33 q 517 96 464 33 q 571 300 571 159 q 510 533 571 457 q 368 608 450 608 q 234 549 286 608 q 182 368 182 490 m 261 918 q 311 898 290 918 q 331 848 331 877 q 310 798 331 819 q 261 777 290 777 q 211 798 232 777 q 191 848 191 819 q 211 898 191 877 q 261 918 231 918 m 492 917 q 541 897 521 917 q 562 847 562 876 q 541 798 562 819 q 492 777 521 777 q 443 798 463 777 q 422 847 422 819 q 443 897 422 876 q 492 917 463 917 z "},"õ":{"ha":753,"x_min":52,"x_max":700,"o":"m 52 309 q 145 569 52 473 q 389 665 238 665 q 616 578 532 665 q 700 338 700 492 q 606 74 700 171 q 363 -24 512 -24 q 135 63 218 -24 q 52 309 52 150 m 182 368 q 197 204 182 257 q 268 76 219 119 q 380 33 316 33 q 517 96 464 33 q 571 300 571 159 q 510 533 571 457 q 368 608 450 608 q 234 549 286 608 q 182 368 182 490 m 559 930 l 602 930 q 541 796 572 827 q 471 765 509 765 q 363 800 437 765 q 260 836 289 836 q 224 821 241 836 q 191 766 207 807 l 150 766 q 212 902 172 859 q 275 930 238 930 q 389 895 316 930 q 493 859 461 859 q 531 872 517 859 q 559 930 545 884 z "},"х":{"ha":753,"x_min":52,"x_max":700,"o":"m 52 309 q 145 569 52 473 q 389 665 238 665 q 616 578 532 665 q 700 338 700 492 q 606 74 700 171 q 363 -24 512 -24 q 135 63 218 -24 q 52 309 52 150 m 182 368 q 197 204 182 257 q 268 76 219 119 q 380 33 316 33 q 517 96 464 33 q 571 300 571 159 q 510 533 571 457 q 368 608 450 608 q 234 549 286 608 q 182 368 182 490 m 559 930 l 602 930 q 541 796 572 827 q 471 765 509 765 q 363 800 437 765 q 260 836 289 836 q 224 821 241 836 q 191 766 207 807 l 150 766 q 212 902 172 859 q 275 930 238 930 q 389 895 316 930 q 493 859 461 859 q 531 872 517 859 q 559 930 545 884 z "},"ú":{"ha":766,"x_min":5,"x_max":751,"o":"m 5 578 l 5 616 q 232 646 128 623 l 249 633 q 235 348 235 515 q 244 162 235 202 q 283 98 253 121 q 357 75 314 75 q 449 102 406 75 q 509 169 492 128 q 526 294 526 210 q 522 523 526 304 q 504 562 518 552 q 427 576 490 572 l 403 578 l 403 616 q 629 646 548 627 l 647 633 q 638 492 641 576 q 635 295 635 408 q 642 127 635 153 q 680 100 650 100 q 751 109 698 100 l 751 71 q 634 33 682 52 q 532 -17 586 14 l 512 -2 q 522 98 521 48 q 402 3 442 24 q 313 -17 362 -17 q 173 29 219 -17 q 126 168 126 75 l 126 406 q 112 551 125 532 q 28 575 98 570 q 5 578 20 576 m 343 731 l 302 731 q 388 968 349 856 l 464 966 q 525 968 475 966 l 534 955 q 343 731 435 851 z "},"ъ":{"ha":766,"x_min":5,"x_max":751,"o":"m 5 578 l 5 616 q 232 646 128 623 l 249 633 q 235 348 235 515 q 244 162 235 202 q 283 98 253 121 q 357 75 314 75 q 449 102 406 75 q 509 169 492 128 q 526 294 526 210 q 522 523 526 304 q 504 562 518 552 q 427 576 490 572 l 403 578 l 403 616 q 629 646 548 627 l 647 633 q 638 492 641 576 q 635 295 635 408 q 642 127 635 153 q 680 100 650 100 q 751 109 698 100 l 751 71 q 634 33 682 52 q 532 -17 586 14 l 512 -2 q 522 98 521 48 q 402 3 442 24 q 313 -17 362 -17 q 173 29 219 -17 q 126 168 126 75 l 126 406 q 112 551 125 532 q 28 575 98 570 q 5 578 20 576 m 343 731 l 302 731 q 388 968 349 856 l 464 966 q 525 968 475 966 l 534 955 q 343 731 435 851 z "},"ù":{"ha":766,"x_min":5,"x_max":751,"o":"m 5 578 l 5 616 q 232 646 128 623 l 249 633 q 235 348 235 515 q 244 162 235 202 q 283 98 253 121 q 357 75 314 75 q 449 102 406 75 q 509 169 492 128 q 526 294 526 210 q 522 523 526 304 q 504 562 518 552 q 427 576 490 572 l 403 578 l 403 616 q 629 646 548 627 l 647 633 q 638 492 641 576 q 635 295 635 408 q 642 127 635 153 q 680 100 650 100 q 751 109 698 100 l 751 71 q 634 33 682 52 q 532 -17 586 14 l 512 -2 q 522 98 521 48 q 402 3 442 24 q 313 -17 362 -17 q 173 29 219 -17 q 126 168 126 75 l 126 406 q 112 551 125 532 q 28 575 98 570 q 5 578 20 576 m 425 731 q 233 955 332 851 l 242 968 q 309 966 304 966 q 380 968 332 966 q 465 731 418 856 l 425 731 z "},"щ":{"ha":766,"x_min":5,"x_max":751,"o":"m 5 578 l 5 616 q 232 646 128 623 l 249 633 q 235 348 235 515 q 244 162 235 202 q 283 98 253 121 q 357 75 314 75 q 449 102 406 75 q 509 169 492 128 q 526 294 526 210 q 522 523 526 304 q 504 562 518 552 q 427 576 490 572 l 403 578 l 403 616 q 629 646 548 627 l 647 633 q 638 492 641 576 q 635 295 635 408 q 642 127 635 153 q 680 100 650 100 q 751 109 698 100 l 751 71 q 634 33 682 52 q 532 -17 586 14 l 512 -2 q 522 98 521 48 q 402 3 442 24 q 313 -17 362 -17 q 173 29 219 -17 q 126 168 126 75 l 126 406 q 112 551 125 532 q 28 575 98 570 q 5 578 20 576 m 425 731 q 233 955 332 851 l 242 968 q 309 966 304 966 q 380 968 332 966 q 465 731 418 856 l 425 731 z "},"û":{"ha":766,"x_min":5,"x_max":751,"o":"m 5 578 l 5 616 q 232 646 128 623 l 249 633 q 235 348 235 515 q 244 162 235 202 q 283 98 253 121 q 357 75 314 75 q 449 102 406 75 q 509 169 492 128 q 526 294 526 210 q 522 523 526 304 q 504 562 518 552 q 427 576 490 572 l 403 578 l 403 616 q 629 646 548 627 l 647 633 q 638 492 641 576 q 635 295 635 408 q 642 127 635 153 q 680 100 650 100 q 751 109 698 100 l 751 71 q 634 33 682 52 q 532 -17 586 14 l 512 -2 q 522 98 521 48 q 402 3 442 24 q 313 -17 362 -17 q 173 29 219 -17 q 126 168 126 75 l 126 406 q 112 551 125 532 q 28 575 98 570 q 5 578 20 576 m 583 739 l 537 739 l 376 864 l 227 739 l 183 739 l 288 898 q 326 955 312 936 l 389 954 q 442 955 399 954 q 583 739 478 897 z "},"ы":{"ha":766,"x_min":5,"x_max":751,"o":"m 5 578 l 5 616 q 232 646 128 623 l 249 633 q 235 348 235 515 q 244 162 235 202 q 283 98 253 121 q 357 75 314 75 q 449 102 406 75 q 509 169 492 128 q 526 294 526 210 q 522 523 526 304 q 504 562 518 552 q 427 576 490 572 l 403 578 l 403 616 q 629 646 548 627 l 647 633 q 638 492 641 576 q 635 295 635 408 q 642 127 635 153 q 680 100 650 100 q 751 109 698 100 l 751 71 q 634 33 682 52 q 532 -17 586 14 l 512 -2 q 522 98 521 48 q 402 3 442 24 q 313 -17 362 -17 q 173 29 219 -17 q 126 168 126 75 l 126 406 q 112 551 125 532 q 28 575 98 570 q 5 578 20 576 m 583 739 l 537 739 l 376 864 l 227 739 l 183 739 l 288 898 q 326 955 312 936 l 389 954 q 442 955 399 954 q 583 739 478 897 z "},"ü":{"ha":766,"x_min":5,"x_max":751,"o":"m 5 578 l 5 616 q 232 646 128 623 l 249 633 q 235 348 235 515 q 244 162 235 202 q 283 98 253 121 q 357 75 314 75 q 449 102 406 75 q 509 169 492 128 q 526 294 526 210 q 522 523 526 304 q 504 562 518 552 q 427 576 490 572 l 403 578 l 403 616 q 629 646 548 627 l 647 633 q 638 492 641 576 q 635 295 635 408 q 642 127 635 153 q 680 100 650 100 q 751 109 698 100 l 751 71 q 634 33 682 52 q 532 -17 586 14 l 512 -2 q 522 98 521 48 q 402 3 442 24 q 313 -17 362 -17 q 173 29 219 -17 q 126 168 126 75 l 126 406 q 112 551 125 532 q 28 575 98 570 q 5 578 20 576 m 269 918 q 318 898 298 918 q 338 848 338 877 q 318 798 338 819 q 269 777 297 777 q 219 798 239 777 q 198 848 198 819 q 218 898 198 877 q 269 918 239 918 m 499 917 q 549 897 528 917 q 569 847 569 876 q 549 798 569 819 q 499 777 528 777 q 450 798 471 777 q 430 847 430 819 q 450 897 430 876 q 499 917 470 917 z "},"ь":{"ha":766,"x_min":5,"x_max":751,"o":"m 5 578 l 5 616 q 232 646 128 623 l 249 633 q 235 348 235 515 q 244 162 235 202 q 283 98 253 121 q 357 75 314 75 q 449 102 406 75 q 509 169 492 128 q 526 294 526 210 q 522 523 526 304 q 504 562 518 552 q 427 576 490 572 l 403 578 l 403 616 q 629 646 548 627 l 647 633 q 638 492 641 576 q 635 295 635 408 q 642 127 635 153 q 680 100 650 100 q 751 109 698 100 l 751 71 q 634 33 682 52 q 532 -17 586 14 l 512 -2 q 522 98 521 48 q 402 3 442 24 q 313 -17 362 -17 q 173 29 219 -17 q 126 168 126 75 l 126 406 q 112 551 125 532 q 28 575 98 570 q 5 578 20 576 m 269 918 q 318 898 298 918 q 338 848 338 877 q 318 798 338 819 q 269 777 297 777 q 219 798 239 777 q 198 848 198 819 q 218 898 198 877 q 269 918 239 918 m 499 917 q 549 897 528 917 q 569 847 569 876 q 549 798 569 819 q 499 777 528 777 q 450 798 471 777 q 430 847 430 819 q 450 897 430 876 q 499 917 470 917 z "},"†":{"ha":652,"x_min":41,"x_max":612,"o":"m 252 989 l 407 989 q 352 675 387 901 q 612 717 445 686 l 612 582 l 460 610 q 355 626 417 618 q 381 -25 361 322 q 400 -291 391 -208 l 245 -291 q 265 -52 256 -185 l 280 189 l 299 626 q 41 582 176 608 l 41 717 l 199 690 q 304 675 220 686 q 268 895 288 785 q 252 989 256 959 z "},"°":{"ha":550,"x_min":66,"x_max":484,"o":"m 275 940 q 423 879 362 940 q 484 731 484 818 q 422 584 484 645 q 275 523 361 523 q 127 584 189 523 q 66 731 66 645 q 127 879 66 818 q 275 940 188 940 m 275 883 q 168 839 212 883 q 123 732 123 795 q 168 625 123 669 q 275 581 212 581 q 381 625 337 581 q 426 732 426 669 q 382 839 426 795 q 275 883 338 883 z "},"¢":{"ha":623,"x_min":42,"x_max":591,"o":"m 370 755 l 370 233 q 565 300 460 239 l 591 257 q 370 134 438 144 l 370 -24 l 306 -24 l 306 132 q 117 224 191 139 q 42 449 42 309 q 116 683 42 585 q 306 810 191 781 l 306 970 l 370 970 l 370 819 q 391 820 383 820 q 591 764 481 820 q 551 585 566 661 l 506 585 q 469 709 504 669 q 370 755 434 749 m 306 750 q 204 678 240 732 q 158 498 158 608 q 201 328 158 395 q 306 240 243 261 l 306 750 z "},"£":{"ha":737,"x_min":57,"x_max":721,"o":"m 83 -28 l 57 21 q 205 165 167 97 q 244 340 244 233 q 233 469 244 397 q 94 458 165 469 l 83 469 q 117 536 102 503 q 225 533 168 533 q 210 680 210 621 q 293 888 210 804 q 501 971 377 971 q 700 893 609 971 q 627 755 657 828 l 589 764 q 556 879 588 844 q 475 914 525 914 q 375 871 415 914 q 336 745 336 828 q 356 533 336 687 q 544 538 497 534 l 552 526 q 517 458 532 495 q 361 469 448 467 q 368 359 368 405 q 344 227 368 273 q 225 94 320 180 q 353 134 303 134 q 455 111 389 134 q 548 87 522 87 q 600 100 578 87 q 687 176 631 119 l 721 144 q 632 39 647 54 q 564 -18 593 -3 q 521 -28 545 -28 q 391 6 479 -28 q 260 41 304 41 q 83 -28 194 41 z "},"§":{"ha":608,"x_min":50,"x_max":559,"o":"m 138 -70 l 180 -86 q 172 -138 172 -120 q 205 -209 172 -179 q 286 -239 237 -239 q 373 -206 339 -239 q 408 -123 408 -173 q 384 -53 408 -87 q 251 68 359 -18 q 79 240 123 172 q 50 343 50 287 q 90 470 50 410 q 224 594 130 530 q 111 704 132 671 q 90 782 90 737 q 156 928 90 866 q 326 989 222 989 q 445 966 389 989 q 548 897 500 943 q 473 758 505 826 l 427 779 q 434 833 434 813 q 404 908 434 879 q 322 937 374 937 q 236 902 271 937 q 201 823 201 868 q 227 753 201 788 q 370 618 251 717 q 524 461 488 519 q 559 345 559 403 q 390 100 559 211 q 493 -11 466 33 q 520 -90 520 -54 q 451 -229 520 -166 q 277 -291 382 -291 q 60 -198 154 -291 q 138 -70 102 -136 m 348 133 q 425 225 401 182 q 449 313 449 268 q 412 412 449 356 q 264 561 376 467 q 157 382 157 476 q 193 286 157 339 q 348 133 229 233 z "},"•":{"ha":492,"x_min":76,"x_max":416,"o":"m 416 459 q 367 339 416 389 q 246 289 317 289 q 126 339 176 289 q 76 459 76 389 q 126 579 76 530 q 246 629 176 629 q 367 579 317 629 q 416 459 416 530 z "},"¶":{"ha":623,"x_min":-9,"x_max":631,"o":"m 541 882 l 541 -300 l 492 -300 l 492 882 l 366 882 l 366 -300 l 316 -300 l 316 408 q 122 442 186 413 q 24 531 58 471 q -9 665 -9 591 q 20 787 -9 740 q 124 886 59 852 q 296 920 190 920 l 631 920 l 631 882 l 541 882 z "},"ß":{"ha":766,"x_min":27,"x_max":722,"o":"m 36 564 l 36 595 q 134 643 87 613 q 132 705 132 683 q 224 914 132 838 q 441 989 316 989 q 571 946 524 989 q 618 840 618 903 q 588 733 618 785 q 498 636 557 681 q 439 571 439 591 q 456 542 439 561 q 550 459 492 503 q 687 326 652 382 q 722 212 722 269 q 652 51 722 119 q 481 -17 583 -17 q 321 20 408 -17 q 351 172 340 92 l 395 172 q 432 77 401 109 q 510 45 464 45 q 587 77 555 45 q 618 160 618 110 q 590 253 618 207 q 476 368 562 298 q 349 479 368 454 q 330 524 330 504 q 382 608 330 555 q 487 734 461 686 q 507 813 507 771 q 473 894 507 861 q 387 926 439 926 q 309 905 340 926 q 264 847 279 883 q 245 724 250 812 q 242 475 244 699 l 243 270 q 247 -7 243 75 q 144 0 186 0 q 27 -7 104 0 l 27 33 q 107 55 98 49 q 122 71 117 61 q 129 104 127 80 q 133 328 132 140 l 134 569 q 36 564 88 568 z "},"Я":{"ha":766,"x_min":27,"x_max":722,"o":"m 36 564 l 36 595 q 134 643 87 613 q 132 705 132 683 q 224 914 132 838 q 441 989 316 989 q 571 946 524 989 q 618 840 618 903 q 588 733 618 785 q 498 636 557 681 q 439 571 439 591 q 456 542 439 561 q 550 459 492 503 q 687 326 652 382 q 722 212 722 269 q 652 51 722 119 q 481 -17 583 -17 q 321 20 408 -17 q 351 172 340 92 l 395 172 q 432 77 401 109 q 510 45 464 45 q 587 77 555 45 q 618 160 618 110 q 590 253 618 207 q 476 368 562 298 q 349 479 368 454 q 330 524 330 504 q 382 608 330 555 q 487 734 461 686 q 507 813 507 771 q 473 894 507 861 q 387 926 439 926 q 309 905 340 926 q 264 847 279 883 q 245 724 250 812 q 242 475 244 699 l 243 270 q 247 -7 243 75 q 144 0 186 0 q 27 -7 104 0 l 27 33 q 107 55 98 49 q 122 71 117 61 q 129 104 127 80 q 133 328 132 140 l 134 569 q 36 564 88 568 z "},"®":{"ha":1055,"x_min":47,"x_max":1009,"o":"m 528 941 q 764 879 649 941 q 944 701 880 817 q 1009 460 1009 585 q 945 220 1009 335 q 767 42 882 106 q 528 -21 652 -21 q 289 42 403 -21 q 111 220 174 106 q 47 460 47 335 q 112 701 47 585 q 292 879 176 817 q 528 941 407 941 m 528 899 q 312 842 417 899 q 148 680 207 785 q 89 460 89 574 q 147 241 89 346 q 309 79 205 137 q 528 20 414 20 q 746 79 642 20 q 909 241 851 137 q 967 460 967 346 q 908 680 967 574 q 744 842 849 785 q 528 899 639 899 m 262 755 l 524 755 q 673 711 622 755 q 725 604 725 667 q 690 513 725 552 q 574 453 655 474 l 716 251 q 762 201 742 215 q 798 191 775 193 l 798 169 l 673 169 l 474 444 l 422 444 l 422 234 q 442 201 427 212 q 503 191 457 191 l 503 169 l 254 169 l 254 191 q 301 200 288 191 q 321 227 315 209 q 324 285 324 235 l 324 640 q 322 699 324 690 q 305 723 317 714 q 262 731 292 731 l 262 755 m 422 473 q 574 507 532 473 q 616 596 616 542 q 577 688 616 651 q 479 726 539 726 q 422 715 454 726 l 422 473 z "},"©":{"ha":1055,"x_min":47,"x_max":1009,"o":"m 528 941 q 764 879 649 941 q 944 701 880 817 q 1009 460 1009 585 q 945 220 1009 335 q 767 42 882 106 q 528 -21 652 -21 q 289 42 403 -21 q 111 220 174 106 q 47 460 47 335 q 112 701 47 585 q 292 879 176 817 q 528 941 407 941 m 528 899 q 312 842 417 899 q 148 680 207 785 q 89 460 89 574 q 147 241 89 346 q 309 79 205 137 q 528 20 414 20 q 746 79 642 20 q 909 241 851 137 q 967 460 967 346 q 908 680 967 574 q 744 842 849 785 q 528 899 639 899 m 766 769 l 779 579 l 753 579 q 675 700 728 660 q 547 739 622 739 q 448 716 491 739 q 377 654 404 693 q 343 577 357 625 q 330 475 330 529 q 391 263 330 332 q 554 195 453 195 q 766 305 686 195 l 791 292 q 531 155 696 155 q 306 242 395 155 q 217 456 217 330 q 312 678 217 586 q 555 770 407 770 q 607 766 586 770 q 680 744 627 762 q 705 739 697 739 q 724 744 716 739 q 739 769 731 750 l 766 769 z "},"™":{"ha":1360,"x_min":20,"x_max":1338,"o":"m 35 920 l 528 920 l 543 783 l 520 783 q 485 856 513 832 q 389 879 456 879 l 338 879 l 338 486 q 351 414 338 429 q 410 397 365 399 l 410 372 l 156 372 l 156 397 q 212 415 200 401 q 224 486 224 430 l 224 879 l 172 879 q 81 858 108 879 q 43 783 54 836 l 20 783 l 35 920 m 784 920 l 969 532 l 1149 920 l 1338 920 l 1338 895 q 1276 877 1290 893 q 1263 803 1263 861 l 1263 486 q 1276 414 1263 428 q 1338 397 1289 399 l 1338 372 l 1068 372 l 1068 397 q 1122 405 1108 397 q 1142 427 1136 412 q 1149 485 1149 441 l 1149 819 l 941 372 l 919 372 l 710 812 l 710 486 q 713 431 710 442 q 732 405 720 414 q 773 397 745 397 l 798 397 l 798 372 l 590 372 l 590 397 q 641 404 628 397 q 661 425 654 410 q 667 486 667 439 l 667 802 q 653 878 667 862 q 590 895 640 895 l 590 920 l 784 920 z "},"´":{"ha":463,"x_min":151,"x_max":382,"o":"m 191 731 l 151 731 q 236 968 197 856 l 312 966 q 373 968 323 966 l 382 955 q 191 731 283 851 z "},"¨":{"ha":463,"x_min":46,"x_max":417,"o":"m 117 918 q 166 898 146 918 q 186 848 186 877 q 166 798 186 819 q 117 777 145 777 q 67 798 87 777 q 46 848 46 819 q 66 898 46 877 q 117 918 87 918 m 347 917 q 397 897 376 917 q 417 847 417 876 q 397 798 417 819 q 347 777 376 777 q 298 798 319 777 q 278 847 278 819 q 298 897 278 876 q 347 917 318 917 z "},"≠":{"ha":791,"x_min":26,"x_max":768,"o":"m 26 585 l 433 585 l 574 943 l 665 943 l 526 585 l 768 585 l 768 479 l 485 479 l 401 265 l 768 265 l 768 159 l 360 159 l 219 -198 l 127 -198 l 268 159 l 26 159 l 26 265 l 309 265 l 393 479 l 26 479 l 26 585 z "},"Æ":{"ha":1504,"x_min":-9,"x_max":1457,"o":"m 1372 955 q 1388 720 1374 850 l 1339 720 q 1279 863 1299 844 q 1196 882 1259 882 l 897 882 q 891 529 892 740 l 1074 529 q 1169 536 1151 529 q 1192 556 1183 541 q 1217 641 1201 571 q 1223 669 1219 650 l 1270 669 q 1261 524 1261 570 l 1270 323 l 1223 323 q 1218 351 1220 341 q 1182 452 1205 440 q 1044 465 1160 465 l 891 465 q 897 66 892 201 l 1182 66 q 1299 84 1273 66 q 1391 216 1326 102 q 1410 248 1397 227 l 1457 248 q 1372 -7 1422 149 q 921 0 1135 0 q 609 -7 771 0 l 609 33 q 641 39 630 37 q 747 66 730 51 q 760 120 760 78 l 761 186 l 763 330 q 595 333 669 333 q 385 330 512 333 l 238 121 q 214 78 214 88 q 224 61 214 68 q 302 37 235 53 q 318 33 307 36 l 318 -7 q 134 0 179 0 q -9 -7 66 0 l -9 33 q 67 51 51 42 q 116 97 83 60 q 199 203 163 150 l 212 222 l 636 817 q 663 867 663 854 q 656 879 663 875 q 520 915 651 882 l 520 955 q 890 947 662 947 q 1372 955 1162 947 m 763 398 l 763 881 l 431 398 l 763 398 z "},"Ж":{"ha":1504,"x_min":-9,"x_max":1457,"o":"m 1372 955 q 1388 720 1374 850 l 1339 720 q 1279 863 1299 844 q 1196 882 1259 882 l 897 882 q 891 529 892 740 l 1074 529 q 1169 536 1151 529 q 1192 556 1183 541 q 1217 641 1201 571 q 1223 669 1219 650 l 1270 669 q 1261 524 1261 570 l 1270 323 l 1223 323 q 1218 351 1220 341 q 1182 452 1205 440 q 1044 465 1160 465 l 891 465 q 897 66 892 201 l 1182 66 q 1299 84 1273 66 q 1391 216 1326 102 q 1410 248 1397 227 l 1457 248 q 1372 -7 1422 149 q 921 0 1135 0 q 609 -7 771 0 l 609 33 q 641 39 630 37 q 747 66 730 51 q 760 120 760 78 l 761 186 l 763 330 q 595 333 669 333 q 385 330 512 333 l 238 121 q 214 78 214 88 q 224 61 214 68 q 302 37 235 53 q 318 33 307 36 l 318 -7 q 134 0 179 0 q -9 -7 66 0 l -9 33 q 67 51 51 42 q 116 97 83 60 q 199 203 163 150 l 212 222 l 636 817 q 663 867 663 854 q 656 879 663 875 q 520 915 651 882 l 520 955 q 890 947 662 947 q 1372 955 1162 947 m 763 398 l 763 881 l 431 398 l 763 398 z "},"Ø":{"ha":1100,"x_min":64,"x_max":1036,"o":"m 175 119 q 66 460 66 248 q 210 832 66 689 q 578 975 353 975 q 882 878 762 975 l 987 990 l 1036 942 l 930 829 q 1036 502 1036 703 q 897 114 1036 256 q 529 -28 758 -28 q 225 70 343 -28 l 115 -48 l 64 0 l 175 119 m 269 220 l 801 791 q 691 881 756 851 q 551 910 625 910 q 370 857 450 910 q 252 701 289 803 q 215 474 215 599 q 269 220 215 330 m 838 729 l 308 159 q 418 70 352 101 q 561 39 484 39 q 737 92 660 39 q 853 245 814 144 q 892 471 892 346 q 838 729 892 619 z "},"Ш":{"ha":1100,"x_min":64,"x_max":1036,"o":"m 175 119 q 66 460 66 248 q 210 832 66 689 q 578 975 353 975 q 882 878 762 975 l 987 990 l 1036 942 l 930 829 q 1036 502 1036 703 q 897 114 1036 256 q 529 -28 758 -28 q 225 70 343 -28 l 115 -48 l 64 0 l 175 119 m 269 220 l 801 791 q 691 881 756 851 q 551 910 625 910 q 370 857 450 910 q 252 701 289 803 q 215 474 215 599 q 269 220 215 330 m 838 729 l 308 159 q 418 70 352 101 q 561 39 484 39 q 737 92 660 39 q 853 245 814 144 q 892 471 892 346 q 838 729 892 619 z "},"∞":{"ha":990,"x_min":33,"x_max":951,"o":"m 440 452 q 541 599 486 558 q 691 640 596 640 q 876 562 800 640 q 951 357 951 483 q 878 153 951 233 q 714 73 804 73 q 589 122 647 73 q 486 267 551 155 q 391 145 442 182 q 266 109 339 109 q 101 178 168 109 q 33 359 33 248 q 96 539 33 471 q 241 608 158 608 q 345 577 300 608 q 440 452 389 547 m 505 315 q 606 173 556 209 q 717 136 655 136 q 856 196 800 136 q 912 357 912 256 q 853 522 912 457 q 721 587 794 587 q 639 564 674 587 q 576 488 604 540 q 505 315 559 457 m 420 400 q 345 510 387 475 q 239 545 302 545 q 119 495 168 545 q 71 359 71 444 q 118 215 71 269 q 227 161 166 161 q 340 219 291 161 q 420 400 372 257 z "},"±":{"ha":926,"x_min":94,"x_max":832,"o":"m 94 608 l 418 608 l 418 932 l 508 932 l 508 608 l 832 608 l 832 518 l 508 518 l 508 194 l 418 194 l 418 518 l 94 518 l 94 608 m 94 59 l 832 59 l 832 -31 l 94 -31 l 94 59 z "},"≤":{"ha":783,"x_min":26,"x_max":755,"o":"m 754 167 l 26 476 l 26 532 l 754 840 l 754 771 l 110 505 l 754 236 l 754 167 m 26 -47 l 755 -47 l 755 -111 l 26 -111 l 26 -47 z "},"≥":{"ha":783,"x_min":26,"x_max":755,"o":"m 26 840 l 754 531 l 754 475 l 26 167 l 26 236 l 671 503 l 26 771 l 26 840 m 26 -47 l 755 -47 l 755 -111 l 26 -111 l 26 -47 z "},"¥":{"ha":1042,"x_min":16,"x_max":1029,"o":"m 414 463 l 56 463 l 56 526 l 372 526 l 275 671 l 56 671 l 56 734 l 233 734 q 151 852 162 838 q 115 882 136 869 q 16 915 85 898 l 16 955 q 206 947 123 947 q 406 955 288 947 l 406 915 q 316 886 328 895 q 304 868 304 878 q 345 791 304 856 q 381 734 357 772 l 706 734 q 743 797 730 777 q 785 875 785 861 q 777 888 785 884 q 682 915 755 902 l 682 955 q 863 947 806 947 q 1029 955 930 947 l 1029 915 q 924 884 956 901 q 871 841 893 867 q 797 734 861 829 l 988 734 l 988 671 l 755 671 q 662 526 738 644 l 988 526 l 988 463 l 622 463 l 585 404 q 584 364 584 370 q 587 104 584 128 q 602 69 589 80 q 715 37 621 54 q 739 33 724 36 l 739 -7 q 535 0 613 0 q 304 -7 473 0 l 304 33 q 339 39 328 37 q 441 66 423 53 q 456 107 451 75 q 462 298 462 140 l 461 389 l 414 463 m 420 671 l 547 471 l 668 671 l 420 671 z "},"µ":{"ha":694,"x_min":38,"x_max":689,"o":"m 80 621 l 191 621 l 191 260 q 210 110 191 144 q 288 64 236 64 q 368 87 328 64 q 448 155 408 110 l 448 621 l 559 621 l 559 178 q 572 74 559 93 q 606 54 585 54 q 635 69 623 54 q 661 138 653 90 l 689 138 q 646 19 683 56 q 555 -19 610 -19 q 482 10 510 -19 q 448 110 454 39 q 338 11 389 41 q 235 -19 287 -19 q 173 -5 199 -19 q 130 39 153 6 q 129 7 129 18 q 152 -155 129 -45 q 161 -224 161 -196 q 142 -279 161 -258 q 98 -300 123 -300 q 55 -280 72 -300 q 38 -224 38 -260 q 58 -114 38 -195 q 73 -43 71 -60 q 81 83 81 26 l 80 129 l 80 621 z "},"∂":{"ha":680,"x_min":41,"x_max":672,"o":"m 627 486 q 635 612 635 563 q 571 801 635 734 q 401 868 507 868 q 281 841 329 868 q 197 760 234 814 l 165 760 q 278 916 218 867 q 424 964 338 964 q 543 931 485 964 q 636 824 601 898 q 672 624 672 750 q 568 193 672 384 q 271 -21 450 -21 q 103 40 165 -21 q 41 206 41 101 q 72 362 41 286 q 152 491 104 438 q 259 575 200 544 q 415 616 336 616 q 516 594 471 616 q 590 543 561 573 q 627 486 608 524 m 616 426 q 537 540 589 501 q 421 578 484 578 q 301 536 360 578 q 199 389 242 494 q 155 178 155 283 q 193 59 155 101 q 288 18 230 18 q 458 106 371 18 q 616 426 568 218 z "},"∑":{"ha":990,"x_min":29,"x_max":963,"o":"m 920 -300 l 29 -300 l 29 -275 l 483 336 l 29 938 l 29 963 l 896 963 l 914 734 l 887 734 q 834 868 876 828 q 718 908 793 908 l 216 908 l 597 395 l 171 -180 l 726 -180 q 829 -161 773 -180 q 893 -116 868 -149 q 936 -13 919 -83 l 963 -18 l 920 -300 z "},"∏":{"ha":1143,"x_min":31,"x_max":1112,"o":"m 841 975 l 302 975 l 302 -7 q 327 -88 302 -64 q 412 -113 352 -113 l 436 -113 l 436 -138 l 31 -138 l 31 -113 l 55 -113 q 142 -86 119 -113 q 165 -7 165 -60 l 165 897 q 140 978 165 954 q 55 1002 115 1002 l 31 1002 l 31 1028 l 1112 1028 l 1112 1002 l 1088 1002 q 1002 976 1025 1002 q 979 897 979 950 l 979 -7 q 1004 -88 979 -64 q 1088 -113 1029 -113 l 1112 -113 l 1112 -138 l 707 -138 l 707 -113 l 731 -113 q 818 -86 795 -113 q 841 -7 841 -60 l 841 975 z "},"π":{"ha":739,"x_min":31,"x_max":683,"o":"m 683 621 l 683 522 l 526 522 q 507 359 514 452 q 499 212 499 267 q 523 122 499 151 q 584 94 547 94 q 634 113 614 94 q 659 170 654 132 l 683 170 q 631 24 671 68 q 543 -19 592 -19 q 459 28 493 -19 q 425 216 425 75 q 432 354 425 277 q 450 522 444 478 l 291 522 l 276 318 q 233 64 258 151 q 191 -7 219 16 q 159 -19 178 -19 q 116 -2 133 -19 q 98 37 98 14 q 105 73 98 56 q 142 129 109 83 q 177 195 165 159 q 200 311 189 231 q 216 522 201 323 l 196 522 q 119 503 149 522 q 55 427 89 484 l 31 427 q 86 552 53 509 q 151 609 119 596 q 250 621 182 621 l 683 621 z "},"∫":{"ha":376,"x_min":-2,"x_max":378,"o":"m 134 607 l 146 1001 q 180 1174 151 1105 q 230 1241 198 1219 q 293 1263 262 1263 q 352 1241 327 1263 q 378 1191 378 1218 q 360 1140 378 1159 q 315 1120 342 1120 q 264 1145 292 1120 q 237 1158 248 1158 q 217 1148 225 1158 q 210 1115 210 1139 q 216 1017 210 1087 q 241 567 241 738 q 230 167 241 519 q 169 -104 224 -33 q 78 -149 132 -149 q 20 -126 43 -149 q -2 -67 -2 -103 q 15 -18 -2 -37 q 59 0 33 0 q 106 -22 86 0 q 139 -43 125 -43 q 158 -34 151 -43 q 165 -2 165 -24 q 159 79 165 26 q 142 309 148 176 q 134 607 134 477 z "},"ª":{"ha":463,"x_min":37,"x_max":455,"o":"m 108 845 l 64 849 q 78 938 74 895 q 239 975 168 975 q 336 945 304 975 q 366 847 366 915 l 362 682 q 369 641 362 650 q 384 632 375 632 q 435 657 397 632 l 455 632 q 385 576 389 578 q 349 568 370 568 q 301 581 319 568 q 279 618 284 594 q 204 576 226 584 q 153 568 183 568 q 68 597 100 568 q 37 669 37 627 q 57 731 37 705 q 136 784 77 758 q 276 842 220 822 q 259 912 275 895 q 208 929 243 929 q 152 910 176 929 q 108 845 128 890 m 277 797 q 154 735 175 755 q 132 686 132 715 q 148 641 132 658 q 183 625 163 625 q 234 639 208 625 q 269 671 260 654 q 277 737 277 689 l 277 797 z "},"º":{"ha":507,"x_min":38,"x_max":469,"o":"m 38 761 q 98 916 38 857 q 262 975 159 975 q 414 922 359 975 q 469 779 469 869 q 408 620 469 680 q 245 560 347 560 q 93 614 147 560 q 38 761 38 668 m 138 795 q 145 704 138 733 q 187 629 158 655 q 256 603 216 603 q 339 640 307 603 q 370 756 370 676 q 334 889 370 845 q 248 934 298 934 q 168 900 199 934 q 138 795 138 865 z "},"Ω":{"ha":1027,"x_min":39,"x_max":988,"o":"m 39 212 l 63 212 q 98 141 66 163 q 174 126 118 126 l 357 126 l 357 172 q 175 270 259 191 q 62 541 62 375 q 188 824 62 707 q 516 941 314 941 q 842 825 718 941 q 966 543 966 710 q 889 309 966 407 q 670 172 812 211 l 670 126 l 857 126 q 935 145 910 126 q 964 212 960 164 l 988 212 l 988 0 l 609 0 l 624 205 q 751 307 703 230 q 799 528 799 383 q 714 795 799 701 q 513 890 630 890 q 374 850 439 890 q 269 728 309 810 q 229 538 229 645 q 248 386 229 459 q 304 270 267 312 q 402 205 342 228 l 418 0 l 39 0 l 39 212 z "},"æ":{"ha":999,"x_min":50,"x_max":953,"o":"m 136 454 l 92 460 q 113 597 104 528 q 230 643 171 627 q 349 658 289 658 q 458 631 412 658 q 508 576 488 614 q 597 638 555 620 q 728 665 659 665 q 891 608 834 665 q 953 432 948 552 q 898 393 925 415 l 800 393 q 527 387 667 394 q 524 344 524 361 q 553 200 524 267 q 629 104 583 134 q 722 75 675 75 q 795 90 757 75 q 928 158 844 108 l 953 119 q 775 -2 820 19 q 681 -24 731 -24 q 561 10 615 -24 q 464 110 507 43 q 336 8 387 33 q 222 -17 286 -17 q 97 29 144 -17 q 50 145 50 75 q 98 273 50 226 q 420 436 147 320 l 420 458 q 392 564 420 532 q 307 595 364 595 q 208 562 249 595 q 136 454 168 528 m 534 443 q 830 454 715 445 q 788 569 826 530 q 694 608 749 608 q 596 570 640 608 q 534 443 553 531 m 419 374 q 202 256 254 310 q 169 174 169 222 q 200 93 169 125 q 279 60 232 60 q 358 84 320 60 q 437 162 396 109 q 415 307 415 248 q 419 374 415 331 z "},"ж":{"ha":999,"x_min":50,"x_max":953,"o":"m 136 454 l 92 460 q 113 597 104 528 q 230 643 171 627 q 349 658 289 658 q 458 631 412 658 q 508 576 488 614 q 597 638 555 620 q 728 665 659 665 q 891 608 834 665 q 953 432 948 552 q 898 393 925 415 l 800 393 q 527 387 667 394 q 524 344 524 361 q 553 200 524 267 q 629 104 583 134 q 722 75 675 75 q 795 90 757 75 q 928 158 844 108 l 953 119 q 775 -2 820 19 q 681 -24 731 -24 q 561 10 615 -24 q 464 110 507 43 q 336 8 387 33 q 222 -17 286 -17 q 97 29 144 -17 q 50 145 50 75 q 98 273 50 226 q 420 436 147 320 l 420 458 q 392 564 420 532 q 307 595 364 595 q 208 562 249 595 q 136 454 168 528 m 534 443 q 830 454 715 445 q 788 569 826 530 q 694 608 749 608 q 596 570 640 608 q 534 443 553 531 m 419 374 q 202 256 254 310 q 169 174 169 222 q 200 93 169 125 q 279 60 232 60 q 358 84 320 60 q 437 162 396 109 q 415 307 415 248 q 419 374 415 331 z "},"ø":{"ha":753,"x_min":52,"x_max":701,"o":"m 121 79 q 52 310 52 169 q 145 569 52 473 q 388 665 238 665 q 585 606 508 665 l 654 684 l 701 644 l 631 563 q 700 338 700 475 q 609 73 700 169 q 366 -24 517 -24 q 168 33 244 -24 l 100 -45 l 52 0 l 121 79 m 205 174 l 515 526 q 368 608 457 608 q 236 551 290 608 q 182 353 182 494 q 205 174 182 250 m 546 466 l 237 112 q 380 33 291 33 q 517 96 463 33 q 571 296 571 159 q 546 466 571 393 z "},"ш":{"ha":753,"x_min":52,"x_max":701,"o":"m 121 79 q 52 310 52 169 q 145 569 52 473 q 388 665 238 665 q 585 606 508 665 l 654 684 l 701 644 l 631 563 q 700 338 700 475 q 609 73 700 169 q 366 -24 517 -24 q 168 33 244 -24 l 100 -45 l 52 0 l 121 79 m 205 174 l 515 526 q 368 608 457 608 q 236 551 290 608 q 182 353 182 494 q 205 174 182 250 m 546 466 l 237 112 q 380 33 291 33 q 517 96 463 33 q 571 296 571 159 q 546 466 571 393 z "},"¿":{"ha":534,"x_min":49,"x_max":507,"o":"m 301 557 q 247 579 269 557 q 225 632 225 601 q 248 686 225 663 q 301 708 270 708 q 354 686 332 708 q 376 632 376 663 q 354 579 376 601 q 301 557 332 557 m 458 -57 l 507 -57 q 485 -218 492 -136 q 389 -271 431 -256 q 277 -292 334 -292 q 113 -230 177 -292 q 49 -78 49 -168 q 61 -2 49 -40 q 93 70 73 37 q 175 186 100 83 q 244 308 224 253 q 276 456 265 363 l 332 456 q 313 318 330 376 q 239 150 296 260 q 179 16 194 64 q 169 -51 169 -17 q 207 -154 169 -115 q 302 -193 244 -193 q 393 -163 355 -193 q 458 -57 431 -133 z "},"¡":{"ha":390,"x_min":112,"x_max":276,"o":"m 201 708 q 254 686 232 708 q 276 633 276 664 q 254 579 276 602 q 201 557 232 557 q 147 579 170 557 q 125 633 125 602 q 147 686 125 664 q 201 708 169 708 m 175 435 l 227 435 q 269 -231 240 127 q 132 -291 198 -257 l 112 -275 q 175 435 145 -20 z "},"¬":{"ha":926,"x_min":94,"x_max":832,"o":"m 94 649 l 832 649 l 832 248 l 743 248 l 743 560 l 94 560 l 94 649 z "},"√":{"ha":767,"x_min":59,"x_max":764,"o":"m 714 1267 l 764 1267 l 553 -53 l 216 640 l 82 578 l 59 621 l 263 724 l 538 165 l 714 1267 z "},"ƒ":{"ha":708,"x_min":0,"x_max":709,"o":"m 426 610 l 575 612 l 581 599 q 549 547 558 569 q 417 552 473 552 l 340 94 q 312 -28 334 58 q 251 -177 290 -115 q 171 -265 212 -239 q 91 -291 129 -291 q 0 -256 42 -291 q 52 -170 35 -208 l 65 -170 q 98 -205 77 -192 q 139 -219 119 -219 q 182 -197 166 -219 q 223 -27 203 -167 l 303 552 q 216 551 260 552 l 223 585 q 312 614 259 591 q 340 768 331 740 q 402 888 361 839 q 512 971 443 937 q 595 989 549 989 q 709 958 651 989 q 673 843 690 911 l 637 843 q 610 922 629 902 q 560 942 591 942 q 503 915 528 942 q 462 804 478 888 l 442 705 q 439 687 441 698 l 426 610 z "},"≈":{"ha":926,"x_min":102,"x_max":824,"o":"m 795 704 l 824 704 q 775 569 822 618 q 660 519 728 519 q 593 529 629 519 q 407 601 558 539 q 257 644 301 644 q 177 615 210 644 q 131 520 144 585 l 102 520 q 124 620 104 581 q 183 683 144 660 q 259 705 221 705 q 319 696 288 705 q 517 622 390 676 q 623 583 583 593 q 668 577 643 577 q 753 610 719 577 q 795 704 788 642 m 795 371 l 824 371 q 775 235 822 285 q 660 185 728 185 q 593 196 629 185 q 407 268 558 206 q 257 311 301 311 q 177 281 210 311 q 131 186 144 252 l 102 186 q 124 287 104 247 q 182 349 144 326 q 258 372 220 372 q 319 363 288 372 q 517 288 390 342 q 623 250 583 260 q 668 244 643 244 q 753 276 719 244 q 795 371 788 309 z "},"∆":{"ha":854,"x_min":20,"x_max":833,"o":"m 833 0 l 20 0 l 446 941 l 833 0 m 673 56 l 403 711 l 104 56 l 673 56 z "},"«":{"ha":593,"x_min":34,"x_max":560,"o":"m 251 568 l 308 568 l 162 315 l 308 62 l 251 62 q 34 315 136 204 l 197 503 q 251 568 221 532 m 503 568 l 560 568 l 414 315 l 560 62 l 503 62 l 286 315 q 360 401 311 345 q 503 568 437 490 z "},"»":{"ha":593,"x_min":33,"x_max":559,"o":"m 342 62 l 286 62 l 431 317 l 286 568 l 342 568 q 559 317 458 427 l 396 128 q 342 62 372 100 m 91 62 l 33 62 l 179 317 l 33 568 l 91 568 l 308 317 q 233 229 282 286 q 91 62 155 140 z "},"…":{"ha":1389,"x_min":155,"x_max":1233,"o":"m 694 128 q 748 106 726 128 q 770 52 770 83 q 748 -1 770 21 q 694 -24 726 -24 q 641 -2 663 -24 q 618 52 618 20 q 641 106 618 83 q 694 128 663 128 m 1157 128 q 1211 106 1189 128 q 1233 52 1233 83 q 1211 -1 1233 21 q 1157 -24 1189 -24 q 1103 -2 1126 -24 q 1081 52 1081 20 q 1103 106 1081 83 q 1157 128 1126 128 m 231 128 q 285 106 262 128 q 307 52 307 83 q 285 -1 307 21 q 231 -24 262 -24 q 178 -2 200 -24 q 155 52 155 20 q 177 106 155 83 q 231 128 199 128 z "}," ":{"ha":354,"x_min":0,"x_max":0,"o":""},"À":{"ha":1071,"x_min":5,"x_max":1058,"o":"m 509 971 l 551 971 q 777 437 643 736 l 935 92 q 958 65 945 74 q 1058 33 967 59 l 1058 -7 q 876 0 935 0 q 673 -7 817 0 l 673 33 q 768 60 755 50 q 782 83 782 70 q 768 132 782 98 l 700 297 q 490 298 555 298 l 303 297 l 233 125 q 215 74 215 84 q 223 59 215 65 q 302 39 232 54 q 323 33 310 37 l 323 -7 q 160 0 208 0 q 5 -7 100 0 l 5 33 q 90 63 67 46 q 125 106 107 76 q 322 538 164 174 l 509 971 m 330 365 q 465 362 424 362 q 673 365 477 362 l 501 772 l 330 365 m 576 1021 q 385 1245 484 1141 l 394 1258 q 460 1257 456 1257 q 532 1258 484 1257 q 616 1021 570 1146 l 576 1021 z "},"А":{"ha":1071,"x_min":5,"x_max":1058,"o":"m 509 971 l 551 971 q 777 437 643 736 l 935 92 q 958 65 945 74 q 1058 33 967 59 l 1058 -7 q 876 0 935 0 q 673 -7 817 0 l 673 33 q 768 60 755 50 q 782 83 782 70 q 768 132 782 98 l 700 297 q 490 298 555 298 l 303 297 l 233 125 q 215 74 215 84 q 223 59 215 65 q 302 39 232 54 q 323 33 310 37 l 323 -7 q 160 0 208 0 q 5 -7 100 0 l 5 33 q 90 63 67 46 q 125 106 107 76 q 322 538 164 174 l 509 971 m 330 365 q 465 362 424 362 q 673 365 477 362 l 501 772 l 330 365 m 576 1021 q 385 1245 484 1141 l 394 1258 q 460 1257 456 1257 q 532 1258 484 1257 q 616 1021 570 1146 l 576 1021 z "},"Ã":{"ha":1071,"x_min":5,"x_max":1058,"o":"m 509 971 l 551 971 q 777 437 643 736 l 935 92 q 958 65 945 74 q 1058 33 967 59 l 1058 -7 q 876 0 935 0 q 673 -7 817 0 l 673 33 q 768 60 755 50 q 782 83 782 70 q 768 132 782 98 l 700 297 q 490 298 555 298 l 303 297 l 233 125 q 215 74 215 84 q 223 59 215 65 q 302 39 232 54 q 323 33 310 37 l 323 -7 q 160 0 208 0 q 5 -7 100 0 l 5 33 q 90 63 67 46 q 125 106 107 76 q 322 538 164 174 l 509 971 m 330 365 q 465 362 424 362 q 673 365 477 362 l 501 772 l 330 365 m 718 1220 l 761 1220 q 700 1086 732 1118 q 630 1055 669 1055 q 523 1090 597 1055 q 419 1126 448 1126 q 383 1112 400 1126 q 351 1057 366 1097 l 309 1057 q 372 1192 331 1149 q 435 1220 397 1220 q 548 1185 475 1220 q 652 1149 621 1149 q 690 1162 677 1149 q 718 1220 704 1175 z "},"Г":{"ha":1071,"x_min":5,"x_max":1058,"o":"m 509 971 l 551 971 q 777 437 643 736 l 935 92 q 958 65 945 74 q 1058 33 967 59 l 1058 -7 q 876 0 935 0 q 673 -7 817 0 l 673 33 q 768 60 755 50 q 782 83 782 70 q 768 132 782 98 l 700 297 q 490 298 555 298 l 303 297 l 233 125 q 215 74 215 84 q 223 59 215 65 q 302 39 232 54 q 323 33 310 37 l 323 -7 q 160 0 208 0 q 5 -7 100 0 l 5 33 q 90 63 67 46 q 125 106 107 76 q 322 538 164 174 l 509 971 m 330 365 q 465 362 424 362 q 673 365 477 362 l 501 772 l 330 365 m 718 1220 l 761 1220 q 700 1086 732 1118 q 630 1055 669 1055 q 523 1090 597 1055 q 419 1126 448 1126 q 383 1112 400 1126 q 351 1057 366 1097 l 309 1057 q 372 1192 331 1149 q 435 1220 397 1220 q 548 1185 475 1220 q 652 1149 621 1149 q 690 1162 677 1149 q 718 1220 704 1175 z "},"Õ":{"ha":1100,"x_min":65,"x_max":1035,"o":"m 65 467 q 209 832 65 690 q 577 975 352 975 q 911 849 787 975 q 1035 502 1035 723 q 895 114 1035 256 q 528 -28 755 -28 q 190 101 314 -28 q 65 467 65 230 m 214 488 q 312 152 214 264 q 559 39 410 39 q 735 92 659 39 q 851 244 812 144 q 890 467 890 345 q 840 722 890 621 q 716 866 790 823 q 550 910 642 910 q 369 857 449 910 q 251 703 289 804 q 214 488 214 602 m 732 1220 l 775 1220 q 714 1086 746 1118 q 644 1055 683 1055 q 537 1090 611 1055 q 433 1126 463 1126 q 397 1112 414 1126 q 365 1057 380 1097 l 323 1057 q 386 1192 345 1149 q 449 1220 412 1220 q 562 1185 490 1220 q 667 1149 635 1149 q 705 1162 691 1149 q 732 1220 718 1175 z "},"Х":{"ha":1100,"x_min":65,"x_max":1035,"o":"m 65 467 q 209 832 65 690 q 577 975 352 975 q 911 849 787 975 q 1035 502 1035 723 q 895 114 1035 256 q 528 -28 755 -28 q 190 101 314 -28 q 65 467 65 230 m 214 488 q 312 152 214 264 q 559 39 410 39 q 735 92 659 39 q 851 244 812 144 q 890 467 890 345 q 840 722 890 621 q 716 866 790 823 q 550 910 642 910 q 369 857 449 910 q 251 703 289 804 q 214 488 214 602 m 732 1220 l 775 1220 q 714 1086 746 1118 q 644 1055 683 1055 q 537 1090 611 1055 q 433 1126 463 1126 q 397 1112 414 1126 q 365 1057 380 1097 l 323 1057 q 386 1192 345 1149 q 449 1220 412 1220 q 562 1185 490 1220 q 667 1149 635 1149 q 705 1162 691 1149 q 732 1220 718 1175 z "},"Œ":{"ha":1504,"x_min":61,"x_max":1459,"o":"m 1225 671 l 1271 671 l 1264 511 l 1271 326 l 1223 326 l 1200 436 q 1183 457 1194 452 q 1077 467 1162 467 l 897 467 q 896 407 896 429 q 901 69 896 203 l 1211 69 q 1305 89 1280 69 q 1396 225 1337 114 l 1410 252 l 1459 248 q 1374 -7 1417 129 q 959 0 1059 0 q 718 -4 872 0 q 581 -7 593 -7 q 286 52 397 -7 q 117 225 174 112 q 61 475 61 338 q 201 822 61 689 q 589 955 340 955 q 699 952 601 955 q 1013 947 866 947 q 1374 955 1135 947 q 1373 925 1373 936 q 1390 723 1373 861 l 1341 723 q 1331 753 1334 743 q 1283 865 1304 848 q 1172 882 1262 882 l 901 882 q 897 532 897 758 l 1103 532 q 1185 546 1169 532 q 1219 646 1201 560 q 1225 671 1221 654 m 770 495 l 767 768 q 767 786 767 777 q 768 803 768 794 q 758 861 768 847 q 715 880 748 874 q 585 890 648 890 q 381 840 468 890 q 252 696 294 790 q 210 479 210 602 q 317 170 210 284 q 597 56 425 56 q 731 69 689 56 q 756 90 747 74 q 767 208 766 106 q 770 495 770 454 z "},"œ":{"ha":1143,"x_min":49,"x_max":1098,"o":"m 1074 160 l 1098 119 q 922 -4 983 24 q 824 -24 880 -24 q 706 7 753 -24 q 618 109 659 38 q 514 14 565 41 q 355 -24 444 -24 q 132 64 216 -24 q 49 308 49 151 q 138 564 49 463 q 380 665 228 665 q 538 623 469 665 q 625 534 586 595 q 722 624 673 595 q 871 665 791 665 q 1034 606 975 665 q 1095 431 1092 547 q 1040 390 1064 414 q 912 392 939 392 q 669 382 831 392 q 668 348 668 359 q 726 147 668 216 q 865 78 784 78 q 955 95 909 78 q 1074 160 1000 111 m 178 367 q 246 96 178 186 q 379 31 294 31 q 512 97 458 31 q 567 299 567 162 q 498 541 567 454 q 361 607 445 607 q 230 548 282 607 q 178 367 178 488 m 677 441 q 972 455 831 442 q 935 567 971 528 q 838 606 899 606 q 736 566 780 606 q 677 441 692 526 z "},"–":{"ha":694,"x_min":-8,"x_max":703,"o":"m -8 378 l 703 378 l 703 316 l -8 316 l -8 378 z "},"—":{"ha":1389,"x_min":-8,"x_max":1397,"o":"m -8 378 l 1397 378 l 1397 316 l -8 316 l -8 378 z "},"“":{"ha":694,"x_min":105,"x_max":596,"o":"m 575 716 l 596 690 q 516 577 551 639 q 437 634 466 595 q 408 720 408 673 q 550 975 408 851 l 579 939 q 496 779 496 854 q 513 730 496 749 q 551 711 530 711 q 575 716 559 711 m 272 716 l 293 690 q 213 577 248 639 q 134 634 162 595 q 105 720 105 673 q 247 975 105 851 l 276 939 q 193 779 193 854 q 210 730 193 749 q 248 711 227 711 q 272 716 256 711 z "},"”":{"ha":694,"x_min":98,"x_max":589,"o":"m 119 836 l 98 863 q 178 975 144 914 q 257 919 229 958 q 286 832 286 880 q 144 577 286 701 l 115 613 q 199 774 199 699 q 182 822 199 804 q 144 841 165 841 q 119 836 135 841 m 422 836 l 401 863 q 481 975 448 914 q 561 919 532 958 q 589 832 589 880 q 448 577 589 701 l 418 613 q 502 774 502 699 q 485 822 502 804 q 448 841 468 841 q 422 836 438 841 z "},"‘":{"ha":390,"x_min":104,"x_max":292,"o":"m 271 716 l 292 690 q 212 577 247 639 q 133 634 161 595 q 104 720 104 673 q 246 975 104 851 l 275 939 q 192 779 192 854 q 209 730 192 749 q 247 711 226 711 q 271 716 256 711 z "},"’":{"ha":390,"x_min":96,"x_max":284,"o":"m 117 836 l 96 863 q 176 975 142 914 q 255 919 227 958 q 284 832 284 880 q 142 577 284 701 l 113 613 q 197 774 197 699 q 180 822 197 804 q 142 841 163 841 q 117 836 133 841 z "},"÷":{"ha":926,"x_min":94,"x_max":832,"o":"m 520 760 q 504 720 520 736 q 463 703 487 703 q 423 720 439 703 q 406 760 406 736 q 423 801 406 784 q 463 817 439 817 q 504 801 487 817 q 520 760 520 784 m 94 493 l 832 493 l 832 404 l 94 404 l 94 493 m 520 137 q 504 97 520 113 q 463 80 487 80 q 423 97 439 80 q 406 137 406 113 q 423 177 406 161 q 463 194 439 194 q 504 177 487 194 q 520 137 520 161 z "},"ч":{"ha":926,"x_min":94,"x_max":832,"o":"m 520 760 q 504 720 520 736 q 463 703 487 703 q 423 720 439 703 q 406 760 406 736 q 423 801 406 784 q 463 817 439 817 q 504 801 487 817 q 520 760 520 784 m 94 493 l 832 493 l 832 404 l 94 404 l 94 493 m 520 137 q 504 97 520 113 q 463 80 487 80 q 423 97 439 80 q 406 137 406 113 q 423 177 406 161 q 463 194 439 194 q 504 177 487 194 q 520 137 520 161 z "},"◊":{"ha":686,"x_min":32,"x_max":656,"o":"m 372 964 l 656 481 l 372 0 l 297 0 l 32 481 l 297 964 l 372 964 m 336 899 l 105 481 l 336 64 l 579 481 l 336 899 z "},"ÿ":{"ha":708,"x_min":9,"x_max":697,"o":"m 9 604 l 9 642 q 162 634 115 634 q 315 642 198 634 l 315 604 q 241 583 255 593 q 232 565 232 576 q 254 497 232 551 q 397 172 327 315 l 468 375 q 528 562 528 536 q 522 581 528 575 q 489 597 513 591 q 470 604 482 600 l 470 642 q 594 634 555 634 q 697 642 641 634 l 697 604 q 627 571 645 591 q 557 417 608 552 l 425 64 q 337 -153 367 -100 q 249 -258 298 -224 q 154 -292 199 -292 q 92 -283 130 -292 q 74 -223 81 -242 q 47 -168 66 -204 l 73 -149 q 174 -195 124 -195 q 256 -160 222 -195 q 340 14 304 -112 l 208 317 q 101 543 146 460 q 75 577 87 568 q 9 604 58 591 m 239 918 q 289 898 269 918 q 309 848 309 877 q 289 798 309 819 q 239 777 268 777 q 190 798 210 777 q 169 848 169 819 q 189 898 169 877 q 239 918 210 918 m 470 917 q 519 897 499 917 q 540 847 540 876 q 519 798 540 819 q 470 777 499 777 q 421 798 441 777 q 401 847 401 819 q 421 897 401 876 q 470 917 441 917 z "},"я":{"ha":708,"x_min":9,"x_max":697,"o":"m 9 604 l 9 642 q 162 634 115 634 q 315 642 198 634 l 315 604 q 241 583 255 593 q 232 565 232 576 q 254 497 232 551 q 397 172 327 315 l 468 375 q 528 562 528 536 q 522 581 528 575 q 489 597 513 591 q 470 604 482 600 l 470 642 q 594 634 555 634 q 697 642 641 634 l 697 604 q 627 571 645 591 q 557 417 608 552 l 425 64 q 337 -153 367 -100 q 249 -258 298 -224 q 154 -292 199 -292 q 92 -283 130 -292 q 74 -223 81 -242 q 47 -168 66 -204 l 73 -149 q 174 -195 124 -195 q 256 -160 222 -195 q 340 14 304 -112 l 208 317 q 101 543 146 460 q 75 577 87 568 q 9 604 58 591 m 239 918 q 289 898 269 918 q 309 848 309 877 q 289 798 309 819 q 239 777 268 777 q 190 798 210 777 q 169 848 169 819 q 189 898 169 877 q 239 918 210 918 m 470 917 q 519 897 499 917 q 540 847 540 876 q 519 798 540 819 q 470 777 499 777 q 421 798 441 777 q 401 847 401 819 q 421 897 401 876 q 470 917 441 917 z "},"Ÿ":{"ha":1042,"x_min":16,"x_max":1029,"o":"m 304 -7 l 304 33 q 339 39 328 37 q 441 66 423 53 q 456 107 451 75 q 462 298 462 140 l 461 389 q 273 675 404 480 l 149 854 q 116 881 136 870 q 16 915 85 898 l 16 955 q 206 947 123 947 q 406 955 288 947 l 406 915 q 316 886 328 895 q 304 868 304 878 q 315 840 304 859 q 547 471 376 734 q 770 842 633 607 q 785 874 785 865 q 777 888 785 884 q 682 915 755 902 l 682 955 q 863 947 806 947 q 1029 955 930 947 l 1029 915 q 911 877 946 899 q 829 784 877 854 q 585 404 726 631 q 584 364 584 370 q 587 104 584 128 q 602 69 589 80 q 715 37 621 54 q 739 33 724 36 l 739 -7 q 535 0 613 0 q 304 -7 473 0 m 406 1208 q 456 1188 435 1208 q 476 1138 476 1167 q 455 1088 476 1109 q 406 1067 435 1067 q 356 1088 377 1067 q 336 1138 336 1109 q 356 1188 336 1167 q 406 1208 376 1208 m 637 1207 q 686 1187 666 1207 q 707 1137 707 1166 q 686 1088 707 1109 q 637 1067 666 1067 q 588 1088 608 1067 q 568 1137 568 1109 q 588 1187 568 1166 q 637 1207 608 1207 z "},"∕":{"ha":174,"x_min":-237,"x_max":412,"o":"m 337 975 l 412 975 l -164 -53 l -237 -53 l 337 975 z "},"¤":{"ha":956,"x_min":146,"x_max":808,"o":"m 663 694 l 749 781 l 808 720 l 723 633 q 784 449 784 545 q 769 355 784 397 q 723 265 755 312 l 808 180 l 749 119 l 663 205 q 573 158 616 172 q 477 143 530 143 q 382 158 425 143 q 293 204 340 172 l 208 119 l 146 180 l 233 264 q 185 354 200 311 q 171 449 171 397 q 185 544 171 501 q 233 634 200 587 l 146 720 l 207 781 l 293 695 q 385 741 338 726 q 477 756 431 756 q 572 742 528 756 q 663 694 615 727 m 698 450 q 633 605 698 541 q 477 670 569 670 q 321 605 386 670 q 257 450 257 541 q 321 293 257 358 q 477 229 386 229 q 633 293 569 229 q 698 450 698 358 z "},"‹":{"ha":347,"x_min":37,"x_max":311,"o":"m 253 568 l 311 568 l 165 315 l 311 62 l 253 62 l 37 315 q 111 401 62 345 q 253 568 189 490 z "},"›":{"ha":347,"x_min":37,"x_max":311,"o":"m 94 62 l 37 62 l 182 317 l 37 568 l 94 568 l 311 317 q 237 229 286 286 q 94 62 159 140 z "},"":{"ha":782,"x_min":36,"x_max":760,"o":"m 579 789 l 545 789 q 496 896 533 863 q 401 930 459 930 q 312 899 348 930 q 262 823 275 869 q 249 675 249 777 l 248 633 l 463 633 q 568 639 530 633 q 636 657 593 642 l 658 644 q 645 287 645 520 q 654 87 645 125 q 669 61 658 68 q 760 31 680 53 l 760 -7 q 597 0 658 0 q 430 -7 532 0 l 430 31 q 519 58 507 50 q 534 80 532 66 q 541 238 541 111 q 539 469 541 417 q 529 554 537 541 q 516 565 524 562 q 455 568 507 568 l 248 568 l 248 240 q 253 89 248 133 q 264 62 256 69 q 317 43 273 55 l 370 31 l 370 -7 q 205 0 275 0 q 36 -7 132 0 l 36 31 l 109 52 q 124 60 119 56 q 130 71 128 64 q 138 199 136 98 q 140 493 140 385 q 140 568 140 513 q 41 561 89 566 l 41 594 q 140 644 92 614 q 138 707 138 684 q 168 840 138 787 q 280 949 206 908 q 433 989 355 989 q 628 931 520 989 q 579 789 595 854 z "},"":{"ha":782,"x_min":36,"x_max":762,"o":"m 41 561 l 41 593 q 141 645 93 614 l 141 698 q 164 840 141 796 q 271 947 199 905 q 409 989 344 989 q 481 977 443 989 q 564 937 520 964 q 643 989 604 962 l 665 978 q 652 821 655 895 q 648 551 648 747 q 652 132 648 205 q 668 66 654 80 q 762 31 681 52 l 762 -7 q 595 0 665 0 q 429 -7 523 0 l 429 31 q 528 66 520 58 q 541 135 540 80 l 543 212 q 543 496 543 289 l 543 616 l 544 668 q 529 812 544 773 q 467 894 509 865 q 374 924 424 924 q 296 897 325 924 q 258 819 267 871 q 250 634 250 767 q 334 633 329 633 q 423 634 363 633 l 429 623 q 397 561 412 593 q 250 568 323 568 q 250 445 250 474 q 253 101 250 133 q 267 62 257 69 q 356 34 284 47 q 372 31 361 33 l 372 -7 q 217 0 275 0 q 36 -7 184 0 l 36 31 q 62 37 53 35 q 126 63 116 51 q 138 141 136 75 q 142 476 142 249 l 141 568 q 41 561 92 566 z "},"‡":{"ha":608,"x_min":46,"x_max":564,"o":"m 234 989 l 380 989 l 351 829 q 332 712 345 801 q 564 753 455 728 l 564 620 q 332 659 385 652 q 380 350 345 479 q 332 39 338 162 q 564 80 414 47 l 564 -54 q 332 -14 440 -26 q 380 -291 340 -97 l 227 -291 q 279 -14 267 -132 q 199 -22 239 -16 q 46 -54 160 -29 l 46 80 q 279 39 153 56 q 227 350 265 221 q 279 659 260 477 q 197 648 233 653 l 46 620 l 46 753 q 279 712 123 734 q 268 808 275 766 l 234 989 z "},"∙":{"ha":390,"x_min":119,"x_max":271,"o":"m 195 546 q 249 524 227 546 q 271 470 271 502 q 249 416 271 439 q 195 394 227 394 q 142 416 164 394 q 119 470 119 439 q 141 524 119 502 q 195 546 163 546 z "},"‚":{"ha":390,"x_min":98,"x_max":286,"o":"m 119 7 l 98 33 q 178 145 143 84 q 257 89 228 128 q 286 3 286 50 q 144 -252 286 -128 l 115 -216 q 198 -56 198 -132 q 181 -7 198 -26 q 143 12 164 12 q 119 7 134 12 z "},"„":{"ha":694,"x_min":98,"x_max":589,"o":"m 119 7 l 98 33 q 178 145 144 84 q 257 89 229 128 q 286 3 286 50 q 144 -252 286 -128 l 115 -216 q 199 -56 199 -132 q 182 -7 199 -26 q 144 12 165 12 q 119 7 135 12 m 422 7 l 401 33 q 481 145 448 84 q 561 89 532 128 q 589 3 589 50 q 448 -252 589 -128 l 418 -216 q 502 -56 502 -132 q 485 -7 502 -26 q 448 12 468 12 q 422 7 438 12 z "},"‰":{"ha":1504,"x_min":54,"x_max":1455,"o":"m 54 688 q 112 906 54 838 q 262 975 171 975 q 400 910 353 975 q 446 726 446 846 q 389 512 446 579 q 245 444 332 444 q 106 504 159 444 q 54 688 54 564 m 159 695 q 191 526 159 573 q 252 493 213 493 q 311 526 290 493 q 343 704 343 575 q 308 893 343 838 q 250 926 287 926 q 191 893 212 926 q 159 695 159 842 m 762 975 l 836 975 l 260 -53 l 187 -53 l 762 975 m 569 191 q 627 409 569 340 q 777 478 686 478 q 915 413 869 478 q 962 229 962 349 q 904 15 962 82 q 760 -53 847 -53 q 622 7 675 -53 q 569 191 569 67 m 675 198 q 707 28 675 76 q 768 -4 728 -4 q 827 29 805 -4 q 859 207 859 78 q 823 396 859 340 q 765 429 802 429 q 707 396 727 429 q 675 198 675 345 m 1062 191 q 1121 409 1062 340 q 1270 478 1179 478 q 1409 413 1362 478 q 1455 229 1455 349 q 1398 15 1455 82 q 1253 -53 1341 -53 q 1115 7 1168 -53 q 1062 191 1062 67 m 1168 198 q 1200 28 1168 76 q 1261 -4 1221 -4 q 1320 29 1298 -4 q 1352 207 1352 78 q 1316 396 1352 340 q 1259 429 1295 429 q 1200 396 1221 429 q 1168 198 1168 345 z "},"Â":{"ha":1071,"x_min":5,"x_max":1058,"o":"m 509 971 l 551 971 q 777 437 643 736 l 935 92 q 958 65 945 74 q 1058 33 967 59 l 1058 -7 q 876 0 935 0 q 673 -7 817 0 l 673 33 q 768 60 755 50 q 782 83 782 70 q 768 132 782 98 l 700 297 q 490 298 555 298 l 303 297 l 233 125 q 215 74 215 84 q 223 59 215 65 q 302 39 232 54 q 323 33 310 37 l 323 -7 q 160 0 208 0 q 5 -7 100 0 l 5 33 q 90 63 67 46 q 125 106 107 76 q 322 538 164 174 l 509 971 m 330 365 q 465 362 424 362 q 673 365 477 362 l 501 772 l 330 365 m 735 1029 l 689 1029 l 528 1154 l 379 1029 l 335 1029 l 439 1188 q 477 1245 464 1226 l 541 1244 q 594 1245 551 1244 q 735 1029 630 1187 z "},"В":{"ha":1071,"x_min":5,"x_max":1058,"o":"m 509 971 l 551 971 q 777 437 643 736 l 935 92 q 958 65 945 74 q 1058 33 967 59 l 1058 -7 q 876 0 935 0 q 673 -7 817 0 l 673 33 q 768 60 755 50 q 782 83 782 70 q 768 132 782 98 l 700 297 q 490 298 555 298 l 303 297 l 233 125 q 215 74 215 84 q 223 59 215 65 q 302 39 232 54 q 323 33 310 37 l 323 -7 q 160 0 208 0 q 5 -7 100 0 l 5 33 q 90 63 67 46 q 125 106 107 76 q 322 538 164 174 l 509 971 m 330 365 q 465 362 424 362 q 673 365 477 362 l 501 772 l 330 365 m 735 1029 l 689 1029 l 528 1154 l 379 1029 l 335 1029 l 439 1188 q 477 1245 464 1226 l 541 1244 q 594 1245 551 1244 q 735 1029 630 1187 z "},"Ê":{"ha":926,"x_min":27,"x_max":877,"o":"m 309 530 l 473 530 q 585 535 568 530 q 613 556 602 541 q 639 646 623 572 q 645 669 641 654 l 690 669 q 682 497 682 557 q 690 326 682 435 l 645 326 q 621 436 625 425 q 597 459 614 452 q 496 467 580 467 l 310 467 l 313 68 l 597 68 l 623 68 q 696 73 681 68 q 741 103 722 82 q 814 220 761 123 q 830 248 819 229 l 877 248 q 793 -7 869 226 q 342 0 546 0 q 27 -7 199 0 l 27 33 l 137 56 q 170 71 163 64 q 180 125 180 84 l 180 137 l 183 296 q 184 477 184 342 q 182 765 184 673 q 176 868 181 856 q 163 881 172 876 q 100 899 155 886 l 27 915 l 27 955 q 332 947 155 947 q 793 955 429 947 q 809 723 794 838 l 762 723 q 718 846 734 815 q 689 873 706 867 q 590 882 667 882 l 316 882 l 311 664 l 309 530 m 663 1029 l 616 1029 l 455 1154 l 307 1029 l 262 1029 l 367 1188 q 405 1245 391 1226 l 468 1244 q 522 1245 478 1244 q 663 1029 557 1187 z "},"К":{"ha":926,"x_min":27,"x_max":877,"o":"m 309 530 l 473 530 q 585 535 568 530 q 613 556 602 541 q 639 646 623 572 q 645 669 641 654 l 690 669 q 682 497 682 557 q 690 326 682 435 l 645 326 q 621 436 625 425 q 597 459 614 452 q 496 467 580 467 l 310 467 l 313 68 l 597 68 l 623 68 q 696 73 681 68 q 741 103 722 82 q 814 220 761 123 q 830 248 819 229 l 877 248 q 793 -7 869 226 q 342 0 546 0 q 27 -7 199 0 l 27 33 l 137 56 q 170 71 163 64 q 180 125 180 84 l 180 137 l 183 296 q 184 477 184 342 q 182 765 184 673 q 176 868 181 856 q 163 881 172 876 q 100 899 155 886 l 27 915 l 27 955 q 332 947 155 947 q 793 955 429 947 q 809 723 794 838 l 762 723 q 718 846 734 815 q 689 873 706 867 q 590 882 667 882 l 316 882 l 311 664 l 309 530 m 663 1029 l 616 1029 l 455 1154 l 307 1029 l 262 1029 l 367 1188 q 405 1245 391 1226 l 468 1244 q 522 1245 478 1244 q 663 1029 557 1187 z "},"Á":{"ha":1071,"x_min":5,"x_max":1058,"o":"m 509 971 l 551 971 q 777 437 643 736 l 935 92 q 958 65 945 74 q 1058 33 967 59 l 1058 -7 q 876 0 935 0 q 673 -7 817 0 l 673 33 q 768 60 755 50 q 782 83 782 70 q 768 132 782 98 l 700 297 q 490 298 555 298 l 303 297 l 233 125 q 215 74 215 84 q 223 59 215 65 q 302 39 232 54 q 323 33 310 37 l 323 -7 q 160 0 208 0 q 5 -7 100 0 l 5 33 q 90 63 67 46 q 125 106 107 76 q 322 538 164 174 l 509 971 m 330 365 q 465 362 424 362 q 673 365 477 362 l 501 772 l 330 365 m 495 1021 l 454 1021 q 540 1258 500 1146 l 616 1257 q 677 1258 627 1257 l 686 1245 q 495 1021 587 1141 z "},"Б":{"ha":1071,"x_min":5,"x_max":1058,"o":"m 509 971 l 551 971 q 777 437 643 736 l 935 92 q 958 65 945 74 q 1058 33 967 59 l 1058 -7 q 876 0 935 0 q 673 -7 817 0 l 673 33 q 768 60 755 50 q 782 83 782 70 q 768 132 782 98 l 700 297 q 490 298 555 298 l 303 297 l 233 125 q 215 74 215 84 q 223 59 215 65 q 302 39 232 54 q 323 33 310 37 l 323 -7 q 160 0 208 0 q 5 -7 100 0 l 5 33 q 90 63 67 46 q 125 106 107 76 q 322 538 164 174 l 509 971 m 330 365 q 465 362 424 362 q 673 365 477 362 l 501 772 l 330 365 m 495 1021 l 454 1021 q 540 1258 500 1146 l 616 1257 q 677 1258 627 1257 l 686 1245 q 495 1021 587 1141 z "},"Ë":{"ha":926,"x_min":27,"x_max":877,"o":"m 309 530 l 473 530 q 585 535 568 530 q 613 556 602 541 q 639 646 623 572 q 645 669 641 654 l 690 669 q 682 497 682 557 q 690 326 682 435 l 645 326 q 621 436 625 425 q 597 459 614 452 q 496 467 580 467 l 310 467 l 313 68 l 597 68 l 623 68 q 696 73 681 68 q 741 103 722 82 q 814 220 761 123 q 830 248 819 229 l 877 248 q 793 -7 869 226 q 342 0 546 0 q 27 -7 199 0 l 27 33 l 137 56 q 170 71 163 64 q 180 125 180 84 l 180 137 l 183 296 q 184 477 184 342 q 182 765 184 673 q 176 868 181 856 q 163 881 172 876 q 100 899 155 886 l 27 915 l 27 955 q 332 947 155 947 q 793 955 429 947 q 809 723 794 838 l 762 723 q 718 846 734 815 q 689 873 706 867 q 590 882 667 882 l 316 882 l 311 664 l 309 530 m 348 1208 q 397 1188 377 1208 q 418 1138 418 1167 q 397 1088 418 1109 q 348 1067 376 1067 q 298 1088 319 1067 q 277 1138 277 1109 q 298 1188 277 1167 q 348 1208 318 1208 m 578 1207 q 628 1187 608 1207 q 648 1137 648 1166 q 628 1088 648 1109 q 578 1067 608 1067 q 530 1088 550 1067 q 509 1137 509 1109 q 529 1187 509 1166 q 578 1207 549 1207 z "},"Л":{"ha":926,"x_min":27,"x_max":877,"o":"m 309 530 l 473 530 q 585 535 568 530 q 613 556 602 541 q 639 646 623 572 q 645 669 641 654 l 690 669 q 682 497 682 557 q 690 326 682 435 l 645 326 q 621 436 625 425 q 597 459 614 452 q 496 467 580 467 l 310 467 l 313 68 l 597 68 l 623 68 q 696 73 681 68 q 741 103 722 82 q 814 220 761 123 q 830 248 819 229 l 877 248 q 793 -7 869 226 q 342 0 546 0 q 27 -7 199 0 l 27 33 l 137 56 q 170 71 163 64 q 180 125 180 84 l 180 137 l 183 296 q 184 477 184 342 q 182 765 184 673 q 176 868 181 856 q 163 881 172 876 q 100 899 155 886 l 27 915 l 27 955 q 332 947 155 947 q 793 955 429 947 q 809 723 794 838 l 762 723 q 718 846 734 815 q 689 873 706 867 q 590 882 667 882 l 316 882 l 311 664 l 309 530 m 348 1208 q 397 1188 377 1208 q 418 1138 418 1167 q 397 1088 418 1109 q 348 1067 376 1067 q 298 1088 319 1067 q 277 1138 277 1109 q 298 1188 277 1167 q 348 1208 318 1208 m 578 1207 q 628 1187 608 1207 q 648 1137 648 1166 q 628 1088 648 1109 q 578 1067 608 1067 q 530 1088 550 1067 q 509 1137 509 1109 q 529 1187 509 1166 q 578 1207 549 1207 z "},"È":{"ha":926,"x_min":27,"x_max":877,"o":"m 309 530 l 473 530 q 585 535 568 530 q 613 556 602 541 q 639 646 623 572 q 645 669 641 654 l 690 669 q 682 497 682 557 q 690 326 682 435 l 645 326 q 621 436 625 425 q 597 459 614 452 q 496 467 580 467 l 310 467 l 313 68 l 597 68 l 623 68 q 696 73 681 68 q 741 103 722 82 q 814 220 761 123 q 830 248 819 229 l 877 248 q 793 -7 869 226 q 342 0 546 0 q 27 -7 199 0 l 27 33 l 137 56 q 170 71 163 64 q 180 125 180 84 l 180 137 l 183 296 q 184 477 184 342 q 182 765 184 673 q 176 868 181 856 q 163 881 172 876 q 100 899 155 886 l 27 915 l 27 955 q 332 947 155 947 q 793 955 429 947 q 809 723 794 838 l 762 723 q 718 846 734 815 q 689 873 706 867 q 590 882 667 882 l 316 882 l 311 664 l 309 530 m 504 1021 q 312 1245 411 1141 l 321 1258 q 388 1257 383 1257 q 459 1258 412 1257 q 544 1021 498 1146 l 504 1021 z "},"И":{"ha":926,"x_min":27,"x_max":877,"o":"m 309 530 l 473 530 q 585 535 568 530 q 613 556 602 541 q 639 646 623 572 q 645 669 641 654 l 690 669 q 682 497 682 557 q 690 326 682 435 l 645 326 q 621 436 625 425 q 597 459 614 452 q 496 467 580 467 l 310 467 l 313 68 l 597 68 l 623 68 q 696 73 681 68 q 741 103 722 82 q 814 220 761 123 q 830 248 819 229 l 877 248 q 793 -7 869 226 q 342 0 546 0 q 27 -7 199 0 l 27 33 l 137 56 q 170 71 163 64 q 180 125 180 84 l 180 137 l 183 296 q 184 477 184 342 q 182 765 184 673 q 176 868 181 856 q 163 881 172 876 q 100 899 155 886 l 27 915 l 27 955 q 332 947 155 947 q 793 955 429 947 q 809 723 794 838 l 762 723 q 718 846 734 815 q 689 873 706 867 q 590 882 667 882 l 316 882 l 311 664 l 309 530 m 504 1021 q 312 1245 411 1141 l 321 1258 q 388 1257 383 1257 q 459 1258 412 1257 q 544 1021 498 1146 l 504 1021 z "},"Í":{"ha":507,"x_min":35,"x_max":475,"o":"m 475 955 l 475 915 q 439 907 451 909 q 335 878 349 892 q 321 816 321 864 l 321 792 l 318 519 l 320 123 q 334 63 320 76 q 429 41 348 50 q 475 33 445 39 l 475 -7 q 264 0 366 0 q 35 -7 160 0 l 35 33 q 65 39 55 38 q 175 68 161 55 q 189 135 189 81 l 189 169 l 190 418 q 189 842 190 802 q 174 877 187 865 q 71 906 161 889 q 35 915 59 909 l 35 955 q 265 947 182 947 q 475 955 357 947 m 213 1021 l 172 1021 q 258 1258 218 1146 l 334 1257 q 395 1258 345 1257 l 404 1245 q 213 1021 305 1141 z "},"Н":{"ha":507,"x_min":35,"x_max":475,"o":"m 475 955 l 475 915 q 439 907 451 909 q 335 878 349 892 q 321 816 321 864 l 321 792 l 318 519 l 320 123 q 334 63 320 76 q 429 41 348 50 q 475 33 445 39 l 475 -7 q 264 0 366 0 q 35 -7 160 0 l 35 33 q 65 39 55 38 q 175 68 161 55 q 189 135 189 81 l 189 169 l 190 418 q 189 842 190 802 q 174 877 187 865 q 71 906 161 889 q 35 915 59 909 l 35 955 q 265 947 182 947 q 475 955 357 947 m 213 1021 l 172 1021 q 258 1258 218 1146 l 334 1257 q 395 1258 345 1257 l 404 1245 q 213 1021 305 1141 z "},"Î":{"ha":507,"x_min":35,"x_max":475,"o":"m 475 955 l 475 915 q 439 907 451 909 q 335 878 349 892 q 321 816 321 864 l 321 792 l 318 519 l 320 123 q 334 63 320 76 q 429 41 348 50 q 475 33 445 39 l 475 -7 q 264 0 366 0 q 35 -7 160 0 l 35 33 q 65 39 55 38 q 175 68 161 55 q 189 135 189 81 l 189 169 l 190 418 q 189 842 190 802 q 174 877 187 865 q 71 906 161 889 q 35 915 59 909 l 35 955 q 265 947 182 947 q 475 955 357 947 m 453 1029 l 407 1029 l 245 1154 l 97 1029 l 53 1029 l 157 1188 q 195 1245 182 1226 l 258 1244 q 312 1245 269 1244 q 453 1029 348 1187 z "},"О":{"ha":507,"x_min":35,"x_max":475,"o":"m 475 955 l 475 915 q 439 907 451 909 q 335 878 349 892 q 321 816 321 864 l 321 792 l 318 519 l 320 123 q 334 63 320 76 q 429 41 348 50 q 475 33 445 39 l 475 -7 q 264 0 366 0 q 35 -7 160 0 l 35 33 q 65 39 55 38 q 175 68 161 55 q 189 135 189 81 l 189 169 l 190 418 q 189 842 190 802 q 174 877 187 865 q 71 906 161 889 q 35 915 59 909 l 35 955 q 265 947 182 947 q 475 955 357 947 m 453 1029 l 407 1029 l 245 1154 l 97 1029 l 53 1029 l 157 1188 q 195 1245 182 1226 l 258 1244 q 312 1245 269 1244 q 453 1029 348 1187 z "},"Ï":{"ha":507,"x_min":35,"x_max":475,"o":"m 475 955 l 475 915 q 439 907 451 909 q 335 878 349 892 q 321 816 321 864 l 321 792 l 318 519 l 320 123 q 334 63 320 76 q 429 41 348 50 q 475 33 445 39 l 475 -7 q 264 0 366 0 q 35 -7 160 0 l 35 33 q 65 39 55 38 q 175 68 161 55 q 189 135 189 81 l 189 169 l 190 418 q 189 842 190 802 q 174 877 187 865 q 71 906 161 889 q 35 915 59 909 l 35 955 q 265 947 182 947 q 475 955 357 947 m 138 1208 q 188 1188 168 1208 q 208 1138 208 1167 q 188 1088 208 1109 q 138 1067 167 1067 q 89 1088 109 1067 q 68 1138 68 1109 q 88 1188 68 1167 q 138 1208 109 1208 m 369 1207 q 418 1187 398 1207 q 439 1137 439 1166 q 418 1088 439 1109 q 369 1067 398 1067 q 320 1088 340 1067 q 300 1137 300 1109 q 320 1187 300 1166 q 369 1207 340 1207 z "},"П":{"ha":507,"x_min":35,"x_max":475,"o":"m 475 955 l 475 915 q 439 907 451 909 q 335 878 349 892 q 321 816 321 864 l 321 792 l 318 519 l 320 123 q 334 63 320 76 q 429 41 348 50 q 475 33 445 39 l 475 -7 q 264 0 366 0 q 35 -7 160 0 l 35 33 q 65 39 55 38 q 175 68 161 55 q 189 135 189 81 l 189 169 l 190 418 q 189 842 190 802 q 174 877 187 865 q 71 906 161 889 q 35 915 59 909 l 35 955 q 265 947 182 947 q 475 955 357 947 m 138 1208 q 188 1188 168 1208 q 208 1138 208 1167 q 188 1088 208 1109 q 138 1067 167 1067 q 89 1088 109 1067 q 68 1138 68 1109 q 88 1188 68 1167 q 138 1208 109 1208 m 369 1207 q 418 1187 398 1207 q 439 1137 439 1166 q 418 1088 439 1109 q 369 1067 398 1067 q 320 1088 340 1067 q 300 1137 300 1109 q 320 1187 300 1166 q 369 1207 340 1207 z "},"Ì":{"ha":507,"x_min":35,"x_max":475,"o":"m 475 955 l 475 915 q 439 907 451 909 q 335 878 349 892 q 321 816 321 864 l 321 792 l 318 519 l 320 123 q 334 63 320 76 q 429 41 348 50 q 475 33 445 39 l 475 -7 q 264 0 366 0 q 35 -7 160 0 l 35 33 q 65 39 55 38 q 175 68 161 55 q 189 135 189 81 l 189 169 l 190 418 q 189 842 190 802 q 174 877 187 865 q 71 906 161 889 q 35 915 59 909 l 35 955 q 265 947 182 947 q 475 955 357 947 m 294 1021 q 102 1245 201 1141 l 112 1258 q 178 1257 174 1257 q 250 1258 202 1257 q 334 1021 288 1146 l 294 1021 z "},"М":{"ha":507,"x_min":35,"x_max":475,"o":"m 475 955 l 475 915 q 439 907 451 909 q 335 878 349 892 q 321 816 321 864 l 321 792 l 318 519 l 320 123 q 334 63 320 76 q 429 41 348 50 q 475 33 445 39 l 475 -7 q 264 0 366 0 q 35 -7 160 0 l 35 33 q 65 39 55 38 q 175 68 161 55 q 189 135 189 81 l 189 169 l 190 418 q 189 842 190 802 q 174 877 187 865 q 71 906 161 889 q 35 915 59 909 l 35 955 q 265 947 182 947 q 475 955 357 947 m 294 1021 q 102 1245 201 1141 l 112 1258 q 178 1257 174 1257 q 250 1258 202 1257 q 334 1021 288 1146 l 294 1021 z "},"Ó":{"ha":1100,"x_min":65,"x_max":1035,"o":"m 65 467 q 209 832 65 690 q 577 975 352 975 q 911 849 787 975 q 1035 502 1035 723 q 895 114 1035 256 q 528 -28 755 -28 q 190 101 314 -28 q 65 467 65 230 m 214 488 q 312 152 214 264 q 559 39 410 39 q 735 92 659 39 q 851 244 812 144 q 890 467 890 345 q 840 722 890 621 q 716 866 790 823 q 550 910 642 910 q 369 857 449 910 q 251 703 289 804 q 214 488 214 602 m 509 1021 l 469 1021 q 554 1258 515 1146 l 630 1257 q 691 1258 642 1257 l 701 1245 q 509 1021 602 1141 z "},"У":{"ha":1100,"x_min":65,"x_max":1035,"o":"m 65 467 q 209 832 65 690 q 577 975 352 975 q 911 849 787 975 q 1035 502 1035 723 q 895 114 1035 256 q 528 -28 755 -28 q 190 101 314 -28 q 65 467 65 230 m 214 488 q 312 152 214 264 q 559 39 410 39 q 735 92 659 39 q 851 244 812 144 q 890 467 890 345 q 840 722 890 621 q 716 866 790 823 q 550 910 642 910 q 369 857 449 910 q 251 703 289 804 q 214 488 214 602 m 509 1021 l 469 1021 q 554 1258 515 1146 l 630 1257 q 691 1258 642 1257 l 701 1245 q 509 1021 602 1141 z "},"Ô":{"ha":1100,"x_min":65,"x_max":1035,"o":"m 65 467 q 209 832 65 690 q 577 975 352 975 q 911 849 787 975 q 1035 502 1035 723 q 895 114 1035 256 q 528 -28 755 -28 q 190 101 314 -28 q 65 467 65 230 m 214 488 q 312 152 214 264 q 559 39 410 39 q 735 92 659 39 q 851 244 812 144 q 890 467 890 345 q 840 722 890 621 q 716 866 790 823 q 550 910 642 910 q 369 857 449 910 q 251 703 289 804 q 214 488 214 602 m 749 1029 l 703 1029 l 542 1154 l 393 1029 l 349 1029 l 454 1188 q 492 1245 478 1226 l 555 1244 q 608 1245 565 1244 q 749 1029 644 1187 z "},"Ф":{"ha":1100,"x_min":65,"x_max":1035,"o":"m 65 467 q 209 832 65 690 q 577 975 352 975 q 911 849 787 975 q 1035 502 1035 723 q 895 114 1035 256 q 528 -28 755 -28 q 190 101 314 -28 q 65 467 65 230 m 214 488 q 312 152 214 264 q 559 39 410 39 q 735 92 659 39 q 851 244 812 144 q 890 467 890 345 q 840 722 890 621 q 716 866 790 823 q 550 910 642 910 q 369 857 449 910 q 251 703 289 804 q 214 488 214 602 m 749 1029 l 703 1029 l 542 1154 l 393 1029 l 349 1029 l 454 1188 q 492 1245 478 1226 l 555 1244 q 608 1245 565 1244 q 749 1029 644 1187 z "},"Ò":{"ha":1100,"x_min":65,"x_max":1035,"o":"m 65 467 q 209 832 65 690 q 577 975 352 975 q 911 849 787 975 q 1035 502 1035 723 q 895 114 1035 256 q 528 -28 755 -28 q 190 101 314 -28 q 65 467 65 230 m 214 488 q 312 152 214 264 q 559 39 410 39 q 735 92 659 39 q 851 244 812 144 q 890 467 890 345 q 840 722 890 621 q 716 866 790 823 q 550 910 642 910 q 369 857 449 910 q 251 703 289 804 q 214 488 214 602 m 591 1021 q 399 1245 498 1141 l 408 1258 q 475 1257 470 1257 q 546 1258 498 1257 q 631 1021 585 1146 l 591 1021 z "},"Т":{"ha":1100,"x_min":65,"x_max":1035,"o":"m 65 467 q 209 832 65 690 q 577 975 352 975 q 911 849 787 975 q 1035 502 1035 723 q 895 114 1035 256 q 528 -28 755 -28 q 190 101 314 -28 q 65 467 65 230 m 214 488 q 312 152 214 264 q 559 39 410 39 q 735 92 659 39 q 851 244 812 144 q 890 467 890 345 q 840 722 890 621 q 716 866 790 823 q 550 910 642 910 q 369 857 449 910 q 251 703 289 804 q 214 488 214 602 m 591 1021 q 399 1245 498 1141 l 408 1258 q 475 1257 470 1257 q 546 1258 498 1257 q 631 1021 585 1146 l 591 1021 z "},"Ú":{"ha":1114,"x_min":19,"x_max":1097,"o":"m 19 915 l 19 955 q 237 947 145 947 q 457 955 332 947 l 457 915 q 425 908 436 910 q 317 882 330 893 q 304 837 305 871 q 300 490 300 745 q 309 258 300 319 q 354 154 318 197 q 452 87 389 111 q 585 64 514 64 q 757 108 691 64 q 845 225 823 152 q 866 513 866 299 q 861 848 866 797 q 848 879 859 870 q 747 908 838 888 q 718 915 737 910 l 718 955 q 920 947 850 947 q 1097 955 998 947 l 1097 915 q 1069 907 1078 909 q 966 879 979 889 q 951 844 954 869 q 943 528 945 790 q 936 270 943 325 q 904 148 927 194 q 833 59 881 101 q 724 -2 785 18 q 553 -28 642 -28 q 377 -3 454 -28 q 256 63 299 21 q 193 161 214 104 q 172 326 172 218 l 174 633 q 173 827 174 805 q 163 871 170 860 q 146 886 157 881 q 52 907 138 890 q 19 915 41 909 m 517 1021 l 476 1021 q 562 1258 522 1146 l 637 1257 q 699 1258 649 1257 l 708 1245 q 517 1021 609 1141 z "},"Ъ":{"ha":1114,"x_min":19,"x_max":1097,"o":"m 19 915 l 19 955 q 237 947 145 947 q 457 955 332 947 l 457 915 q 425 908 436 910 q 317 882 330 893 q 304 837 305 871 q 300 490 300 745 q 309 258 300 319 q 354 154 318 197 q 452 87 389 111 q 585 64 514 64 q 757 108 691 64 q 845 225 823 152 q 866 513 866 299 q 861 848 866 797 q 848 879 859 870 q 747 908 838 888 q 718 915 737 910 l 718 955 q 920 947 850 947 q 1097 955 998 947 l 1097 915 q 1069 907 1078 909 q 966 879 979 889 q 951 844 954 869 q 943 528 945 790 q 936 270 943 325 q 904 148 927 194 q 833 59 881 101 q 724 -2 785 18 q 553 -28 642 -28 q 377 -3 454 -28 q 256 63 299 21 q 193 161 214 104 q 172 326 172 218 l 174 633 q 173 827 174 805 q 163 871 170 860 q 146 886 157 881 q 52 907 138 890 q 19 915 41 909 m 517 1021 l 476 1021 q 562 1258 522 1146 l 637 1257 q 699 1258 649 1257 l 708 1245 q 517 1021 609 1141 z "},"Û":{"ha":1114,"x_min":19,"x_max":1097,"o":"m 19 915 l 19 955 q 237 947 145 947 q 457 955 332 947 l 457 915 q 425 908 436 910 q 317 882 330 893 q 304 837 305 871 q 300 490 300 745 q 309 258 300 319 q 354 154 318 197 q 452 87 389 111 q 585 64 514 64 q 757 108 691 64 q 845 225 823 152 q 866 513 866 299 q 861 848 866 797 q 848 879 859 870 q 747 908 838 888 q 718 915 737 910 l 718 955 q 920 947 850 947 q 1097 955 998 947 l 1097 915 q 1069 907 1078 909 q 966 879 979 889 q 951 844 954 869 q 943 528 945 790 q 936 270 943 325 q 904 148 927 194 q 833 59 881 101 q 724 -2 785 18 q 553 -28 642 -28 q 377 -3 454 -28 q 256 63 299 21 q 193 161 214 104 q 172 326 172 218 l 174 633 q 173 827 174 805 q 163 871 170 860 q 146 886 157 881 q 52 907 138 890 q 19 915 41 909 m 757 1029 l 711 1029 l 549 1154 l 401 1029 l 357 1029 l 461 1188 q 499 1245 486 1226 l 562 1244 q 616 1245 572 1244 q 757 1029 652 1187 z "},"Ы":{"ha":1114,"x_min":19,"x_max":1097,"o":"m 19 915 l 19 955 q 237 947 145 947 q 457 955 332 947 l 457 915 q 425 908 436 910 q 317 882 330 893 q 304 837 305 871 q 300 490 300 745 q 309 258 300 319 q 354 154 318 197 q 452 87 389 111 q 585 64 514 64 q 757 108 691 64 q 845 225 823 152 q 866 513 866 299 q 861 848 866 797 q 848 879 859 870 q 747 908 838 888 q 718 915 737 910 l 718 955 q 920 947 850 947 q 1097 955 998 947 l 1097 915 q 1069 907 1078 909 q 966 879 979 889 q 951 844 954 869 q 943 528 945 790 q 936 270 943 325 q 904 148 927 194 q 833 59 881 101 q 724 -2 785 18 q 553 -28 642 -28 q 377 -3 454 -28 q 256 63 299 21 q 193 161 214 104 q 172 326 172 218 l 174 633 q 173 827 174 805 q 163 871 170 860 q 146 886 157 881 q 52 907 138 890 q 19 915 41 909 m 757 1029 l 711 1029 l 549 1154 l 401 1029 l 357 1029 l 461 1188 q 499 1245 486 1226 l 562 1244 q 616 1245 572 1244 q 757 1029 652 1187 z "},"Ù":{"ha":1114,"x_min":19,"x_max":1097,"o":"m 19 915 l 19 955 q 237 947 145 947 q 457 955 332 947 l 457 915 q 425 908 436 910 q 317 882 330 893 q 304 837 305 871 q 300 490 300 745 q 309 258 300 319 q 354 154 318 197 q 452 87 389 111 q 585 64 514 64 q 757 108 691 64 q 845 225 823 152 q 866 513 866 299 q 861 848 866 797 q 848 879 859 870 q 747 908 838 888 q 718 915 737 910 l 718 955 q 920 947 850 947 q 1097 955 998 947 l 1097 915 q 1069 907 1078 909 q 966 879 979 889 q 951 844 954 869 q 943 528 945 790 q 936 270 943 325 q 904 148 927 194 q 833 59 881 101 q 724 -2 785 18 q 553 -28 642 -28 q 377 -3 454 -28 q 256 63 299 21 q 193 161 214 104 q 172 326 172 218 l 174 633 q 173 827 174 805 q 163 871 170 860 q 146 886 157 881 q 52 907 138 890 q 19 915 41 909 m 598 1021 q 406 1245 505 1141 l 416 1258 q 482 1257 477 1257 q 553 1258 506 1257 q 638 1021 592 1146 l 598 1021 z "},"Щ":{"ha":1114,"x_min":19,"x_max":1097,"o":"m 19 915 l 19 955 q 237 947 145 947 q 457 955 332 947 l 457 915 q 425 908 436 910 q 317 882 330 893 q 304 837 305 871 q 300 490 300 745 q 309 258 300 319 q 354 154 318 197 q 452 87 389 111 q 585 64 514 64 q 757 108 691 64 q 845 225 823 152 q 866 513 866 299 q 861 848 866 797 q 848 879 859 870 q 747 908 838 888 q 718 915 737 910 l 718 955 q 920 947 850 947 q 1097 955 998 947 l 1097 915 q 1069 907 1078 909 q 966 879 979 889 q 951 844 954 869 q 943 528 945 790 q 936 270 943 325 q 904 148 927 194 q 833 59 881 101 q 724 -2 785 18 q 553 -28 642 -28 q 377 -3 454 -28 q 256 63 299 21 q 193 161 214 104 q 172 326 172 218 l 174 633 q 173 827 174 805 q 163 871 170 860 q 146 886 157 881 q 52 907 138 890 q 19 915 41 909 m 598 1021 q 406 1245 505 1141 l 416 1258 q 482 1257 477 1257 q 553 1258 506 1257 q 638 1021 592 1146 l 598 1021 z "},"ı":{"ha":390,"x_min":38,"x_max":370,"o":"m 38 540 l 38 578 q 252 665 152 607 l 270 650 q 256 243 256 507 q 262 91 256 119 q 277 63 267 72 q 347 37 287 55 q 370 31 355 35 l 370 -7 q 224 0 281 0 q 38 -7 189 0 l 38 31 q 141 72 130 53 q 153 267 153 90 l 152 411 l 152 439 q 142 530 152 515 q 109 546 132 546 q 38 540 95 546 z "},"ˆ":{"ha":463,"x_min":31,"x_max":431,"o":"m 431 739 l 385 739 l 224 864 l 75 739 l 31 739 l 136 898 q 174 955 160 936 l 237 954 q 290 955 247 954 q 431 739 326 897 z "},"˜":{"ha":463,"x_min":5,"x_max":457,"o":"m 414 930 l 457 930 q 396 796 428 827 q 326 765 365 765 q 219 800 293 765 q 115 836 144 836 q 79 821 96 836 q 47 766 62 807 l 5 766 q 68 902 27 859 q 131 930 94 930 q 244 895 172 930 q 349 859 317 859 q 387 872 373 859 q 414 930 400 884 z "},"ˉ":{"ha":463,"x_min":-14,"x_max":478,"o":"m -14 858 l 478 858 l 478 771 l -14 771 l -14 858 z "},"˘":{"ha":463,"x_min":36,"x_max":427,"o":"m 36 935 l 79 935 q 130 871 94 894 q 231 848 166 848 q 342 875 301 848 q 389 935 371 893 l 427 935 q 377 814 412 854 q 233 757 328 757 q 89 814 142 757 q 36 935 49 857 z "},"˙":{"ha":463,"x_min":146,"x_max":317,"o":"m 231 932 q 292 907 267 932 q 317 846 317 882 q 292 786 317 811 q 232 762 267 762 q 171 786 196 762 q 146 846 146 811 q 171 907 146 882 q 231 932 196 932 z "},"˚":{"ha":463,"x_min":92,"x_max":371,"o":"m 232 987 q 330 946 290 987 q 371 848 371 905 q 330 749 371 790 q 232 709 290 709 q 133 749 174 709 q 92 848 92 790 q 133 946 92 905 q 232 987 174 987 m 232 931 q 173 907 197 931 q 149 848 149 882 q 173 789 149 813 q 232 764 197 764 q 290 789 266 764 q 315 848 315 813 q 291 907 315 882 q 232 931 267 931 z "},"¸":{"ha":463,"x_min":46,"x_max":271,"o":"m 214 8 l 256 8 q 214 -62 239 -28 q 255 -89 240 -68 q 271 -139 271 -110 q 252 -198 271 -168 q 190 -244 233 -227 q 86 -260 148 -260 q 46 -258 73 -260 l 46 -221 q 159 -197 122 -221 q 179 -158 179 -184 q 171 -133 179 -142 q 145 -124 162 -124 q 130 -125 140 -124 l 123 -106 q 173 -52 158 -71 q 214 8 188 -33 z "},"˝":{"ha":463,"x_min":71,"x_max":491,"o":"m 305 730 l 263 730 q 310 856 277 765 q 349 968 343 947 l 419 964 q 483 968 431 964 l 491 955 q 305 730 439 900 m 113 730 l 71 730 q 118 856 85 765 q 157 968 151 947 l 227 964 q 291 968 239 964 l 298 955 q 113 730 248 900 z "},"˛":{"ha":463,"x_min":120,"x_max":420,"o":"m 221 11 l 276 11 q 225 -48 240 -21 q 211 -107 211 -76 q 235 -163 211 -141 q 299 -186 259 -186 q 402 -155 336 -186 l 420 -193 q 312 -249 342 -239 q 245 -260 281 -260 q 154 -228 187 -260 q 120 -149 120 -197 q 221 11 120 -56 z "},"ˇ":{"ha":463,"x_min":32,"x_max":431,"o":"m 32 955 l 77 955 l 237 829 l 386 955 l 431 955 q 289 736 366 865 l 170 736 q 102 844 149 774 q 32 955 68 895 z "},"Š":{"ha":766,"x_min":76,"x_max":694,"o":"m 646 696 l 595 696 q 555 823 577 783 q 487 885 532 863 q 384 908 441 908 q 255 863 303 908 q 208 755 208 819 q 247 656 208 699 q 436 550 286 614 q 640 417 586 486 q 694 262 694 348 q 653 118 694 184 q 532 12 613 52 q 357 -28 451 -28 q 230 -16 294 -28 q 76 26 165 -3 q 85 280 85 122 l 138 280 q 184 138 160 178 q 257 71 208 97 q 364 45 306 45 q 505 90 444 45 q 565 215 565 134 q 522 332 565 281 q 331 445 477 382 q 134 567 184 509 q 85 705 85 625 q 125 838 85 774 q 242 938 165 901 q 404 975 320 975 q 646 927 504 975 q 643 808 643 828 q 646 696 643 766 m 184 1245 l 229 1245 l 389 1119 l 538 1245 l 583 1245 q 441 1027 517 1155 l 322 1027 q 254 1135 301 1064 q 184 1245 220 1185 z "},"š":{"ha":534,"x_min":56,"x_max":488,"o":"m 448 473 l 400 477 q 358 572 395 537 q 264 606 320 606 q 186 580 215 606 q 157 520 157 554 q 180 465 157 490 q 314 378 211 429 q 453 283 417 328 q 488 180 488 237 q 422 37 488 97 q 240 -24 355 -24 q 56 14 157 -24 q 66 189 66 109 l 113 189 q 173 74 133 109 q 273 39 214 39 q 355 66 326 39 q 384 134 384 93 q 355 208 384 174 q 226 292 326 242 q 92 383 125 342 q 58 475 58 424 q 124 607 58 549 q 300 665 191 665 q 466 629 377 665 q 448 473 456 574 m 81 955 l 127 955 l 286 829 l 435 955 l 481 955 q 338 736 415 865 l 220 736 q 152 844 199 774 q 81 955 118 895 z "},"¦":{"ha":737,"x_min":324,"x_max":414,"o":"m 324 967 l 414 967 l 414 475 l 324 475 l 324 967 m 324 302 l 414 302 l 414 -188 l 324 -188 l 324 302 z "},"Ð":{"ha":1129,"x_min":33,"x_max":1067,"o":"m 189 467 l 33 467 l 33 530 l 189 530 l 186 836 q 180 871 186 862 q 154 887 174 881 q 33 915 143 891 l 33 955 q 325 947 167 947 l 627 951 q 873 907 781 951 q 1016 766 965 863 q 1067 540 1067 669 q 905 148 1067 302 q 472 -7 744 -7 q 348 -3 456 -7 q 220 1 239 1 q 33 -7 155 1 l 33 33 q 161 60 149 55 q 177 72 173 64 q 185 143 184 83 q 189 467 186 186 m 318 467 q 322 73 319 184 q 507 60 432 60 q 698 97 623 60 q 862 257 806 152 q 918 515 918 362 q 899 662 918 595 q 849 767 880 728 q 730 856 804 825 q 519 887 657 887 q 322 877 435 887 l 319 749 l 318 530 l 604 530 l 604 467 l 318 467 z "},"Р":{"ha":1129,"x_min":33,"x_max":1067,"o":"m 189 467 l 33 467 l 33 530 l 189 530 l 186 836 q 180 871 186 862 q 154 887 174 881 q 33 915 143 891 l 33 955 q 325 947 167 947 l 627 951 q 873 907 781 951 q 1016 766 965 863 q 1067 540 1067 669 q 905 148 1067 302 q 472 -7 744 -7 q 348 -3 456 -7 q 220 1 239 1 q 33 -7 155 1 l 33 33 q 161 60 149 55 q 177 72 173 64 q 185 143 184 83 q 189 467 186 186 m 318 467 q 322 73 319 184 q 507 60 432 60 q 698 97 623 60 q 862 257 806 152 q 918 515 918 362 q 899 662 918 595 q 849 767 880 728 q 730 856 804 825 q 519 887 657 887 q 322 877 435 887 l 319 749 l 318 530 l 604 530 l 604 467 l 318 467 z "},"ð":{"ha":746,"x_min":50,"x_max":694,"o":"m 500 613 q 359 811 454 712 l 199 722 l 171 772 l 317 853 q 206 944 260 907 l 237 989 q 386 892 323 941 l 555 989 l 585 937 l 435 853 q 631 611 568 740 q 694 351 694 483 q 603 75 694 173 q 361 -24 512 -24 q 133 63 216 -24 q 50 303 50 151 q 139 554 50 460 q 361 648 228 648 q 500 613 433 648 m 572 297 q 512 520 572 447 q 366 594 452 594 q 234 535 286 594 q 182 349 182 476 q 241 107 182 183 q 383 32 300 32 q 518 96 464 32 q 572 297 572 161 z "},"р":{"ha":746,"x_min":50,"x_max":694,"o":"m 500 613 q 359 811 454 712 l 199 722 l 171 772 l 317 853 q 206 944 260 907 l 237 989 q 386 892 323 941 l 555 989 l 585 937 l 435 853 q 631 611 568 740 q 694 351 694 483 q 603 75 694 173 q 361 -24 512 -24 q 133 63 216 -24 q 50 303 50 151 q 139 554 50 460 q 361 648 228 648 q 500 613 433 648 m 572 297 q 512 520 572 447 q 366 594 452 594 q 234 535 286 594 q 182 349 182 476 q 241 107 182 183 q 383 32 300 32 q 518 96 464 32 q 572 297 572 161 z "},"Ý":{"ha":1042,"x_min":16,"x_max":1029,"o":"m 304 -7 l 304 33 q 339 39 328 37 q 441 66 423 53 q 456 107 451 75 q 462 298 462 140 l 461 389 q 273 675 404 480 l 149 854 q 116 881 136 870 q 16 915 85 898 l 16 955 q 206 947 123 947 q 406 955 288 947 l 406 915 q 316 886 328 895 q 304 868 304 878 q 315 840 304 859 q 547 471 376 734 q 770 842 633 607 q 785 874 785 865 q 777 888 785 884 q 682 915 755 902 l 682 955 q 863 947 806 947 q 1029 955 930 947 l 1029 915 q 911 877 946 899 q 829 784 877 854 q 585 404 726 631 q 584 364 584 370 q 587 104 584 128 q 602 69 589 80 q 715 37 621 54 q 739 33 724 36 l 739 -7 q 535 0 613 0 q 304 -7 473 0 m 481 1021 l 440 1021 q 526 1258 486 1146 l 602 1257 q 663 1258 613 1257 l 672 1245 q 481 1021 573 1141 z "},"Э":{"ha":1042,"x_min":16,"x_max":1029,"o":"m 304 -7 l 304 33 q 339 39 328 37 q 441 66 423 53 q 456 107 451 75 q 462 298 462 140 l 461 389 q 273 675 404 480 l 149 854 q 116 881 136 870 q 16 915 85 898 l 16 955 q 206 947 123 947 q 406 955 288 947 l 406 915 q 316 886 328 895 q 304 868 304 878 q 315 840 304 859 q 547 471 376 734 q 770 842 633 607 q 785 874 785 865 q 777 888 785 884 q 682 915 755 902 l 682 955 q 863 947 806 947 q 1029 955 930 947 l 1029 915 q 911 877 946 899 q 829 784 877 854 q 585 404 726 631 q 584 364 584 370 q 587 104 584 128 q 602 69 589 80 q 715 37 621 54 q 739 33 724 36 l 739 -7 q 535 0 613 0 q 304 -7 473 0 m 481 1021 l 440 1021 q 526 1258 486 1146 l 602 1257 q 663 1258 613 1257 l 672 1245 q 481 1021 573 1141 z "},"ý":{"ha":708,"x_min":9,"x_max":697,"o":"m 9 604 l 9 642 q 162 634 115 634 q 315 642 198 634 l 315 604 q 241 583 255 593 q 232 565 232 576 q 254 497 232 551 q 397 172 327 315 l 468 375 q 528 562 528 536 q 522 581 528 575 q 489 597 513 591 q 470 604 482 600 l 470 642 q 594 634 555 634 q 697 642 641 634 l 697 604 q 627 571 645 591 q 557 417 608 552 l 425 64 q 337 -153 367 -100 q 249 -258 298 -224 q 154 -292 199 -292 q 92 -283 130 -292 q 74 -223 81 -242 q 47 -168 66 -204 l 73 -149 q 174 -195 124 -195 q 256 -160 222 -195 q 340 14 304 -112 l 208 317 q 101 543 146 460 q 75 577 87 568 q 9 604 58 591 m 314 731 l 273 731 q 359 968 319 856 l 435 966 q 496 968 446 966 l 505 955 q 314 731 406 851 z "},"э":{"ha":708,"x_min":9,"x_max":697,"o":"m 9 604 l 9 642 q 162 634 115 634 q 315 642 198 634 l 315 604 q 241 583 255 593 q 232 565 232 576 q 254 497 232 551 q 397 172 327 315 l 468 375 q 528 562 528 536 q 522 581 528 575 q 489 597 513 591 q 470 604 482 600 l 470 642 q 594 634 555 634 q 697 642 641 634 l 697 604 q 627 571 645 591 q 557 417 608 552 l 425 64 q 337 -153 367 -100 q 249 -258 298 -224 q 154 -292 199 -292 q 92 -283 130 -292 q 74 -223 81 -242 q 47 -168 66 -204 l 73 -149 q 174 -195 124 -195 q 256 -160 222 -195 q 340 14 304 -112 l 208 317 q 101 543 146 460 q 75 577 87 568 q 9 604 58 591 m 314 731 l 273 731 q 359 968 319 856 l 435 966 q 496 968 446 966 l 505 955 q 314 731 406 851 z "},"Þ":{"ha":854,"x_min":0,"x_max":845,"o":"m 438 955 l 438 915 l 345 894 q 289 867 296 883 q 281 742 283 851 l 589 742 q 780 679 715 742 q 845 505 845 616 q 797 344 845 416 q 669 238 749 272 q 456 203 589 203 l 281 203 q 285 86 281 106 q 296 65 288 73 q 341 52 305 58 l 456 33 l 456 -7 q 235 0 334 0 q 0 -7 134 0 l 0 33 l 96 52 q 146 78 138 60 q 156 389 156 102 l 155 597 l 156 735 q 155 783 156 766 q 154 832 154 819 l 154 844 q 146 875 154 867 q 94 894 138 884 l 0 915 l 0 955 q 237 947 137 947 q 438 955 336 947 m 281 678 l 281 265 l 438 265 q 541 273 496 265 q 626 310 585 280 q 687 380 667 339 q 707 480 707 422 q 652 627 707 576 q 477 678 597 678 l 281 678 z "},"Ю":{"ha":854,"x_min":0,"x_max":845,"o":"m 438 955 l 438 915 l 345 894 q 289 867 296 883 q 281 742 283 851 l 589 742 q 780 679 715 742 q 845 505 845 616 q 797 344 845 416 q 669 238 749 272 q 456 203 589 203 l 281 203 q 285 86 281 106 q 296 65 288 73 q 341 52 305 58 l 456 33 l 456 -7 q 235 0 334 0 q 0 -7 134 0 l 0 33 l 96 52 q 146 78 138 60 q 156 389 156 102 l 155 597 l 156 735 q 155 783 156 766 q 154 832 154 819 l 154 844 q 146 875 154 867 q 94 894 138 884 l 0 915 l 0 955 q 237 947 137 947 q 438 955 336 947 m 281 678 l 281 265 l 438 265 q 541 273 496 265 q 626 310 585 280 q 687 380 667 339 q 707 480 707 422 q 652 627 707 576 q 477 678 597 678 l 281 678 z "},"þ":{"ha":737,"x_min":5,"x_max":691,"o":"m 227 507 q 361 637 312 607 q 447 658 393 658 q 623 583 554 658 q 691 367 691 507 q 584 92 691 204 q 347 -20 477 -20 q 294 -12 323 -20 q 231 9 265 -5 q 237 -203 233 -172 q 249 -229 239 -221 q 328 -254 259 -237 q 356 -261 337 -256 l 356 -298 q 191 -291 255 -291 q 5 -298 143 -291 l 5 -261 l 37 -253 q 106 -228 94 -241 q 121 -187 118 -216 q 123 51 123 -159 l 120 668 l 120 696 q 109 856 120 836 q 72 871 100 871 q 6 865 52 871 l 6 904 q 139 947 96 930 q 224 989 181 964 l 241 979 q 233 865 235 920 l 227 507 m 229 116 q 305 67 266 83 q 385 50 344 50 q 518 116 460 50 q 575 304 575 182 q 517 502 575 430 q 406 556 475 556 q 317 529 361 556 q 252 459 273 502 q 230 351 231 416 l 229 116 z "},"ю":{"ha":737,"x_min":5,"x_max":691,"o":"m 227 507 q 361 637 312 607 q 447 658 393 658 q 623 583 554 658 q 691 367 691 507 q 584 92 691 204 q 347 -20 477 -20 q 294 -12 323 -20 q 231 9 265 -5 q 237 -203 233 -172 q 249 -229 239 -221 q 328 -254 259 -237 q 356 -261 337 -256 l 356 -298 q 191 -291 255 -291 q 5 -298 143 -291 l 5 -261 l 37 -253 q 106 -228 94 -241 q 121 -187 118 -216 q 123 51 123 -159 l 120 668 l 120 696 q 109 856 120 836 q 72 871 100 871 q 6 865 52 871 l 6 904 q 139 947 96 930 q 224 989 181 964 l 241 979 q 233 865 235 920 l 227 507 m 229 116 q 305 67 266 83 q 385 50 344 50 q 518 116 460 50 q 575 304 575 182 q 517 502 575 430 q 406 556 475 556 q 317 529 361 556 q 252 459 273 502 q 230 351 231 416 l 229 116 z "},"×":{"ha":926,"x_min":123,"x_max":802,"o":"m 463 511 l 739 789 l 802 726 l 526 448 l 800 174 l 736 111 l 463 386 l 189 111 l 126 174 l 400 448 l 123 726 l 186 789 l 463 511 z "},"Ч":{"ha":926,"x_min":123,"x_max":802,"o":"m 463 511 l 739 789 l 802 726 l 526 448 l 800 174 l 736 111 l 463 386 l 189 111 l 126 174 l 400 448 l 123 726 l 186 789 l 463 511 z "},"¹":{"ha":478,"x_min":127,"x_max":378,"o":"m 127 878 l 127 905 q 293 971 203 925 l 308 961 q 300 762 300 883 l 301 615 q 307 507 301 521 q 378 480 317 488 l 378 451 q 246 455 302 455 q 132 451 191 455 l 132 480 q 195 496 186 490 q 208 519 204 502 q 211 654 211 536 q 206 876 211 864 q 186 887 201 887 q 127 878 172 887 z "},"²":{"ha":478,"x_min":41,"x_max":425,"o":"m 106 812 l 71 812 q 93 924 86 869 q 160 962 125 949 q 233 975 195 975 q 342 935 301 975 q 384 835 384 895 q 348 725 384 782 q 165 536 311 669 l 281 536 q 345 543 330 536 q 373 578 356 549 q 385 595 376 583 l 425 595 q 370 454 384 498 q 201 456 278 456 q 41 454 115 456 l 41 481 q 246 705 205 643 q 286 810 286 768 q 265 870 286 848 q 210 892 243 892 q 153 872 178 892 q 106 812 127 852 z "},"³":{"ha":478,"x_min":59,"x_max":398,"o":"m 126 833 l 92 833 q 115 939 106 888 q 182 965 151 956 q 240 973 214 973 q 332 944 300 973 q 365 872 365 915 q 350 819 365 844 q 296 766 335 795 q 371 720 345 754 q 398 640 398 686 q 336 503 398 561 q 176 446 273 446 q 59 463 129 446 q 79 576 74 519 l 110 576 q 145 511 123 530 q 202 493 168 493 q 272 523 244 493 q 300 603 300 553 q 272 679 300 650 q 197 708 244 708 q 160 706 184 708 l 160 741 q 249 784 219 753 q 279 844 279 815 q 261 886 279 869 q 213 903 242 903 q 163 886 184 903 q 126 833 141 869 z "},"½":{"ha":1143,"x_min":134,"x_max":1082,"o":"m 134 878 l 134 905 q 300 971 210 925 l 315 961 q 307 762 307 883 l 308 615 q 314 507 308 521 q 385 480 323 488 l 385 451 q 253 455 309 455 q 139 451 197 455 l 139 480 q 202 496 193 490 q 214 519 211 502 q 218 654 218 536 q 213 876 218 864 q 193 887 208 887 q 134 878 178 887 m 821 975 l 896 975 l 320 -53 l 247 -53 l 821 975 m 764 317 l 729 317 q 751 428 744 373 q 818 466 783 454 q 891 479 853 479 q 1000 439 959 479 q 1042 339 1042 399 q 1005 230 1042 286 q 823 41 969 173 l 939 41 q 1002 47 987 41 q 1031 82 1014 54 q 1042 99 1034 87 l 1082 99 q 1027 -42 1042 2 q 859 -39 936 -39 q 699 -42 773 -39 l 699 -15 q 904 210 863 147 q 944 314 944 272 q 923 374 944 352 q 867 396 901 396 q 810 376 836 396 q 764 317 785 357 z "},"¼":{"ha":1143,"x_min":134,"x_max":1072,"o":"m 134 878 l 134 905 q 300 971 210 925 l 315 961 q 307 762 307 883 l 308 615 q 314 507 308 521 q 385 480 323 488 l 385 451 q 253 455 309 455 q 139 451 197 455 l 139 480 q 202 496 193 490 q 214 519 211 502 q 218 654 218 536 q 213 876 218 864 q 193 887 208 887 q 134 878 178 887 m 821 975 l 896 975 l 320 -53 l 247 -53 l 821 975 m 985 478 l 1000 463 q 992 233 992 335 q 993 159 992 206 q 1066 165 1034 159 l 1072 153 q 1045 90 1055 123 q 993 92 1019 91 q 1005 6 994 20 q 1066 -16 1017 -9 l 1066 -44 q 948 -39 982 -39 q 831 -44 914 -39 l 831 -16 q 899 5 888 -9 q 911 95 910 18 q 683 92 730 94 q 679 159 682 126 q 899 440 806 309 q 985 478 944 454 m 911 159 l 911 373 q 743 159 779 207 l 911 159 z "},"¾":{"ha":1143,"x_min":66,"x_max":1072,"o":"m 134 833 l 100 833 q 122 939 113 888 q 190 965 159 956 q 248 973 221 973 q 340 944 307 973 q 372 872 372 915 q 357 819 372 844 q 304 766 342 795 q 379 720 352 754 q 406 640 406 686 q 343 503 406 561 q 183 446 281 446 q 66 463 136 446 q 87 576 81 519 l 117 576 q 153 511 130 530 q 210 493 176 493 q 280 523 252 493 q 308 603 308 553 q 280 679 308 650 q 205 708 252 708 q 168 706 191 708 l 168 741 q 257 784 227 753 q 287 844 287 815 q 268 886 287 869 q 220 903 250 903 q 170 886 192 903 q 134 833 149 869 m 821 975 l 896 975 l 320 -53 l 247 -53 l 821 975 m 985 478 l 1000 463 q 992 233 992 335 q 993 159 992 206 q 1066 165 1034 159 l 1072 153 q 1045 90 1055 123 q 993 92 1019 91 q 1005 6 994 20 q 1066 -16 1017 -9 l 1066 -44 q 948 -39 982 -39 q 831 -44 914 -39 l 831 -16 q 899 5 888 -9 q 911 95 910 18 q 683 92 730 94 q 679 159 682 126 q 899 440 806 309 q 985 478 944 454 m 911 159 l 911 373 q 743 159 779 207 l 911 159 z "},"­":{"ha":405,"x_min":37,"x_max":373,"o":"m 365 374 l 373 365 q 340 261 353 314 q 208 264 262 264 q 46 261 157 264 l 37 270 q 64 365 52 316 q 195 363 151 363 q 365 374 292 363 z "},"¯":{"ha":694,"x_min":-12,"x_max":707,"o":"m 707 1026 l -12 1026 l -12 1082 l 707 1082 l 707 1026 z "}}}
